<svg width="150" height="40" viewBox="0 0 150 40" fill="none" xmlns="http://www.w3.org/2000/svg">
<mask id="mask0_3328_804" style="mask-type:luminance" maskUnits="userSpaceOnUse" x="0" y="0" width="85" height="40">
<path d="M84.2105 0H0V40H84.2105V0Z" fill="white"/>
</mask>
<g mask="url(#mask0_3328_804)">
<path d="M9.20393 10.5407H6.38992L7.88803 5.77745L9.20393 10.5407ZM4.93203 15.7929L5.89056 12.6628H9.68203L10.5813 15.7929H14.0935L10.6026 3.8514C10.4015 3.14555 9.96361 2.82031 9.20393 2.82031H4.23382V3.94828H4.65277C5.17098 3.94828 5.45266 4.14434 5.45266 4.53186C5.45266 4.78559 5.3935 4.99781 5.18761 5.58139L1.69434 15.7929H4.93203Z" fill="#122B54"/>
<path d="M18.1377 15.7968V3.81839C18.1377 3.19558 17.7615 2.82422 17.1413 2.82422H14.0693V3.95217H14.2682C14.7865 3.95217 15.0042 4.16668 15.0042 4.67645V15.7968H18.1377Z" fill="#122B54"/>
<path d="M23.4653 15.7968V3.81839C23.4653 3.19558 23.0843 2.82422 22.4665 2.82422H19.3945V3.95217H19.5909C20.1116 3.95217 20.3318 4.16668 20.3318 4.67645V15.7968H23.4653Z" fill="#122B54"/>
<path d="M28.931 4.0049C28.931 3.13529 28.2706 2.60938 27.1344 2.60938C25.9986 2.60938 25.3358 3.13529 25.3358 4.0049C25.3358 4.87451 26.0175 5.40736 27.1344 5.40736C28.2516 5.40736 28.931 4.88605 28.931 4.0049ZM28.8718 15.7942V7.0612C28.8718 6.43844 28.4907 6.07167 27.8707 6.07167H24.8389V7.17887H25.0164C25.5347 7.17887 25.7548 7.41182 25.7548 7.917V15.7942H28.8718Z" fill="#122B54"/>
<path d="M35.7298 11.1253V13.0144C35.209 13.5403 34.5724 13.854 34.035 13.854C33.4979 13.854 33.2755 13.5841 33.2755 12.8575C33.2755 12.131 33.4317 11.8103 33.9925 11.5981C34.4114 11.4205 34.951 11.2659 35.7298 11.1253ZM31.5145 8.85548C32.5536 8.36879 33.692 8.09659 34.589 8.09659C35.429 8.09659 35.7298 8.38957 35.7298 9.2384V9.45525C34.4541 9.65129 34.054 9.73202 33.3346 9.88655C32.9204 9.98118 32.5346 10.0964 32.156 10.2533C30.8969 10.7447 30.3027 11.6928 30.3027 13.1504C30.3027 14.9981 31.1194 15.8908 32.8164 15.8908C33.434 15.8908 33.9948 15.7755 34.4943 15.5817C34.9321 15.3925 35.1924 15.2334 35.8315 14.7468V14.8828C35.8315 15.4849 36.1486 15.7939 36.7686 15.7939H39.623V14.7468H39.4834C38.9461 14.7468 38.7473 14.5114 38.7473 13.891V9.25918C38.7473 6.79105 37.8691 5.93066 35.3321 5.93066C34.5156 5.93066 33.718 6.03216 32.9418 6.20747C32.1583 6.38047 31.7584 6.53732 30.8259 6.98477L31.5192 8.85319L31.5145 8.85548Z" fill="#122B54"/>
<path d="M44.1672 15.7958V9.22194C44.6878 8.65677 45.2251 8.40304 45.8451 8.40304C46.5055 8.40304 46.6641 8.65677 46.6641 9.63479V15.7958H49.7763V9.185C49.7763 7.6465 49.6603 7.15974 49.1609 6.63845C48.7421 6.18865 48.103 5.95801 47.2818 5.95801C46.0629 5.95801 45.2062 6.32707 44.0535 7.37658V6.98907C44.0535 6.38471 43.7292 6.07333 43.0926 6.07333H40.1367V7.1805H40.3165C40.8348 7.1805 41.0573 7.41346 41.0573 7.91864V15.7958H44.1695H44.1672Z" fill="#122B54"/>
<path d="M59.0143 13.7548H54.6644L58.8156 8.07809V6.07129H52.3118C51.5733 6.07129 51.2349 6.40116 51.2349 7.12312V8.88998H52.3922V8.71704C52.3922 8.26952 52.6313 8.05732 53.1282 8.05732H55.3672L51.1758 13.7963V15.7985H59.0191V13.7571L59.0143 13.7548Z" fill="#122B54"/>
<path d="M75.3533 4.55565C75.3533 3.67913 75.0344 3.38618 74.1617 3.38618H71.5217V4.61332H71.6807C72.2839 4.61332 72.4007 4.74478 72.4007 5.45294V15.5492H75.3533V4.55565ZM76.6554 15.5468H79.5881V6.98687C79.5881 6.12647 79.247 5.81739 78.3881 5.81739H76.6554V15.5468ZM71.1039 15.5468V5.81739H69.366C68.507 5.81739 68.1709 6.12647 68.1709 6.98687V15.5468H71.1039ZM82.3596 9.9601C82.3596 14.8041 78.786 18.324 73.8775 18.324C68.9681 18.324 65.3949 14.8018 65.3949 9.9601C65.3949 5.11847 68.9681 1.59391 73.8775 1.59391C78.786 1.59391 82.3596 5.13693 82.3596 9.9601ZM84.0965 9.9601C84.0965 4.265 79.7249 0 73.8796 0C68.0341 0 63.6602 4.265 63.6602 9.9601C63.6602 15.6552 68.0315 19.918 73.8796 19.918C79.7281 19.918 84.0965 15.6622 84.0965 9.9601Z" fill="#122B54"/>
<path d="M49.4619 33.3831L50.0414 30.3525H40.3521L39.752 33.3831H49.4619Z" fill="#49CAED"/>
<path d="M49.9426 38.9215L50.3882 36.6855H39.0769L38.4775 39.7161H48.982C49.4476 39.7161 49.8526 39.3842 49.9426 38.9245V38.9215Z" fill="#49CAED"/>
<path d="M51.664 24.2372H41.5469L40.9473 27.2677H52.2556L52.622 25.4176C52.7443 24.8046 52.2818 24.2344 51.6616 24.2344L51.664 24.2372Z" fill="#49CAED"/>
<path d="M3.07147 24.1612H7.22937C9.7099 24.1612 11.5848 24.7201 12.8513 25.8381C14.1206 26.959 14.7577 28.5877 14.7577 30.7358C14.7577 32.461 14.3712 34.0018 13.602 35.3666C12.8336 36.723 11.7271 37.7928 10.2893 38.5646C8.85074 39.3364 7.1679 39.7195 5.24379 39.7195H0L3.07147 24.1582V24.1612ZM5.38053 36.6831C6.59695 36.6831 7.66274 36.4479 8.57726 35.9853C9.49084 35.5198 10.1986 34.8644 10.6904 34.0274C11.1829 33.1903 11.4335 32.2084 11.4335 31.0877C11.4335 28.4941 9.922 27.1917 6.9059 27.1917H5.70327L3.80832 36.6831H5.38053Z" fill="#122B54"/>
<path d="M22.3107 24.1602L19.2385 39.7157H16.0303L19.1016 24.1602H22.3107Z" fill="#122B54"/>
<path d="M36.0637 32.0523C35.2576 33.0853 34.2117 33.7748 32.9338 34.1181L35.7055 39.7139H32.1739L29.5888 34.3026H27.3702L26.31 39.7139H23.0986L26.1708 24.1582H31.5505C33.4287 24.1582 34.8556 24.5526 35.8246 25.3359C36.7943 26.119 37.2808 27.1973 37.2808 28.565C37.2808 29.8561 36.8759 31.0167 36.0666 32.0523H36.0637ZM27.9227 31.4849H31.4546C32.2553 31.4849 32.8783 31.2607 33.3271 30.8096C33.7721 30.3584 33.9966 29.7823 33.9966 29.0843C33.9966 28.4628 33.8014 27.9919 33.4086 27.6741C33.0152 27.3562 32.3575 27.1945 31.4315 27.1945H28.7766L27.9227 31.4877V31.4849Z" fill="#122B54"/>
<path d="M54.7524 38.2124C53.5675 37.0235 52.9766 35.3805 52.9766 33.2806C52.9766 31.5413 53.3522 29.9523 54.0976 28.522C54.8461 27.092 55.8881 25.9597 57.2275 25.1284C58.5698 24.2969 60.0922 23.8799 61.8012 23.8799C62.867 23.8799 63.8568 24.0387 64.7797 24.3594C65.7055 24.6773 66.4187 25.117 66.9281 25.676L65.6326 28.2865C65.1731 27.8524 64.6052 27.512 63.9383 27.2707C63.2689 27.0295 62.5758 26.9104 61.8481 26.9104C60.7708 26.9104 59.804 27.1743 58.951 27.702C58.0981 28.2325 57.4342 28.9561 56.9624 29.8727C56.4937 30.7894 56.2547 31.8249 56.2547 32.9743C56.2547 34.2482 56.5635 35.2328 57.1784 35.9253C57.7922 36.6177 58.7006 36.9639 59.9032 36.9639C60.6278 36.9639 61.3586 36.8475 62.0954 36.612C62.8347 36.3764 63.534 36.0387 64.1971 35.5848L64.5207 38.7826C63.8275 39.1743 63.0676 39.4723 62.247 39.6794C61.4232 39.8923 60.5725 39.9944 59.6934 39.9944C57.5856 39.9944 55.9349 39.3984 54.75 38.2095V38.2153H54.7524V38.2124Z" fill="#122B54"/>
<path d="M80.458 27.1936H76.0433L73.5749 39.7158H70.3664L72.8359 27.1936H68.4443L69.0212 24.1631H81.0549L80.4549 27.1936H80.458Z" fill="#122B54"/>
</g>
</svg>
