<?xml version="1.0" encoding="UTF-8" standalone="no"?>
<svg
   inkscape:version="1.2.1 (9c6d41e410, 2022-07-14)"
   sodipodi:docname="allianz.svg"
   id="svg8"
   version="1.1"
   fill="none"
   viewBox="0 0 139 40.000001"
   height="40"
   width="139"
   xmlns:inkscape="http://www.inkscape.org/namespaces/inkscape"
   xmlns:sodipodi="http://sodipodi.sourceforge.net/DTD/sodipodi-0.dtd"
   xmlns="http://www.w3.org/2000/svg"
   xmlns:svg="http://www.w3.org/2000/svg"
   xmlns:rdf="http://www.w3.org/1999/02/22-rdf-syntax-ns#"
   xmlns:cc="http://creativecommons.org/ns#"
   xmlns:dc="http://purl.org/dc/elements/1.1/">
  <metadata
     id="metadata14">
    <rdf:RDF>
      <cc:Work
         rdf:about="">
        <dc:format>image/svg+xml</dc:format>
        <dc:type
           rdf:resource="http://purl.org/dc/dcmitype/StillImage" />
      </cc:Work>
    </rdf:RDF>
  </metadata>
  <defs
     id="defs12" />
  <sodipodi:namedview
     inkscape:current-layer="svg8"
     inkscape:window-maximized="1"
     inkscape:window-y="-8"
     inkscape:window-x="-8"
     inkscape:cy="10.538608"
     inkscape:cx="69.916587"
     inkscape:zoom="6.3575758"
     showgrid="false"
     id="namedview10"
     inkscape:window-height="1009"
     inkscape:window-width="1920"
     inkscape:pageshadow="2"
     inkscape:pageopacity="0"
     guidetolerance="10"
     gridtolerance="10"
     objecttolerance="10"
     borderopacity="1"
     bordercolor="#666666"
     pagecolor="#ffffff"
     inkscape:showpageshadow="2"
     inkscape:pagecheckerboard="0"
     inkscape:deskcolor="#d1d1d1" />
  <g
     id="g6280"
     transform="matrix(0.97857142,0,0,0.97857142,2.597577,5.5110444)">
    <path
       d="M 11.125593,15.823592 H 6.3452238 L 8.8912557,7.5166084 Z m -7.2598548,9.154493 1.63198,-5.470282 h 6.4403648 l 1.526918,5.456274 h 5.95357 L 13.503525,4.1615957 C 13.153315,2.9323583 12.417871,2.3650177 11.125593,2.3650177 H 2.6820304 V 4.329696 h 0.70042 c 0.8825289,0 1.3588167,0.3502108 1.3588167,1.0191121 0,0.4447668 -0.098062,0.8159892 -0.4482722,1.8280967 L -1.6325596,24.978085 Z"
       fill="#003781"
       id="path4933"
       style="stroke-width:0.350211" />
    <path
       d="M 26.307201,24.978085 V 4.0985575 c 0,-1.0891533 -0.637381,-1.7335398 -1.691511,-1.7335398 H 19.380048 V 4.329696 h 0.35021 c 0.879029,0 1.253754,0.3747255 1.253754,1.2642591 V 24.978085 Z"
       fill="#003781"
       id="path4935"
       style="stroke-width:0.350211" />
    <path
       d="M 35.35663,24.978085 V 4.0985575 c 0,-1.0891533 -0.647881,-1.7335398 -1.695011,-1.7335398 H 28.443485 V 4.329696 h 0.35021 c 0.882528,0 1.257254,0.3747255 1.257254,1.2642591 V 24.978085 Z"
       fill="#003781"
       id="path4937"
       style="stroke-width:0.350211" />
    <path
       d="m 44.640705,4.4277551 c 0,-1.51641 -1.124175,-2.4514708 -3.050331,-2.4514708 -1.926155,0 -3.057334,0.9175507 -3.057334,2.4514708 0,1.5339201 1.159195,2.4514708 3.057334,2.4514708 1.898139,0 3.050331,-0.910546 3.050331,-2.4514708 M 44.539143,24.978085 V 9.7579532 c 0,-1.0856518 -0.644386,-1.726536 -1.698519,-1.726536 H 37.68903 V 9.957573 h 0.304686 c 0.879027,0 1.253752,0.406243 1.253752,1.288773 v 13.731739 z"
       fill="#003781"
       id="path4939"
       style="stroke-width:0.350211" />
    <path
       d="m 56.194136,16.839202 v 3.295477 c -0.886031,0.914049 -1.964678,1.474385 -2.878727,1.474385 -0.914049,0 -1.288773,-0.469282 -1.288773,-1.751051 0,-1.281769 0.26616,-1.824594 1.218731,-2.192315 a 13.539123,13.539123 0 0 1 2.948769,-0.826496 m -7.158295,-3.957374 a 12.786172,12.786172 0 0 1 5.221634,-1.323794 c 1.428857,0 1.936661,0.507804 1.936661,1.989193 v 0.378227 c -2.1678,0.35021 -2.847208,0.48329 -4.069441,0.752952 a 12.152292,12.152292 0 0 0 -2.003202,0.626875 c -2.139784,0.858015 -3.151892,2.511007 -3.151892,5.050031 0,3.221933 1.400841,4.776866 4.269062,4.776866 a 7.6836102,7.6836102 0 0 0 2.850711,-0.535822 9.4801879,9.4801879 0 0 0 2.272863,-1.456874 v 0.238143 c 0,1.05063 0.539324,1.586452 1.593456,1.586452 h 4.850411 V 23.153491 H 62.56796 c -0.914048,0 -1.250249,-0.409746 -1.250249,-1.491895 v -8.072344 c 0,-4.3040827 -1.495398,-5.8029818 -5.806485,-5.8029818 A 18.175905,18.175905 0 0 0 51.452291,8.266058 13.602161,13.602161 0 0 0 47.855633,9.6248731 Z"
       fill="#003781"
       id="path4941"
       style="stroke-width:0.350211" />
    <path
       d="M 70.528237,24.978085 V 13.51921 c 0.886032,-0.984091 1.796577,-1.428858 2.847207,-1.428858 1.124175,0 1.400842,0.444767 1.400842,2.150291 v 10.737442 h 5.28817 V 13.456172 c 0,-2.68261 -0.192609,-3.5301177 -1.05063,-4.4406645 -0.70042,-0.7879729 -1.796576,-1.1872117 -3.193913,-1.1872117 -2.069742,0 -3.526617,0.6408843 -5.484291,2.4724832 V 9.6248731 c 0,-1.05063 -0.549831,-1.5934559 -1.63198,-1.5934559 H 63.678127 V 9.957573 h 0.304683 c 0.879026,0 1.257254,0.406243 1.257254,1.288773 v 13.731739 z"
       fill="#003781"
       id="path4943"
       style="stroke-width:0.350211" />
    <path
       d="M 95.750367,21.41995 H 88.371441 L 95.42818,11.526514 V 8.0244133 H 84.361538 c -1.253754,0 -1.831597,0.5743445 -1.831597,1.831599 v 3.0818487 h 1.964675 v -0.30118 c 0,-0.780969 0.406241,-1.152192 1.250254,-1.152192 h 3.803279 l -7.130278,10.005503 v 3.502102 h 13.307988 z"
       fill="#003781"
       id="path4945"
       style="stroke-width:0.350211" />
    <path
       d="M 123.51153,24.547327 V 5.3873307 c 0,-1.5269163 -0.54283,-2.041725 -2.02422,-2.041725 h -4.48619 v 2.1537926 h 0.26967 c 1.02261,0 1.22223,0.2311385 1.22223,1.4638781 V 24.547327 Z m 2.21333,0 h 4.97998 V 9.6248731 c 0,-1.4988991 -0.57784,-2.0382227 -2.03822,-2.0382227 h -2.94176 z m -9.43117,0 V 7.600659 h -2.95226 c -1.46038,0 -2.03122,0.5393235 -2.03122,2.0382226 V 24.547327 Z m 19.12498,-9.739344 c 0,8.443566 -6.07264,14.58275 -14.41114,14.58275 -8.33851,0 -14.42516,-6.139184 -14.42516,-14.58275 0,-8.4435659 6.08315,-14.58274946 14.42516,-14.58274946 8.342,0 14.41114,6.17420456 14.41114,14.58274946 m 2.94877,0 c 0,-9.9284572 -7.42796,-17.3634178 -17.35991,-17.3634178 -9.93196,0 -17.36693,7.4349606 -17.36693,17.3634178 0,9.928457 7.42796,17.359916 17.36693,17.359916 9.93896,0 17.35991,-7.406944 17.35991,-17.359916"
       fill="#003781"
       id="path4947"
       style="stroke-width:0.350211" />
  </g>
</svg>
