<svg width="60" height="60" viewBox="0 0 60 60" fill="none" xmlns="http://www.w3.org/2000/svg">
<g clip-path="url(#clip0_944_1692)">
<path d="M2.2998 21.2998C3.0998 23.1998 2.4998 25.8998 1.0998 27.3998C-0.300195 28.7998 -0.300195 31.1998 1.0998 32.5998C2.4998 33.9998 3.0998 36.6998 2.2998 38.6998C1.4998 40.5998 2.3998 42.7998 4.2998 43.4998C6.1998 44.2998 7.6998 46.5998 7.6998 48.5998C7.6998 50.5998 9.3998 52.2998 11.3998 52.2998C13.3998 52.2998 15.6998 53.7998 16.4998 55.6998C17.2998 57.5998 19.4998 58.4998 21.2998 57.6998C23.1998 56.8998 25.8998 57.4998 27.3998 58.8998C28.7998 60.2998 31.1998 60.2998 32.5998 58.8998C33.9998 57.4998 36.6998 56.8998 38.6998 57.6998C40.5998 58.4998 42.7998 57.5998 43.4998 55.6998C44.1998 53.7998 46.5998 52.2998 48.5998 52.2998C50.5998 52.2998 52.2998 50.5998 52.2998 48.5998C52.2998 46.5998 53.7998 44.2998 55.6998 43.4998C57.5998 42.7998 58.4998 40.5998 57.6998 38.6998C56.8998 36.7998 57.4998 34.0998 58.8998 32.5998C60.2998 31.1998 60.2998 28.7998 58.8998 27.3998C57.4998 25.9998 56.8998 23.2998 57.6998 21.2998C58.4998 19.4998 57.6998 17.2998 55.6998 16.4998C53.7998 15.6998 52.2998 13.3998 52.2998 11.3998C52.2998 9.3998 50.5998 7.6998 48.5998 7.6998C46.5998 7.6998 44.2998 6.1998 43.4998 4.2998C42.6998 2.3998 40.4998 1.4998 38.6998 2.2998C36.7998 3.0998 34.0998 2.4998 32.5998 1.0998C31.1998 -0.300195 28.7998 -0.300195 27.3998 1.0998C25.9998 2.4998 23.2998 3.0998 21.2998 2.2998C19.3998 1.4998 17.1998 2.3998 16.4998 4.2998C15.6998 6.1998 13.3998 7.6998 11.3998 7.6998C9.3998 7.6998 7.6998 9.3998 7.6998 11.3998C7.6998 13.3998 6.1998 15.6998 4.2998 16.4998C2.3998 17.1998 1.4998 19.3998 2.2998 21.2998Z" fill="#F5B41C"/>
<path d="M30 55C43.8 55 55 43.8 55 30C55 16.2 43.8 5 30 5C16.2 5 5 16.2 5 30C5 43.8 16.2 54.9 30 55Z" fill="white"/>
<path d="M53.9001 20.1002C49.9001 11.0002 40.9001 4.7002 30.3001 4.7002C19.7001 4.7002 10.6001 11.0002 6.6001 20.1002H53.9001Z" fill="#F5B41C"/>
<path d="M17.4001 15.5002C16.9001 15.5002 16.4001 15.5002 16.1001 15.4002C15.9001 15.4002 15.8001 15.2002 15.7001 15.1002C15.7001 15.0002 15.6001 14.8002 15.6001 14.5002C15.6001 14.2002 15.6001 14.1002 15.6001 13.9002C15.6001 13.9002 15.9001 12.6002 15.9001 12.5002C15.9001 12.2002 16.1001 12.0002 16.2001 11.8002C16.4001 11.5002 16.7001 11.3002 17.0001 11.1002C17.3001 11.0002 17.7001 11.0002 18.3001 11.0002C18.6001 11.0002 18.9001 11.0002 19.1001 11.0002C19.3001 11.0002 19.5001 11.1002 19.7001 11.3002C19.7001 11.3002 19.9001 11.5002 19.9001 11.6002C19.9001 11.6002 19.9001 11.7002 19.9001 11.8002C19.9001 12.0002 19.9001 12.2002 19.9001 12.3002H18.8001C18.8001 12.3002 18.8001 12.3002 18.8001 12.2002C18.8001 12.2002 18.8001 12.0002 18.7001 12.0002C18.7001 12.0002 18.5001 12.0002 18.4001 12.0002C18.4001 12.0002 18.2001 12.0002 18.1001 12.0002C17.9001 12.0002 17.8001 12.0002 17.7001 12.0002C17.7001 12.0002 17.5001 12.0002 17.5001 12.1002C17.5001 12.1002 17.3001 12.3002 17.3001 12.4002C17.3001 12.5002 17.3001 12.7002 17.2001 12.9002L17.0001 13.6002C17.0001 13.8002 17.0001 14.0002 17.0001 14.2002C17.0001 14.4002 17.0001 14.4002 17.0001 14.4002C17.0001 14.4002 17.1001 14.6002 17.2001 14.6002C17.3001 14.6002 17.5001 14.6002 17.7001 14.6002C17.9001 14.6002 17.9001 14.6002 18.0001 14.6002C18.2001 14.6002 18.3001 14.6002 18.4001 14.4002C18.5001 14.4002 18.6001 14.2002 18.6001 13.9002H19.7001C19.7001 13.9002 19.7001 14.2002 19.7001 14.3002C19.7001 14.4002 19.7001 14.5002 19.6001 14.6002C19.5001 14.8002 19.3001 15.0002 19.1001 15.2002C18.9001 15.3002 18.7001 15.4002 18.4001 15.5002C18.2001 15.5002 17.9001 15.5002 17.7001 15.5002H17.6001H17.4001ZM29.9001 15.5002C29.4001 15.5002 28.9001 15.5002 28.6001 15.4002C28.4001 15.4002 28.3001 15.2002 28.2001 15.1002C28.2001 15.0002 28.1001 14.8002 28.1001 14.5002C28.1001 14.2002 28.1001 14.1002 28.1001 13.9002C28.1001 13.9002 28.4001 12.6002 28.4001 12.5002C28.4001 12.2002 28.6001 12.0002 28.7001 11.8002C28.9001 11.5002 29.2001 11.3002 29.5001 11.1002C29.8001 11.0002 30.2001 11.0002 30.8001 11.0002C31.1001 11.0002 31.4001 11.0002 31.6001 11.0002C31.8001 11.0002 32.0001 11.1002 32.2001 11.3002C32.2001 11.3002 32.4001 11.5002 32.4001 11.6002C32.4001 11.6002 32.4001 11.7002 32.4001 11.8002C32.4001 12.0002 32.4001 12.2002 32.4001 12.3002H31.3001C31.3001 12.3002 31.3001 12.3002 31.3001 12.2002C31.3001 12.2002 31.3001 12.0002 31.2001 12.0002C31.2001 12.0002 31.0001 12.0002 30.9001 12.0002C30.9001 12.0002 30.7001 12.0002 30.6001 12.0002C30.4001 12.0002 30.3001 12.0002 30.2001 12.0002C30.2001 12.0002 30.0001 12.0002 30.0001 12.1002C30.0001 12.1002 29.8001 12.3002 29.8001 12.4002C29.8001 12.5002 29.8001 12.7002 29.7001 12.9002L29.5001 13.6002C29.5001 13.8002 29.5001 14.0002 29.5001 14.2002C29.5001 14.4002 29.5001 14.4002 29.5001 14.4002C29.5001 14.4002 29.6001 14.6002 29.7001 14.6002C29.8001 14.6002 30.0001 14.6002 30.2001 14.6002C30.4001 14.6002 30.4001 14.6002 30.5001 14.6002C30.7001 14.6002 30.8001 14.6002 30.9001 14.4002C31.0001 14.4002 31.1001 14.2002 31.1001 13.9002H32.2001C32.2001 13.9002 32.2001 14.2002 32.2001 14.3002C32.2001 14.4002 32.2001 14.5002 32.1001 14.6002C32.0001 14.8002 31.8001 15.0002 31.6001 15.2002C31.4001 15.3002 31.2001 15.4002 30.9001 15.5002C30.7001 15.5002 30.4001 15.5002 30.2001 15.5002H30.1001H29.9001ZM27.5001 15.5002H24.3001L25.2001 11.2002C25.2001 11.2002 25.2001 11.1002 25.2001 11.0002C25.2001 11.0002 25.3001 11.0002 25.4001 11.0002H28.1001H28.2001V11.7002H26.0001L25.8001 12.6002H27.8001L27.6001 13.4002H25.6001L25.4001 14.5002H27.6001L27.4001 15.4002L27.5001 15.5002ZM33.3001 15.5002H32.2001L33.1001 11.3002C33.1001 11.3002 33.1001 11.1002 33.2001 11.1002C33.2001 11.1002 33.2001 11.1002 33.4001 11.1002H34.0001C34.0001 11.1002 34.1001 11.1002 34.2001 11.1002C34.2001 11.1002 34.2001 11.1002 34.2001 11.2002L33.3001 15.5002ZM36.2001 15.5002H34.8001L33.8001 13.2002L35.5001 11.3002C35.6001 11.2002 35.7001 11.1002 35.7001 11.1002C35.7001 11.1002 35.8001 11.1002 35.9001 11.1002H36.8001C36.8001 11.1002 36.8001 11.1002 36.8001 11.2002L34.9001 13.2002L36.0001 15.5002H36.2001ZM22.6001 15.5002L23.0001 13.7002H21.2001L20.8001 15.5002H19.7001C19.7001 15.3002 20.6001 11.3002 20.6001 11.3002C20.6001 11.2002 20.6001 11.1002 20.7001 11.1002C20.7001 11.1002 20.8001 11.1002 20.9001 11.1002H21.5001C21.5001 11.1002 21.5001 11.1002 21.6001 11.1002C21.6001 11.1002 21.3001 12.5002 21.3001 12.6002H23.1001C23.2001 11.9002 23.4001 11.1002 23.4001 11.1002C23.4001 11.0002 23.4001 10.9002 23.5001 10.9002C23.5001 10.9002 23.6001 10.9002 23.7001 10.9002H24.3001C24.3001 10.9002 24.3001 10.9002 24.4001 10.9002C24.4001 10.9002 23.5001 15.0002 23.5001 15.2002H22.4001L22.6001 15.5002ZM39.4001 11.9002C39.4001 11.9002 39.5001 11.9002 39.6001 12.0002C39.6001 12.0002 39.6001 12.0002 39.6001 12.2002C39.6001 12.4002 39.6001 12.3002 39.6001 12.4002C39.6001 12.5002 39.6001 12.6002 39.6001 12.7002C39.6001 12.7002 39.6001 12.9002 39.4001 12.9002C39.3001 13.0002 39.0001 13.1002 38.6001 13.2002C38.1001 13.3002 37.7001 13.4002 37.4001 13.5002C37.1001 13.6002 37.0001 13.8002 36.9001 14.0002C36.9001 14.2002 36.8001 14.4002 36.7001 14.6002L36.5001 15.4002H40.0001L40.2001 14.6002H37.8001C37.8001 14.6002 37.8001 14.4002 37.8001 14.3002C37.8001 14.3002 37.8001 14.1002 38.0001 14.1002C38.0001 14.1002 38.1001 14.1002 38.2001 14.0002C38.4001 14.0002 38.7001 14.0002 39.1001 13.8002C39.6001 13.7002 39.9001 13.5002 40.2001 13.3002C40.4001 13.1002 40.6001 12.7002 40.7001 12.2002C40.7001 12.0002 40.7001 11.8002 40.7001 11.7002C40.7001 11.5002 40.7001 11.3002 40.6001 11.2002C40.6001 11.1002 40.4001 11.0002 40.3001 10.9002C40.0001 10.8002 39.7001 10.7002 39.2001 10.7002C38.7001 10.7002 38.2001 10.7002 37.8001 11.0002C37.5001 11.2002 37.2001 11.6002 37.1001 12.2002V12.4002H38.1001V12.2002C38.1001 12.0002 38.2001 11.9002 38.3001 11.8002C38.3001 11.8002 38.5001 11.7002 38.6001 11.7002C38.6001 11.7002 38.8001 11.7002 38.9001 11.7002C39.0001 11.7002 39.1001 11.7002 39.2001 11.7002L39.4001 11.9002ZM42.3001 11.5002C42.2001 11.6002 41.1001 12.7002 40.7001 13.2002C40.7001 13.2002 40.5001 13.4002 40.5001 13.5002C40.5001 13.5002 40.5001 13.7002 40.5001 13.8002C40.5001 14.1002 40.5001 14.3002 40.5001 14.4002C40.5001 14.4002 40.5001 14.5002 40.5001 14.6002C40.5001 14.6002 40.6001 14.6002 40.7001 14.6002H42.8001L42.6001 15.5002H43.7001C43.7001 15.4002 43.9001 14.6002 43.9001 14.6002H44.3001L44.5001 13.8002H44.1001C44.1001 13.8002 44.5001 12.0002 44.5001 11.9002C44.6001 11.2002 44.3001 11.0002 43.6001 11.0002C43.4001 11.0002 43.0001 11.0002 42.5001 11.5002H42.3001ZM42.8001 13.8002H41.2001L43.0001 11.9002H43.1001L42.7001 13.8002H42.8001ZM39.9001 18.0002C39.2001 18.0002 38.5001 17.8002 38.0001 17.5002C37.4001 17.2002 37.1001 16.7002 37.0001 16.5002L36.8001 17.0002C36.8001 17.0002 36.8001 17.0002 36.7001 17.0002C36.7001 17.0002 36.7001 17.0002 36.7001 16.9002V15.9002H37.8001C37.8001 15.9002 37.8001 15.9002 37.9001 15.9002V16.0002L37.4001 16.2002C37.8001 16.6002 38.8001 17.2002 40.1001 17.2002C41.4001 17.2002 40.3001 17.2002 40.4001 17.2002C40.9001 17.2002 41.5001 17.0002 42.0001 16.8002C42.4001 16.6002 42.8001 16.4002 43.1001 16.1002L42.6001 15.9002C42.6001 15.9002 42.6001 15.9002 42.6001 15.8002C42.6001 15.8002 42.6001 15.7002 42.7001 15.7002H43.7001C43.7001 16.3669 43.7001 16.7002 43.7001 16.7002C43.7001 16.7002 43.7001 16.7002 43.7001 16.8002C43.7001 16.8002 43.7001 16.8002 43.6001 16.8002L43.4001 16.3002C43.2001 16.6002 42.9001 16.9002 42.3001 17.3002C41.8001 17.6002 41.1001 17.8002 40.5001 17.9002C40.5001 17.9002 40.3001 17.9002 40.2001 17.9002L39.9001 18.0002Z" fill="white"/>
<path d="M12 30.0998C11.6 30.0998 11.3 30.0998 11 29.8998C10.7 29.7998 10.4 29.5998 10.2 29.3998C10 29.1998 9.8 28.8998 9.7 28.5998C9.6 28.2998 9.5 27.8998 9.5 27.4998C9.5 27.0998 9.5 26.6998 9.7 26.3998C9.8 26.0998 10 25.7998 10.2 25.5998C10.4 25.3998 10.7 25.1998 11 25.0998C11.3 24.9998 11.7 24.8998 12.1 24.8998C12.5 24.8998 12.5 24.8998 12.7 24.8998C12.9 24.8998 13 24.8998 13.2 24.8998C13.4 24.8998 13.5 24.8998 13.6 24.9998C13.7 24.9998 13.8 25.0998 13.9 25.0998V26.2998H13.7C13.7 26.2998 13.6 26.1998 13.5 26.0998C13.5 26.0998 13.3 25.9998 13.2 25.8998C13.1 25.8998 12.9 25.7998 12.8 25.6998C12.7 25.6998 12.5 25.6998 12.3 25.6998C12.1 25.6998 11.9 25.6998 11.8 25.6998C11.6 25.6998 11.5 25.8998 11.3 25.9998C11.2 26.0998 11.1 26.2998 11 26.4998C11 26.6998 10.9 26.9998 10.9 27.2998C10.9 27.5998 10.9 27.8998 11 28.0998C11 28.2998 11.2 28.4998 11.3 28.5998C11.4 28.6998 11.6 28.7998 11.8 28.8998C12 28.8998 12.1 28.8998 12.3 28.8998C12.5 28.8998 12.6 28.8998 12.8 28.8998C13 28.8998 13.1 28.7998 13.2 28.6998C13.3 28.6998 13.4 28.5998 13.5 28.4998C13.5 28.4998 13.7 28.3998 13.7 28.2998H13.8V29.4998C13.7 29.4998 13.6 29.5998 13.4 29.6998C13.3 29.6998 13.2 29.6998 13 29.7998C12.8 29.7998 12.7 29.7998 12.5 29.8998C12.4 29.8998 12.2 29.8998 11.9 29.8998L12 30.0998ZM19.7 27.3998C19.7 28.1998 19.5 28.8998 19 29.2998C18.5 29.7998 17.9 29.9998 17.1 29.9998C16.3 29.9998 15.6 29.7998 15.2 29.2998C14.7 28.7998 14.5 28.1998 14.5 27.3998C14.5 26.5998 14.7 25.8998 15.2 25.4998C15.7 24.9998 16.3 24.7998 17.1 24.7998C17.9 24.7998 18.6 24.9998 19 25.4998C19.5 25.9998 19.7 26.5998 19.7 27.3998ZM18 28.6998C18.1 28.4998 18.2 28.3998 18.3 28.1998C18.3 27.9998 18.3 27.6998 18.3 27.4998C18.3 27.2998 18.3 26.8998 18.2 26.6998C18.2 26.4998 18 26.2998 17.9 26.1998C17.8 26.0998 17.6 25.9998 17.5 25.8998C17.3 25.8998 17.2 25.8998 17 25.8998C16.8 25.8998 16.7 25.8998 16.5 25.8998C16.4 25.8998 16.2 26.0998 16.1 26.1998C16 26.2998 15.9 26.4998 15.8 26.6998C15.8 26.8998 15.7 27.1998 15.7 27.4998C15.7 27.7998 15.7 28.0998 15.8 28.2998C15.8 28.4998 16 28.6998 16.1 28.7998C16.2 28.8998 16.3 28.9998 16.5 29.0998C16.7 29.1998 16.8 29.0998 17 29.0998C17.2 29.0998 17.3 29.0998 17.5 29.0998C17.7 29.0998 17.8 28.8998 17.9 28.7998L18 28.6998ZM25.4 29.9998H24.1L21.9 26.4998V29.9998H20.7V24.8998H22.3L24.2 27.7998V24.8998H25.4V29.9998ZM30.6 25.8998H29V29.9998H27.7V25.8998H26.1V24.8998H30.6V25.8998ZM34.3 26.3998C34.3 26.2998 34.3 26.1998 34.3 26.0998C34.3 26.0998 34.2 25.8998 34 25.8998C34 25.8998 33.8 25.8998 33.7 25.8998C33.6 25.8998 33.4 25.8998 33.3 25.8998H32.8V27.2998H33.2C33.4 27.2998 33.6 27.2998 33.7 27.2998C33.8 27.2998 34 27.2998 34.1 27.1998C34.1 27.1998 34.3 27.0998 34.3 26.9998C34.3 26.9998 34.3 26.7998 34.3 26.6998V26.3998ZM36.3 29.9998H34.7L33.3 28.0998H32.7V29.9998H31.4V24.8998H33.6C33.9 24.8998 34.2 24.8998 34.4 24.8998C34.6 24.8998 34.8 24.9998 35 25.0998C35.2 25.1998 35.3 25.3998 35.5 25.4998C35.6 25.6998 35.7 25.8998 35.7 26.1998C35.7 26.4998 35.7 26.8998 35.4 27.0998C35.2 27.2998 35 27.4998 34.7 27.6998L36.4 29.8998L36.3 29.9998ZM41.6 29.9998H40.2L39.8 28.9998H37.9L37.5 29.9998H36.2L38.1 24.8998H39.6L41.5 29.9998H41.6ZM39.6 27.9998L39 26.1998L38.4 27.9998H39.7H39.6ZM46.3 25.8998H44.7V29.9998H43.4V25.8998H41.8V24.8998H46.3V25.8998ZM51.8 29.9998H50.4L50 28.9998H48.1L47.7 29.9998H46.4L48.3 24.8998H49.8L51.7 29.9998H51.8ZM49.8 27.9998L49.2 26.1998L48.6 27.9998H49.9H49.8ZM22.9 38.9998H19.5V38.0998H20.6V35.3998H19.5V34.5998C19.7 34.5998 19.8 34.5998 20 34.5998C20.2 34.5998 20.3 34.5998 20.4 34.4998C20.5 34.4998 20.6 34.3998 20.7 34.2998C20.7 34.2998 20.7 34.0998 20.8 33.9998H21.9V38.1998H22.9V39.0998V38.9998ZM28.1 36.3998C28.1 36.7998 28.1 37.1998 28 37.5998C28 37.8998 27.8 38.1998 27.6 38.3998C27.4 38.5998 27.2 38.7998 27 38.8998C26.7 38.9998 26.4 39.0998 26 39.0998C25.6 39.0998 25.3 39.0998 25 38.8998C24.7 38.7998 24.5 38.5998 24.3 38.3998C24.1 38.1998 24 37.8998 23.9 37.5998C23.9 37.2998 23.8 36.8998 23.8 36.4998C23.8 36.0998 23.8 35.6998 23.9 35.2998C23.9 34.9998 24.1 34.6998 24.3 34.4998C24.5 34.2998 24.7 34.0998 25 33.9998C25.3 33.8998 25.6 33.7998 26 33.7998C26.4 33.7998 26.7 33.7998 27 33.9998C27.3 34.0998 27.5 34.2998 27.6 34.4998C27.8 34.6998 27.9 34.9998 28 35.2998C28 35.5998 28.1 35.9998 28.1 36.3998ZM26.8 36.3998C26.8 35.7998 26.8 35.2998 26.6 35.0998C26.5 34.7998 26.3 34.6998 26 34.6998C25.7 34.6998 25.5 34.7998 25.4 35.0998C25.3 35.3998 25.2 35.7998 25.2 36.3998C25.2 36.9998 25.2 37.3998 25.4 37.6998C25.5 37.9998 25.7 38.0998 26 38.0998C26.3 38.0998 26.5 37.9998 26.6 37.6998C26.7 37.3998 26.8 36.9998 26.8 36.3998ZM33.1 36.3998C33.1 36.7998 33.1 37.1998 33 37.5998C33 37.8998 32.8 38.1998 32.6 38.3998C32.4 38.5998 32.2 38.7998 32 38.8998C31.7 38.9998 31.4 39.0998 31 39.0998C30.6 39.0998 30.3 39.0998 30 38.8998C29.7 38.7998 29.5 38.5998 29.3 38.3998C29.1 38.1998 29 37.8998 28.9 37.5998C28.9 37.2998 28.8 36.8998 28.8 36.4998C28.8 36.0998 28.8 35.6998 28.9 35.2998C28.9 34.9998 29.1 34.6998 29.3 34.4998C29.5 34.2998 29.7 34.0998 30 33.9998C30.3 33.8998 30.6 33.7998 31 33.7998C31.4 33.7998 31.7 33.7998 32 33.9998C32.3 34.0998 32.5 34.2998 32.6 34.4998C32.8 34.6998 32.9 34.9998 33 35.2998C33 35.5998 33.1 35.9998 33.1 36.3998ZM31.8 36.3998C31.8 35.7998 31.8 35.2998 31.6 35.0998C31.5 34.7998 31.3 34.6998 31 34.6998C30.7 34.6998 30.5 34.7998 30.4 35.0998C30.3 35.3998 30.2 35.7998 30.2 36.3998C30.2 36.9998 30.2 37.3998 30.4 37.6998C30.5 37.9998 30.7 38.0998 31 38.0998C31.3 38.0998 31.5 37.9998 31.6 37.6998C31.7 37.3998 31.8 36.9998 31.8 36.3998ZM37.1 35.3998C37.1 35.9998 37 36.3998 36.7 36.6998C36.4 36.9998 36.1 37.0998 35.6 37.0998C35.1 37.0998 34.7 36.9998 34.4 36.6998C34.1 36.3998 34 35.9998 34 35.4998C34 34.9998 34.1 34.4998 34.4 34.1998C34.7 33.8998 35.1 33.7998 35.6 33.7998C36.1 33.7998 36.5 33.8998 36.8 34.1998C37.1 34.4998 37.2 34.8998 37.2 35.3998H37.1ZM39.7 33.8998L37 38.9998H36.1L38.8 33.8998H39.7ZM41.9 37.3998C41.9 37.9998 41.8 38.3998 41.5 38.6998C41.2 38.9998 40.9 39.0998 40.4 39.0998C39.9 39.0998 39.5 38.9998 39.2 38.6998C38.9 38.3998 38.8 37.9998 38.8 37.4998C38.8 36.9998 38.9 36.4998 39.2 36.1998C39.5 35.8998 39.9 35.7998 40.4 35.7998C40.9 35.7998 41.3 35.8998 41.6 36.1998C41.9 36.4998 42 36.8998 42 37.3998H41.9ZM36.1 35.3998C36.1 34.9998 36.1 34.7998 36 34.6998C36 34.5998 35.8 34.4998 35.6 34.4998C35.4 34.4998 35.3 34.4998 35.2 34.6998C35.2 34.7998 35.1 35.0998 35.1 35.3998C35.1 35.6998 35.1 35.9998 35.2 36.0998C35.2 36.1998 35.4 36.2998 35.6 36.2998C35.8 36.2998 35.9 36.2998 36 36.0998C36 35.9998 36.1 35.6998 36.1 35.3998ZM40.9 37.3998C40.9 36.9998 40.9 36.7998 40.8 36.6998C40.8 36.5998 40.6 36.4998 40.4 36.4998C40.2 36.4998 40.1 36.4998 40 36.6998C40 36.7998 39.9 37.0998 39.9 37.3998C39.9 37.6998 39.9 37.9998 40 38.0998C40 38.1998 40.2 38.2998 40.4 38.2998C40.6 38.2998 40.7 38.2998 40.8 38.0998C40.8 37.9998 40.9 37.6998 40.9 37.3998ZM20.6 45.3998C20.6 46.1998 20.4 46.8998 19.9 47.2998C19.4 47.7998 18.8 47.9998 18 47.9998C17.2 47.9998 16.5 47.7998 16.1 47.2998C15.6 46.7998 15.4 46.1998 15.4 45.3998C15.4 44.5998 15.6 43.8998 16.1 43.4998C16.6 42.9998 17.2 42.7998 18 42.7998C18.8 42.7998 19.5 42.9998 19.9 43.4998C20.4 43.9998 20.6 44.5998 20.6 45.3998ZM18.9 46.6998C19 46.4998 19.1 46.3998 19.2 46.1998C19.2 45.9998 19.2 45.6998 19.2 45.4998C19.2 45.2998 19.2 44.8998 19.1 44.6998C19.1 44.4998 18.9 44.2998 18.8 44.1998C18.7 44.0998 18.5 43.9998 18.4 43.8998C18.2 43.8998 18.1 43.8998 17.9 43.8998C17.7 43.8998 17.6 43.8998 17.4 43.8998C17.3 43.8998 17.1 44.0998 17 44.1998C16.9 44.2998 16.8 44.4998 16.7 44.6998C16.7 44.8998 16.6 45.1998 16.6 45.4998C16.6 45.7998 16.6 46.0998 16.7 46.2998C16.7 46.4998 16.9 46.6998 17 46.7998C17.1 46.8998 17.2 46.9998 17.4 47.0998C17.6 47.0998 17.7 47.0998 17.9 47.0998C18.1 47.0998 18.2 47.0998 18.4 47.0998C18.6 47.0998 18.7 46.8998 18.8 46.7998L18.9 46.6998ZM26.3 47.9998H25L22.8 44.4998V47.9998H21.6V42.8998H23.2L25.1 45.7998V42.8998H26.3V47.9998ZM31.2 47.9998H27.5V42.8998H28.8V46.9998H31.2V47.9998ZM34.8 47.9998H31.8V47.0998H32.6V43.7998H31.8V42.8998H34.8V43.7998H34V47.0998H34.8V47.9998ZM40.5 47.9998H39.2L37 44.4998V47.9998H35.8V42.8998H37.4L39.3 45.7998V42.8998H40.5V47.9998ZM45.5 47.9998H41.8V42.8998H45.5V43.8998H43.1V44.7998H45.3V45.7998H43.1V47.0998H45.5V48.0998V47.9998Z" fill="#022D94"/>
</g>
<defs>
<clipPath id="clip0_944_1692">
<rect width="60" height="60" fill="white"/>
</clipPath>
</defs>
</svg>
