<?xml version="1.0" encoding="UTF-8" standalone="no"?>
<svg
   xmlns:dc="http://purl.org/dc/elements/1.1/"
   xmlns:cc="http://creativecommons.org/ns#"
   xmlns:rdf="http://www.w3.org/1999/02/22-rdf-syntax-ns#"
   xmlns:svg="http://www.w3.org/2000/svg"
   xmlns="http://www.w3.org/2000/svg"
   xmlns:sodipodi="http://sodipodi.sourceforge.net/DTD/sodipodi-0.dtd"
   xmlns:inkscape="http://www.inkscape.org/namespaces/inkscape"
   inkscape:version="1.0 (4035a4fb49, 2020-05-01)"
   sodipodi:docname="check24.svg"
   xml:space="preserve"
   enable-background="new 0 0 10548.6 4219.5"
   viewBox="0 0 74.999965 29.999989"
   height="29.999989"
   width="74.999962"
   y="0px"
   x="0px"
   id="Ebene_1"
   version="1.1"><metadata
   id="metadata46"><rdf:RDF><cc:Work
       rdf:about=""><dc:format>image/svg+xml</dc:format><dc:type
         rdf:resource="http://purl.org/dc/dcmitype/StillImage" /></cc:Work></rdf:RDF></metadata><defs
   id="defs44" /><sodipodi:namedview
   inkscape:current-layer="Ebene_1"
   inkscape:window-maximized="1"
   inkscape:window-y="7"
   inkscape:window-x="-11"
   inkscape:cy="40.475414"
   inkscape:cx="177.0665"
   inkscape:zoom="4.2682443"
   showgrid="false"
   id="namedview42"
   inkscape:window-height="1526"
   inkscape:window-width="2880"
   inkscape:pageshadow="2"
   inkscape:pageopacity="0"
   guidetolerance="10"
   gridtolerance="10"
   objecttolerance="10"
   borderopacity="1"
   bordercolor="#666666"
   pagecolor="#ffffff" />
<g
   transform="translate(-101.81734,-841.25049)"
   id="Claim">
</g>
<g
   transform="matrix(0.0072499,0,0,0.00724991,-1.065735,-4.661033)"
   id="g39">
	<g
   id="g5">
		<path
   id="path3"
   d="m 787.374,3091.137 h -0.437 c -169.716,0 -345.557,-3.937 -461.034,-53.365 -59.926,-25.37 -101.48,-59.488 -130.787,-107.166 C 162.747,2878.116 147,2809.88 147,2722.835 c 0,-66.487 9.623,-144.347 27.994,-232.267 4.374,-20.121 104.542,-488.154 111.103,-513.086 26.682,-97.543 59.926,-178.027 102.355,-245.389 73.048,-115.915 170.591,-190.712 306.627,-235.328 113.29,-36.743 257.637,-53.365 467.158,-53.365 h 1.75 c 110.228,0 200.773,7.873 276.883,23.62 89.67,18.809 158.344,49.865 203.835,91.419 34.118,31.494 55.989,69.549 65.175,113.728 4.811,22.308 6.999,47.241 6.999,73.923 0,62.113 -12.685,127.287 -22.746,179.34 -1.312,7.873 -3.062,14.872 -4.374,22.308 l -0.437,2.187 h -405.92 l 0.437,-3.062 c 0,0 1.312,-12.248 1.75,-17.934 0,-0.438 1.75,-16.622 1.75,-40.242 0,-35.431 -16.622,-62.988 -50.302,-84.421 -26.682,-15.309 -61.238,-20.558 -94.044,-24.495 -34.993,-4.374 -74.36,-4.812 -111.541,-4.812 -68.237,0 -119.851,5.249 -162.28,17.059 -33.681,9.186 -62.113,22.746 -85.733,40.679 -33.681,25.37 -59.926,62.113 -80.047,111.978 -18.809,46.366 -32.369,101.917 -47.241,170.591 l -54.677,262.448 c -17.934,84.421 -30.619,148.283 -30.619,203.397 0,31.931 4.374,56.864 13.56,79.172 14.435,35.43 45.054,62.988 86.608,77.86 39.805,14.435 90.545,20.996 164.03,20.996 48.99,0 89.232,-0.875 125.975,-5.249 63.425,-7.436 108.916,-26.682 143.034,-59.926 37.18,-35.868 62.113,-89.232 78.734,-167.529 l 5.686,-26.682 h 401.546 v 2.625 c 0,3.062 -22.746,108.479 -34.556,150.907 -12.248,44.179 -25.37,81.359 -40.679,114.603 -38.93,84.858 -93.169,150.47 -171.029,206.022 -75.235,52.49 -155.282,84.858 -251.95,101.917 -83.109,14.435 -168.404,15.747 -262.886,15.747 0,0 -36.743,-0.437 -41.554,-0.437 z"
   fill="#063773" />
	</g>
	<g
   id="g9">
		<path
   id="path7"
   d="m 5285.298,3091.137 v 0 c -170.154,0 -345.994,-3.937 -461.472,-53.365 -59.925,-25.37 -101.479,-59.488 -130.787,-107.166 -32.369,-52.49 -48.116,-120.726 -48.116,-207.771 0,-66.487 9.623,-144.347 27.995,-232.267 4.375,-20.121 104.542,-488.154 111.104,-513.086 26.245,-97.543 59.925,-178.027 102.354,-245.389 73.048,-115.915 170.591,-190.712 306.627,-235.328 113.291,-36.743 257.637,-53.365 467.158,-53.365 h 1.75 c 110.228,0 200.773,7.873 276.883,23.62 89.67,18.809 158.343,49.865 203.834,91.419 34.119,31.494 55.989,69.549 65.175,113.728 4.812,22.308 6.999,47.241 6.999,73.923 0,62.113 -12.685,127.287 -22.745,179.777 -1.312,7.436 -3.062,14.872 -4.375,22.308 l -0.437,2.187 h -405.92 l 0.438,-3.062 c 0,0 1.312,-12.247 1.75,-17.934 0,-0.437 1.75,-16.622 1.75,-40.242 0,-35.431 -16.622,-62.988 -50.303,-84.421 -26.682,-15.31 -61.238,-20.558 -94.044,-24.495 -34.993,-4.374 -74.36,-4.812 -111.54,-4.812 -68.237,0 -119.852,5.249 -162.281,17.059 -33.681,9.186 -61.675,22.746 -85.733,40.679 -33.681,25.37 -59.925,62.113 -80.047,111.978 -18.809,46.366 -32.369,101.917 -47.241,170.591 l -55.551,261.573 c -17.934,84.421 -30.619,148.283 -30.619,203.397 0,31.931 4.374,56.864 13.56,79.172 14.435,35.43 45.054,62.988 86.608,77.86 39.805,14.435 90.544,20.996 164.03,20.996 48.99,0 89.232,-0.875 125.975,-5.249 63.425,-7.436 108.916,-26.682 143.034,-59.926 37.18,-35.868 62.112,-89.232 78.734,-167.529 l 5.687,-26.682 h 401.546 v 2.624 c 0,3.062 -22.745,108.479 -34.556,150.908 -12.248,44.179 -25.37,81.359 -40.68,114.603 -38.93,85.296 -93.169,150.47 -171.029,206.022 -75.235,52.49 -155.282,84.858 -251.95,101.917 -83.109,14.436 -298.753,15.748 -303.565,15.748 z"
   fill="#063773" />
	</g>
	<g
   id="g13">
		<path
   id="path11"
   d="M 4413.97,3078.015 H 3246.075 l 0.875,-3.062 326.748,-1537.072 c 5.686,-28.432 16.184,-47.678 33.243,-60.8 17.497,-13.56 41.554,-20.121 73.486,-20.121 h 985.493 c 24.495,0 41.992,5.686 52.49,16.184 7.874,8.311 12.248,20.121 12.248,34.556 v 1.312 c 0,6.124 -0.875,11.81 -2.187,17.934 l -50.74,239.703 h -762.849 l -66.049,318 h 716.046 l -65.174,299.628 h -716.046 l -81.359,383.612 h 778.596 z"
   fill="#063773" />
	</g>
	<g
   id="g17">
		<path
   id="path15"
   d="m 6508.307,3078.015 h -389.298 l 0.875,-3.062 325.436,-1531.385 c 7.874,-33.244 20.121,-55.989 38.493,-69.986 14.435,-10.935 32.806,-16.184 56.426,-16.184 h 230.517 c 24.932,0 43.304,5.686 55.114,17.059 9.186,8.748 13.997,21.871 13.997,37.18 0,4.812 -0.437,9.623 -1.312,14.435 z"
   fill="#063773" />
	</g>
	<g
   id="g21">
		<path
   id="path19"
   d="m 7580.407,3078.015 h -490.778 l -0.875,-1.75 -363.491,-840.709 1.312,-1.312 628.563,-682.365 c 38.93,-42.429 61.675,-63.862 82.234,-76.547 21.871,-13.56 41.117,-18.371 72.61,-18.371 h 316.688 c 14.872,0 24.058,4.812 29.307,9.186 3.062,2.625 5.249,5.249 6.561,7.873 0.875,1.75 1.75,3.937 1.75,6.561 h 0.437 l -0.437,5.249 c -0.438,6.561 -3.937,17.497 -17.06,31.931 L 7168.8,2246.929 Z"
   fill="#063773" />
	</g>
	<g
   id="g25">
		<path
   id="path23"
   d="m 2656.88,3078.015 h -3.062 l 0.875,-3.062 138.223,-654.808 H 2151.23 l -139.972,657.87 H 1621.96 l 0.875,-3.062 c 13.122,-62.113 322.374,-1522.199 324.561,-1530.51 11.373,-48.115 30.619,-64.737 45.928,-73.485 16.622,-9.623 39.805,-13.997 72.611,-13.997 h 210.396 c 10.935,0 28.869,4.812 42.429,14.435 7.436,5.249 13.123,11.373 16.622,17.934 4.374,7.873 6.561,16.622 6.561,26.682 0,4.374 -0.437,9.186 -1.312,13.997 -1.75,9.186 -108.479,508.275 -118.977,557.702 h 642.123 c 52.052,-246.264 114.603,-539.768 115.477,-543.268 11.373,-48.115 30.619,-64.737 45.928,-73.485 16.622,-9.623 39.804,-13.997 72.611,-13.997 h 210.396 c 10.935,0 28.869,4.812 42.429,14.435 7.436,5.249 13.122,11.373 16.622,17.934 4.374,7.873 6.561,16.622 6.561,26.682 0,4.374 -0.437,9.186 -1.312,13.997 -1.75,9.623 -315.375,1482.832 -328.935,1545.82 l -0.437,2.187 z"
   fill="#063773" />
	</g>
	<g
   id="g29">
		<path
   id="path27"
   d="m 8728.618,1773.647 c 30.181,7.873 53.802,22.745 66.486,47.678 v 0 c 8.311,16.622 12.248,35.868 12.248,59.051 v 0 c 0,23.62 -3.937,51.177 -10.497,83.546 v 0 c -9.187,42.429 -17.935,77.422 -31.494,107.604 v 0 c -13.561,30.182 -31.932,55.114 -58.613,76.11 v 0 c -53.364,41.992 -136.473,67.362 -283.881,100.605 v 0 c -195.087,43.304 -329.373,79.172 -424.291,126.413 v 0 c -94.918,47.24 -150.033,103.667 -191.587,192.899 v 0 c -27.557,59.488 -48.553,133.849 -68.674,227.893 v 0 l -55.114,279.945 h 1262.813 l 59.051,-283.444 h -878.764 c 0,0 13.561,-68.237 24.933,-93.169 v 0 c 14.435,-32.369 33.244,-56.427 57.738,-74.36 v 0 c 24.495,-17.934 54.239,-29.744 90.107,-39.804 v 0 c 72.174,-20.121 171.904,-33.681 318.438,-70.861 v 0 c 180.652,-46.803 302.69,-97.981 388.86,-180.652 v 0 c 86.17,-82.671 138.66,-199.023 177.152,-381.425 v 0 c 14.435,-67.362 22.309,-133.849 22.309,-184.151 v 0 c 0,-72.173 -13.997,-127.725 -38.93,-170.154 v 0 c -24.932,-42.429 -60.8,-73.048 -108.041,-95.794 v 0 c -93.605,-45.053 -231.391,-55.552 -394.547,-55.552 v 0 c -207.771,0 -371.363,21.433 -492.964,96.231 v 0 c -121.602,74.36 -206.022,209.959 -253.263,430.852 v 0 l -13.123,62.55 h 384.049 l 14.872,-69.111 c 14.871,-66.049 28.869,-111.103 53.802,-143.034 v 0 c 24.933,-32.369 61.238,-47.678 110.229,-53.802 v 0 c 33.243,-4.374 73.048,-5.249 122.476,-5.249 v 0 c 7.873,0 15.31,0 22.745,0 v 0 c 47.676,-0.875 85.295,1.312 115.475,9.185 z"
   fill="#063773" />
	</g>
	<g
   id="g33">
		<path
   id="path31"
   d="m 9788.034,1617.49 c -44.616,46.366 -419.479,438.288 -573.013,599.257 -30.618,32.806 -63.425,69.111 -77.859,99.293 -11.81,21.871 -27.119,82.671 -34.993,125.975 -16.185,90.545 -28.432,173.216 -35.868,206.896 -1.749,8.748 -2.624,16.622 -2.624,24.058 0,27.994 11.81,46.366 27.557,59.926 15.31,13.123 36.306,19.246 56.864,19.246 18.809,0 744.041,0 744.041,0 l -68.674,323.249 391.485,-37.18 60.8,-286.506 h 139.973 l 60.8,-286.506 h -139.973 c 0,0 139.973,-653.496 144.347,-677.991 48.115,-264.635 -61.676,-342.057 -309.251,-342.057 -62.988,1.312 -206.022,-11.811 -383.612,172.34 z m 164.468,848.583 h -562.077 l 668.806,-692.863 h 40.68 z"
   fill="#063773" />
	</g>
	<g
   id="g37">
		<path
   id="path35"
   d="m 8911.457,3980.399 v 0 c -252.825,0 -495.59,-67.362 -702.049,-195.086 -202.96,-125.1 -321.062,-272.946 -377.05,-356.492 l -73.923,190.275 c -6.561,17.497 -24.933,28.432 -44.616,25.37 -19.246,-3.499 -33.681,-20.121 -33.681,-39.367 l -3.937,-373.114 v -0.437 c 0,-10.498 4.374,-20.558 11.81,-27.557 7.874,-7.436 17.934,-11.81 28.869,-11.81 h 379.675 0.438 c 18.809,0.437 34.993,14.435 38.493,32.806 0.438,2.624 0.875,4.811 0.875,7.436 0,16.622 -10.498,31.494 -25.807,37.617 l -185.026,71.736 c 162.281,144.784 496.902,377.488 966.685,377.488 40.241,0 80.921,-1.75 121.163,-5.249 198.148,-16.622 398.046,-65.612 578.261,-140.847 157.906,-66.05 297.003,-150.033 403.295,-243.64 l -191.149,-56.426 c -17.059,-4.812 -29.307,-20.559 -29.307,-38.492 0,-1.312 0,-2.625 0,-3.937 1.749,-19.246 17.496,-34.556 36.742,-36.305 l 370.489,-33.681 c 1.749,0 3.062,-0.437 3.937,-0.437 9.623,0 18.809,3.499 25.807,9.186 8.311,6.999 13.561,17.059 14.435,27.557 30.619,364.365 30.619,364.365 30.619,365.677 0,17.934 -12.248,34.118 -29.744,38.93 -3.5,0.875 -6.999,1.312 -10.497,1.312 -15.748,0 -29.745,-8.748 -36.743,-22.308 l -89.669,-171.466 c -71.736,97.106 -196.837,234.016 -392.798,352.993 -198.586,120.726 -420.355,192.462 -659.183,212.583 l -24.058,2.187 v 0 c -33.682,2.186 -68.237,3.498 -102.356,3.498 z"
   fill="#063773" />
	</g>
</g>
</svg>
