<svg width="165" height="40" viewBox="0 0 165 40" fill="none" xmlns="http://www.w3.org/2000/svg">
<path fill-rule="evenodd" clip-rule="evenodd" d="M141.26 24.0298C141.26 19.6996 138.309 16.5783 134.245 16.5783C130.064 16.5783 127.211 19.7202 127.211 24.0298C127.211 28.3778 130.103 31.4799 134.245 31.4799C138.407 31.4799 141.26 28.3778 141.26 24.0298ZM145 13.5957V34.464H141.299V31.4017C140.42 32.8451 137.958 34.8149 134.089 34.8149C127.836 34.8149 123.42 30.4655 123.42 24.0298C123.42 17.8478 127.817 13.2433 134.089 13.2433C137.235 13.2433 139.931 14.6292 141.26 16.4618V13.5957H145ZM117.897 22.1529C117.624 18.725 115.125 16.4648 111.496 16.4648C108.059 16.4648 105.757 18.6085 105.288 22.1529H117.897ZM118.911 16.0372C120.669 17.7903 121.722 20.3601 121.762 23.4784V24.2185C121.762 24.5296 121.722 24.8407 121.683 25.1533H105.172C105.445 29.0869 107.982 31.5034 111.924 31.5034C115.242 31.5034 117.077 29.8684 118.444 27.3737L121.294 28.854C120.629 30.4522 119.497 31.931 117.936 33.0235C116.374 34.1146 114.383 34.8164 111.924 34.8164C108.802 34.8164 106.147 33.7637 104.274 31.8927C102.401 30.0217 101.347 27.3737 101.347 24.1021C101.347 20.944 102.439 18.2178 104.236 16.3085C106.031 14.4007 108.568 13.2698 111.534 13.2698C114.618 13.2698 117.157 14.2827 118.911 16.0372ZM96.4678 15.645V13.6207H92.7591V34.4655H96.4678V21.3745C96.4678 18.8415 97.5609 17.3597 100.097 17.3597H101.113V13.5809C101.058 13.5809 101.006 13.5809 100.953 13.5809C98.5183 13.5809 97.1941 14.4641 96.4678 15.645ZM86.4989 22.1529C86.2231 18.725 83.7252 16.4648 80.0956 16.4648C76.6599 16.4648 74.3569 18.6085 73.8886 22.1529H86.4989ZM87.5115 16.0372C89.2682 17.7903 90.3225 20.3601 90.3612 23.4784V24.2185C90.3612 24.5296 90.3225 24.8407 90.2837 25.1533H73.7719C74.0451 29.0869 76.5833 31.5034 80.5251 31.5034C83.8431 31.5034 85.6773 29.8684 87.0432 27.3737L89.893 28.854C89.2294 30.4522 88.096 31.931 86.5362 33.0235C84.9749 34.1146 82.9841 34.8164 80.5251 34.8164C77.4021 34.8164 74.7477 33.7637 72.8741 31.8927C71.0006 30.0217 69.9458 27.3737 69.9458 24.1021C69.9458 20.944 71.0407 18.2178 72.8354 16.3085C74.6308 14.4007 77.1677 13.2698 80.1344 13.2698C83.2182 13.2698 85.7548 14.2827 87.5115 16.0372ZM66.6514 13.6192L60.6012 29.9848L54.5121 13.6192H50.4142L58.493 34.4655H62.5535L70.5161 13.6192H66.6514ZM47.2044 22.1529C46.9304 18.725 44.4331 16.4648 40.8028 16.4648C37.3682 16.4648 35.0651 18.6085 34.5961 22.1529H47.2044ZM48.2183 16.0372C49.9757 17.7903 51.0297 20.3601 51.0685 23.4784V24.2185C51.0685 24.5296 51.0297 24.8407 50.9903 25.1533H34.4786C34.7518 29.0869 37.2893 31.5034 41.2323 31.5034C44.5492 31.5034 46.384 29.8684 47.75 27.3737L50.5995 28.854C49.9362 30.4522 48.804 31.931 47.2431 33.0235C45.6806 34.1146 43.6909 34.8164 41.2323 34.8164C38.1096 34.8164 35.4552 33.7637 33.5809 31.8927C31.7081 30.0217 30.6539 27.3737 30.6539 24.1021C30.6539 20.944 31.7474 18.2178 33.5421 16.3085C35.3376 14.4007 37.8752 13.2698 40.8414 13.2698C43.9254 13.2698 46.4616 14.2827 48.2183 16.0372ZM24.4552 34.4655H28.163V6.95801H24.4552V34.4655ZM20.6087 28.7758L22.8343 31.4253C21.9359 32.3217 20.7657 33.2181 19.2822 33.8418C17.7994 34.5038 15.9645 34.9712 13.9347 34.9712C9.75728 34.9712 6.28331 33.4909 3.82457 30.9977C1.36523 28.5429 0 25.0368 0 20.9838C0 16.9322 1.404 13.4261 3.86334 10.9315C6.32268 8.43828 9.75728 6.95801 13.8565 6.95801C17.4079 6.95801 20.375 8.08738 22.5612 10.0748L20.2969 12.8806C18.7358 11.5168 16.5109 10.5039 13.8565 10.5039C10.8514 10.5039 8.39206 11.5949 6.67401 13.4644C4.95611 15.334 4.01962 17.9834 4.01962 20.9838C4.01962 24.0608 5.035 26.6336 6.79018 28.4648C8.5476 30.3343 11.0457 31.4253 13.974 31.4253C17.0573 31.4253 19.2041 30.0232 20.6087 28.7758Z" fill="#00283F"/>
</svg>
