<svg width="50" height="61" viewBox="0 0 50 61" fill="none" xmlns="http://www.w3.org/2000/svg">
    <path d="M0.5 45.217V1H49.5V45.217L25 59.917L0.5 45.217Z" fill="#FAFAFA"/>
    <path d="M49 1.5V44.934L25 59.334L1 44.934V1.5H49ZM50 0.5H0V45.5L25 60.5L50 45.5V0.5Z" fill="#022D94"/>
    <path d="M49 1.5H1V15.5H49V1.5Z" fill="#022D94"/>
    <path d="M10.9804 10.1545H10.979C10.4541 10.1545 9.91013 10.1423 9.55293 9.98946C9.38565 9.92583 9.24364 9.80946 9.14837 9.65796C9.03995 9.46174 8.98841 9.23917 8.99953 9.01526C9.00412 8.77347 9.03313 8.53276 9.08613 8.2968C9.09966 8.23456 9.40951 6.7868 9.4298 6.70967C9.49729 6.44241 9.60399 6.18661 9.74642 5.95061C9.96247 5.59973 10.3001 5.34062 10.6949 5.22267C11.1652 5.09352 11.6526 5.03784 12.14 5.0576H12.1454C12.4326 5.05302 12.7196 5.0775 13.0019 5.13066C13.2332 5.1679 13.4507 5.26543 13.6324 5.41345C13.7353 5.50623 13.806 5.62949 13.834 5.76525C13.8492 5.8405 13.8564 5.91715 13.8556 5.99392C13.8495 6.18062 13.8259 6.36634 13.7853 6.54867C13.7812 6.57302 13.7758 6.59467 13.7717 6.61767L13.7704 6.62443H12.5147L12.5161 6.61496C12.5161 6.61496 12.5202 6.57707 12.5215 6.55948C12.5215 6.55948 12.5269 6.50807 12.5269 6.435C12.527 6.38148 12.5125 6.32895 12.4851 6.28297C12.4578 6.23699 12.4184 6.19929 12.3713 6.17387C12.2802 6.13005 12.1814 6.10432 12.0804 6.09809C11.9658 6.08624 11.8506 6.08127 11.7354 6.08321C11.5665 6.07822 11.3976 6.09597 11.2334 6.13598C11.1377 6.16043 11.0477 6.20316 10.9682 6.26181C10.8553 6.35223 10.7696 6.47211 10.7206 6.60819C10.6573 6.77973 10.6085 6.95624 10.5745 7.13588L10.4054 7.94771C10.3531 8.1538 10.3214 8.36455 10.3106 8.57688C10.3081 8.66049 10.3224 8.74377 10.3526 8.82178C10.3776 8.87865 10.4144 8.92955 10.4606 8.97108C10.5068 9.0126 10.5613 9.04381 10.6205 9.06262C10.7846 9.11323 10.9563 9.1352 11.1279 9.12757C11.258 9.12974 11.3881 9.12432 11.5176 9.11133C11.6819 9.10179 11.838 9.03639 11.96 8.92596C12.0914 8.7816 12.1762 8.60102 12.2035 8.40774L12.2211 8.32521H13.4632V8.33333C13.4632 8.3428 13.3929 8.66888 13.3563 8.80013C13.324 8.9215 13.282 9.04005 13.2305 9.15463C13.1154 9.41119 12.9325 9.63152 12.7015 9.79191C12.4687 9.9543 12.2023 10.0621 11.9221 10.1072C11.6529 10.1467 11.3809 10.163 11.1089 10.1559C11.1089 10.1559 10.9953 10.1545 10.9804 10.1545Z" fill="#FAFAFA"/>
    <path d="M24.8945 10.1545C24.3681 10.1545 23.8242 10.1423 23.467 9.98946C23.2997 9.92583 23.1577 9.80946 23.0624 9.65796C22.954 9.46174 22.9025 9.23917 22.9136 9.01526C22.9182 8.77347 22.9472 8.53276 23.0002 8.2968C23.0137 8.23456 23.3236 6.7868 23.3439 6.70967C23.4108 6.44221 23.5175 6.18633 23.6605 5.95061C23.8765 5.59973 24.2142 5.34062 24.609 5.22267C25.0793 5.09352 25.5667 5.03784 26.054 5.0576H26.0594C26.3467 5.05302 26.6336 5.0775 26.9159 5.13066C27.1473 5.1679 27.3648 5.26543 27.5464 5.41345C27.6494 5.50623 27.7201 5.62949 27.7481 5.76525C27.7633 5.8405 27.7705 5.91715 27.7697 5.99392C27.7635 6.18106 27.7399 6.36722 27.6993 6.55002C27.6953 6.57302 27.6899 6.59602 27.6858 6.61902L27.6845 6.62578H26.4288L26.4302 6.61631C26.4302 6.61631 26.4342 6.57843 26.4356 6.56084C26.4356 6.56084 26.441 6.50942 26.441 6.43636C26.4411 6.38284 26.4266 6.3303 26.3992 6.28432C26.3718 6.23834 26.3325 6.20064 26.2854 6.17522C26.1942 6.13141 26.0954 6.10567 25.9945 6.09945C25.8799 6.08759 25.7647 6.08262 25.6495 6.08456C25.4805 6.07957 25.3117 6.09732 25.1475 6.13733C25.0289 6.16598 24.9196 6.22437 24.8299 6.30699C24.7402 6.38962 24.673 6.49374 24.6347 6.60955C24.5714 6.78108 24.5225 6.95759 24.4886 7.13724L24.3167 7.94636C24.2645 8.15245 24.2328 8.3632 24.222 8.57553C24.2195 8.65914 24.2337 8.74242 24.2639 8.82043C24.2889 8.8773 24.3257 8.9282 24.3719 8.96973C24.4181 9.01125 24.4727 9.04246 24.5319 9.06127C24.696 9.11188 24.8676 9.13385 25.0393 9.12622C25.1694 9.12839 25.2995 9.12297 25.4289 9.10998C25.5932 9.10044 25.7493 9.03504 25.8714 8.92461C26.0028 8.78025 26.0876 8.59967 26.1149 8.40639L26.1325 8.32386H27.3746V8.33198C27.3746 8.34145 27.3043 8.66753 27.2677 8.79878C27.2354 8.92015 27.1933 9.0387 27.1419 9.15327C27.0271 9.41007 26.8441 9.63049 26.6129 9.79056C26.3801 9.95294 26.1137 10.0607 25.8335 10.1058C25.5216 10.1387 25.2081 10.1549 24.8945 10.1545Z" fill="#FAFAFA"/>
    <path d="M22.1986 10.1139H18.5859L18.5886 10.1045L19.5994 5.34985C19.6087 5.27645 19.6455 5.20929 19.7022 5.16178C19.7689 5.11617 19.8489 5.09425 19.9295 5.09954H22.9779C23.0365 5.09425 23.0949 5.11224 23.1403 5.1496C23.1663 5.17897 23.1799 5.2173 23.1782 5.25649V5.26055C23.1779 5.27923 23.1757 5.29783 23.1714 5.31603L23.0145 6.0575H20.6548L20.4504 7.04116H22.6654L22.4638 7.968H20.2488L19.9972 9.15462H22.4056L22.1986 10.1139Z" fill="#FAFAFA"/>
    <path d="M28.6778 10.1135H27.4736L27.4763 10.104L28.483 5.36699C28.4961 5.28312 28.5383 5.20651 28.6021 5.1505C28.653 5.11479 28.7145 5.09716 28.7766 5.10044H29.4897C29.5512 5.09528 29.6123 5.1142 29.6602 5.15321C29.6748 5.16842 29.6862 5.18647 29.6937 5.20624C29.7011 5.22602 29.7044 5.24711 29.7034 5.26822C29.7034 5.2832 29.7021 5.29814 29.6994 5.31287L28.6778 10.1135Z" fill="#FAFAFA"/>
    <path d="M31.9938 10.1137H30.4757L30.473 10.1083L29.3486 7.50778L29.3527 7.50372L31.297 5.39296C31.3712 5.30334 31.4567 5.22374 31.5514 5.15618C31.6185 5.11437 31.697 5.09451 31.776 5.09935H32.7556C32.7882 5.09773 32.8204 5.1078 32.8463 5.12777C32.8546 5.13447 32.8615 5.14274 32.8665 5.15212C32.8699 5.15836 32.8718 5.16532 32.872 5.17242H32.8733L32.872 5.18865C32.8658 5.22652 32.8473 5.26128 32.8192 5.28743L30.7206 7.54295L31.9938 10.1137Z" fill="#FAFAFA"/>
    <path d="M16.7638 10.114H16.7543L16.7571 10.1046L17.1846 8.07906H15.1997L14.7667 10.114H13.5625L13.5652 10.1046C13.6058 9.91244 14.5624 5.39597 14.5692 5.37025C14.5745 5.3242 14.59 5.27991 14.6146 5.2406C14.6392 5.20128 14.6722 5.16792 14.7112 5.14294C14.7811 5.10936 14.8585 5.09444 14.9358 5.09964H15.5867C15.6337 5.10203 15.6792 5.11749 15.7179 5.14429C15.7406 5.15932 15.7591 5.17988 15.7716 5.20402C15.7842 5.22817 15.7904 5.25511 15.7896 5.28231C15.7895 5.29683 15.7882 5.31132 15.7856 5.3256C15.7801 5.35402 15.45 6.89784 15.4175 7.05074H17.4038C17.5648 6.28897 17.7583 5.38108 17.761 5.37025C17.7663 5.3242 17.7819 5.27991 17.8064 5.2406C17.831 5.20128 17.864 5.16792 17.9031 5.14294C17.9729 5.10936 18.0503 5.09444 18.1277 5.09964H18.7785C18.8255 5.10203 18.871 5.11749 18.9097 5.14429C18.9324 5.15932 18.9509 5.17988 18.9634 5.20402C18.976 5.22817 18.9822 5.25511 18.9814 5.28231C18.9814 5.29683 18.98 5.31132 18.9774 5.3256C18.972 5.35537 18.0018 9.91244 17.9599 10.1073L17.9585 10.114H16.7638Z" fill="#FAFAFA"/>
    <path d="M35.5453 6.07871C35.5882 6.08685 35.6289 6.10427 35.6644 6.12974C35.6999 6.15521 35.7295 6.18813 35.751 6.2262C35.7778 6.28325 35.7908 6.34584 35.7889 6.40886C35.7864 6.49585 35.7756 6.5824 35.7564 6.66729C35.7354 6.78128 35.7027 6.89282 35.659 7.00014C35.6191 7.09249 35.5568 7.17342 35.4777 7.23557C35.3126 7.36546 35.0555 7.44394 34.5995 7.54677C34.1488 7.62744 33.7085 7.75861 33.2871 7.9378C33.0223 8.05625 32.8111 8.26894 32.6944 8.53449C32.5983 8.76108 32.5271 8.99745 32.482 9.23943L32.3115 10.1054H36.2178L36.4004 9.22861H33.6822C33.7007 9.13077 33.7265 9.03444 33.7593 8.94041C33.7972 8.84915 33.8589 8.76972 33.9379 8.71039C34.0226 8.65294 34.1171 8.61123 34.2166 8.58726C34.4399 8.52502 34.7484 8.48308 35.2016 8.36806C35.7604 8.22329 36.1379 8.06498 36.4045 7.80925C36.671 7.55353 36.8334 7.19362 36.9525 6.6294C36.9944 6.44229 37.0175 6.25146 37.0215 6.05976C37.0292 5.8767 36.9876 5.69493 36.9011 5.53343C36.8226 5.4028 36.7059 5.29937 36.5669 5.23711C36.1763 5.09611 35.7607 5.0376 35.3464 5.06527C34.7037 5.06527 34.1977 5.13157 33.8215 5.36294C33.4454 5.59296 33.1842 6.01241 33.0381 6.6957L32.9975 6.88918H34.1855L34.2315 6.6754C34.2547 6.51772 34.3114 6.36684 34.3979 6.23295C34.4402 6.18316 34.4923 6.14267 34.551 6.11402C34.6096 6.08538 34.6736 6.06921 34.7389 6.06653C34.8647 6.05322 34.9912 6.0478 35.1177 6.05029H35.1881C35.3079 6.04395 35.428 6.05351 35.5453 6.07871Z" fill="#FAFAFA"/>
    <path d="M38.8228 5.59656C38.6847 5.73999 37.5252 6.95232 37.0503 7.45024C36.9567 7.5415 36.8758 7.64479 36.8094 7.75738C36.7591 7.88288 36.7228 8.01357 36.7012 8.14706C36.6511 8.42714 36.6132 8.68286 36.5902 8.78706C36.5851 8.81153 36.5823 8.83646 36.5821 8.86147C36.5812 8.89683 36.5884 8.93193 36.6032 8.96407C36.618 8.9962 36.6399 9.02452 36.6674 9.04684C36.7172 9.08675 36.7794 9.10783 36.8433 9.10638H39.1448L38.9324 10.1063L40.1433 9.99128L40.3314 9.10503H40.7644L40.9525 8.21879H40.5195C40.5195 8.21879 40.9525 6.19733 40.966 6.12156C41.1148 5.30296 40.7752 5.06348 40.0094 5.06348C39.8145 5.06752 39.3721 5.02693 38.8228 5.59656ZM39.3315 8.22148H37.5928L39.6616 6.07825H39.7875L39.3315 8.22148Z" fill="#FAFAFA"/>
    <path d="M36.111 12.9051C35.3451 12.9098 34.5931 12.7008 33.9394 12.3017C33.4769 12.0209 33.0793 11.645 32.7731 11.1989L32.5444 11.7875C32.534 11.8147 32.5144 11.8373 32.489 11.8516C32.4636 11.8659 32.4341 11.8709 32.4054 11.8658C32.3768 11.8607 32.3508 11.8458 32.332 11.8236C32.3131 11.8014 32.3026 11.7733 32.3022 11.7442L32.29 10.59V10.5887C32.29 10.5728 32.2933 10.557 32.2995 10.5423C32.3058 10.5277 32.315 10.5144 32.3266 10.5035C32.3505 10.4802 32.3825 10.4671 32.4159 10.4669H33.5917C33.6201 10.4679 33.6473 10.4784 33.6689 10.4969C33.6906 10.5153 33.7053 10.5405 33.7107 10.5684C33.7123 10.576 33.7132 10.5837 33.7134 10.5914C33.7132 10.6165 33.7055 10.641 33.6913 10.6618C33.6771 10.6825 33.657 10.6985 33.6336 10.7078L33.0613 10.9297C33.8818 11.6713 34.9455 12.0868 36.0515 12.0973C36.176 12.0973 36.3018 12.0919 36.4263 12.0811C37.0414 12.0287 37.6447 11.8817 38.215 11.6454C38.6685 11.4625 39.0897 11.2081 39.4625 10.8918L38.8713 10.7172C38.8453 10.7099 38.8224 10.6943 38.8061 10.6728C38.7897 10.6514 38.7808 10.6252 38.7806 10.5982V10.586C38.7836 10.557 38.7965 10.5299 38.8173 10.5094C38.838 10.4889 38.8652 10.4763 38.8943 10.4737L40.0403 10.3695C40.0457 10.3695 40.0498 10.3682 40.0525 10.3682C40.0815 10.3683 40.1097 10.3783 40.1323 10.3966C40.1579 10.418 40.1739 10.4486 40.177 10.4818C40.2717 11.6089 40.2717 11.6089 40.2717 11.613C40.2715 11.6403 40.2624 11.6668 40.2458 11.6886C40.2292 11.7103 40.206 11.726 40.1797 11.7334C40.169 11.7361 40.1581 11.7374 40.1472 11.7374C40.1237 11.7375 40.1007 11.7311 40.0807 11.7189C40.0606 11.7068 40.0443 11.6893 40.0335 11.6684L39.7562 11.138C39.4256 11.5772 39.013 11.948 38.5411 12.2299C37.9221 12.6053 37.2238 12.8305 36.5021 12.8875L36.4277 12.8943C36.3235 12.9011 36.2166 12.9051 36.111 12.9051Z" fill="#FAFAFA"/>
    <path d="M25 45.5234C24.0111 45.5234 23.0444 45.8166 22.2222 46.366C21.3999 46.9154 20.759 47.6963 20.3806 48.6099C20.0022 49.5236 19.9031 50.5289 20.0961 51.4988C20.289 52.4687 20.7652 53.3596 21.4645 54.0589C22.1637 54.7581 23.0546 55.2344 24.0246 55.4273C24.9945 55.6202 25.9998 55.5212 26.9134 55.1427C27.8271 54.7643 28.6079 54.1234 29.1574 53.3012C29.7068 52.479 30 51.5123 30 50.5234C29.9995 49.1974 29.4726 47.9259 28.535 46.9884C27.5974 46.0508 26.3259 45.5238 25 45.5234ZM25.9 54.1233H24.1V49.1234H25.9V54.1233ZM25 48.6234C24.42 48.6234 24.06 48.2434 24.06 47.7634C24.06 47.2534 24.43 46.8934 25 46.8934C25.57 46.8934 25.93 47.2534 25.94 47.7634C25.9383 47.8827 25.9122 48.0004 25.8633 48.1093C25.8144 48.2181 25.7438 48.3158 25.6558 48.3964C25.5677 48.4769 25.4641 48.5386 25.3513 48.5777C25.2386 48.6167 25.119 48.6322 25 48.6234Z" fill="#022D94"/>
    <path d="M16.1719 39.7754C16.1719 40.1374 16.1159 40.4668 16.0039 40.7637C15.8945 41.0605 15.75 41.3053 15.5703 41.498C15.3828 41.7012 15.1706 41.8548 14.9336 41.959C14.6966 42.0632 14.4427 42.1152 14.1719 42.1152C13.9219 42.1152 13.7096 42.0879 13.5352 42.0332C13.3607 41.9811 13.1823 41.9069 13 41.8105V43.6387H11.5938V37.6426H13V38.0996C13.2161 37.9277 13.4362 37.7884 13.6602 37.6816C13.8867 37.5749 14.147 37.5215 14.4413 37.5215C14.9882 37.5215 15.4128 37.722 15.7148 38.123C16.0195 38.5241 16.1719 39.0749 16.1719 39.7754ZM14.7227 39.8027C14.7227 39.3756 14.6496 39.0658 14.5038 38.873C14.358 38.6803 14.1276 38.584 13.8125 38.584C13.6797 38.584 13.543 38.6048 13.4023 38.6465C13.2617 38.6855 13.1276 38.7428 13 38.8184V41.0254C13.0938 41.0618 13.194 41.0853 13.3008 41.0957C13.4076 41.1061 13.513 41.1113 13.6172 41.1113C13.9896 41.1113 14.2669 41.0033 14.4492 40.7871C14.6315 40.5684 14.7227 40.2402 14.7227 39.8027Z" fill="#022D94"/>
    <path d="M20.3672 38.9824H20.2422C20.1823 38.9616 20.0859 38.946 19.9531 38.9356C19.8203 38.9251 19.7096 38.9199 19.6211 38.9199C19.4206 38.9199 19.2435 38.9329 19.0898 38.959C18.9362 38.985 18.7708 39.0293 18.5938 39.0918V42.0293H17.1875V37.6426H18.5938V38.2871C18.9036 38.0215 19.1732 37.8457 19.4023 37.7598C19.6315 37.6712 19.8424 37.627 20.0352 37.627C20.0846 37.627 20.1406 37.6283 20.2031 37.6309C20.2656 37.6335 20.3203 37.6374 20.3672 37.6426V38.9824Z" fill="#022D94"/>
    <path d="M25.4922 40.0957H22.2734C22.2943 40.4394 22.4245 40.7025 22.6641 40.8848C22.9062 41.0671 23.2617 41.1582 23.7305 41.1582C24.0273 41.1582 24.3151 41.1048 24.5938 40.998C24.8724 40.8913 25.0925 40.7767 25.2539 40.6543H25.4102V41.7832C25.0925 41.9108 24.793 42.0033 24.5117 42.0605C24.2305 42.1178 23.9193 42.1465 23.5781 42.1465C22.6979 42.1465 22.0234 41.9486 21.5547 41.5527C21.0859 41.1569 20.8516 40.5931 20.8516 39.8613C20.8516 39.1374 21.0729 38.5645 21.5156 38.1426C21.9609 37.7181 22.5703 37.5059 23.3438 37.5059C24.0573 37.5059 24.5938 37.6868 24.9531 38.0488C25.3125 38.4082 25.4922 38.9264 25.4922 39.6035V40.0957ZM24.0938 39.2715C24.0859 38.9772 24.013 38.7559 23.875 38.6074C23.737 38.459 23.5221 38.3848 23.2305 38.3848C22.9596 38.3848 22.737 38.4551 22.5625 38.5957C22.388 38.7363 22.2904 38.9616 22.2695 39.2715H24.0938Z" fill="#022D94"/>
    <path d="M28.7695 42.1465C28.3867 42.1465 28.0365 42.1009 27.7188 42.0098C27.4037 41.9186 27.1289 41.778 26.8945 41.5879C26.6628 41.3978 26.4831 41.1582 26.3555 40.8691C26.2279 40.5801 26.1641 40.2415 26.1641 39.8535C26.1641 39.4447 26.2318 39.0918 26.3672 38.7949C26.5052 38.498 26.6966 38.252 26.9414 38.0566C27.1784 37.8717 27.4518 37.7363 27.7617 37.6504C28.0716 37.5645 28.3932 37.5215 28.7266 37.5215C29.026 37.5215 29.3021 37.554 29.5547 37.6191C29.8073 37.6843 30.043 37.7689 30.2617 37.8731V39.0723H30.0625C30.0078 39.0254 29.9414 38.9707 29.8633 38.9082C29.7878 38.8457 29.694 38.7845 29.582 38.7246C29.4753 38.6673 29.3581 38.6204 29.2305 38.584C29.1029 38.5449 28.9544 38.5254 28.7852 38.5254C28.4102 38.5254 28.1211 38.6452 27.918 38.8848C27.7174 39.1218 27.6172 39.4447 27.6172 39.8535C27.6172 40.2754 27.7201 40.5957 27.9258 40.8145C28.1341 41.0332 28.4284 41.1426 28.8086 41.1426C28.9857 41.1426 29.1445 41.1231 29.2852 41.084C29.4284 41.0423 29.5469 40.9942 29.6406 40.9395C29.7292 40.8874 29.8073 40.8327 29.875 40.7754C29.9427 40.7181 30.0052 40.6621 30.0625 40.6074H30.2617V41.8067C30.0404 41.9108 29.8086 41.9928 29.5664 42.0527C29.3268 42.1152 29.0612 42.1465 28.7695 42.1465Z" fill="#022D94"/>
    <path d="M32.5938 42.0293H31.1875V37.6426H32.5938V42.0293ZM32.6328 37.0176H31.1484V35.9512H32.6328V37.0176Z" fill="#022D94"/>
    <path d="M38.4063 39.8379C38.4063 40.5592 38.1953 41.1283 37.7734 41.5449C37.3542 41.959 36.7643 42.166 36.0039 42.166C35.2435 42.166 34.6523 41.959 34.2305 41.5449C33.8112 41.1283 33.6016 40.5592 33.6016 39.8379C33.6016 39.1113 33.8125 38.541 34.2344 38.127C34.6589 37.7129 35.2487 37.5059 36.0039 37.5059C36.7695 37.5059 37.3607 37.7142 37.7773 38.1309C38.1966 38.5475 38.4063 39.1165 38.4063 39.8379ZM36.6758 40.9043C36.7669 40.7923 36.8346 40.6582 36.8789 40.502C36.9258 40.3431 36.9492 40.1243 36.9492 39.8457C36.9492 39.5879 36.9258 39.3717 36.8789 39.1973C36.832 39.0228 36.7669 38.8835 36.6836 38.7793C36.6003 38.6725 36.5 38.597 36.3828 38.5527C36.2656 38.5085 36.1393 38.4863 36.0039 38.4863C35.8685 38.4863 35.7474 38.5046 35.6406 38.541C35.5365 38.5775 35.4362 38.6504 35.3398 38.7598C35.2539 38.8613 35.1849 39.0007 35.1328 39.1777C35.0833 39.3548 35.0586 39.5775 35.0586 39.8457C35.0586 40.0853 35.0807 40.2936 35.125 40.4707C35.1693 40.6452 35.2344 40.7858 35.3203 40.8926C35.4037 40.9941 35.5026 41.0684 35.6172 41.1152C35.7344 41.1621 35.8672 41.1855 36.0156 41.1855C36.1432 41.1855 36.2643 41.1647 36.3789 41.123C36.4961 41.0788 36.5951 41.0059 36.6758 40.9043Z" fill="#022D94"/>
    <path d="M9.76172 32.334H8.35547V31.8769C8.11328 32.0749 7.88672 32.2207 7.67578 32.3144C7.46484 32.4082 7.22135 32.4551 6.94531 32.4551C6.41146 32.4551 5.98438 32.2493 5.66406 31.8379C5.34375 31.4264 5.18359 30.8717 5.18359 30.1738C5.18359 29.8014 5.23698 29.472 5.34375 29.1855C5.45312 28.8965 5.60156 28.6491 5.78906 28.4434C5.96615 28.248 6.18099 28.097 6.43359 27.9902C6.6862 27.8809 6.9388 27.8262 7.19141 27.8262C7.45443 27.8262 7.66927 27.8548 7.83594 27.9121C8.00521 27.9668 8.17839 28.0371 8.35547 28.123V26.2559H9.76172V32.334ZM8.35547 31.123V28.9707C8.25651 28.929 8.15234 28.8991 8.04297 28.8809C7.93359 28.8626 7.83333 28.8535 7.74219 28.8535C7.3724 28.8535 7.09505 28.9694 6.91016 29.2012C6.72526 29.4303 6.63281 29.7494 6.63281 30.1582C6.63281 30.5879 6.70703 30.9004 6.85547 31.0957C7.00391 31.2884 7.24219 31.3848 7.57031 31.3848C7.69792 31.3848 7.83333 31.3613 7.97656 31.3145C8.11979 31.265 8.24609 31.2011 8.35547 31.123Z" fill="#022D94"/>
    <path d="M15.4102 30.4004H12.1914C12.2122 30.7441 12.3425 31.0072 12.582 31.1895C12.8242 31.3717 13.1797 31.4629 13.6484 31.4629C13.9453 31.4629 14.2331 31.4095 14.5117 31.3027C14.7904 31.196 15.0104 31.0814 15.1719 30.959H15.3281V32.0879C15.0104 32.2155 14.7109 32.3079 14.4297 32.3652C14.1484 32.4225 13.8372 32.4512 13.4961 32.4512C12.6159 32.4512 11.9414 32.2533 11.4727 31.8574C11.0039 31.4616 10.7695 30.8978 10.7695 30.166C10.7695 29.4421 10.9909 28.8691 11.4336 28.4473C11.8789 28.0228 12.4883 27.8105 13.2617 27.8105C13.9753 27.8105 14.5117 27.9915 14.8711 28.3535C15.2305 28.7129 15.4102 29.2311 15.4102 29.9082V30.4004ZM14.0117 29.5762C14.0039 29.2819 13.931 29.0605 13.793 28.9121C13.6549 28.7637 13.4401 28.6895 13.1484 28.6895C12.8776 28.6895 12.6549 28.7598 12.4805 28.9004C12.306 29.041 12.2083 29.2663 12.1875 29.5762H14.0117Z" fill="#022D94"/>
    <path d="M23.4258 29.2246V32.334H22.0117V30.1426C22.0117 29.929 22.0065 29.748 21.9961 29.5996C21.9857 29.4486 21.957 29.3262 21.9102 29.2324C21.8633 29.1387 21.7917 29.071 21.6953 29.0293C21.6016 28.985 21.4688 28.9629 21.2969 28.9629C21.1589 28.9629 21.0247 28.9915 20.8945 29.0488C20.7643 29.1035 20.6471 29.1621 20.543 29.2246V32.334H19.1367V27.9473H20.543V28.4316C20.7852 28.2415 21.0169 28.0931 21.2383 27.9863C21.4596 27.8796 21.7044 27.8262 21.9727 27.8262C22.2617 27.8262 22.5169 27.8913 22.7383 28.0215C22.9596 28.1491 23.1328 28.3379 23.2578 28.5879C23.5391 28.3509 23.8125 28.1647 24.0781 28.0293C24.3438 27.8939 24.6042 27.8262 24.8594 27.8262C25.3333 27.8262 25.6927 27.9681 25.9375 28.252C26.1849 28.5358 26.3086 28.9447 26.3086 29.4785V32.334H24.8945V30.1426C24.8945 29.9264 24.8893 29.7441 24.8789 29.5957C24.8711 29.4473 24.8438 29.3262 24.7969 29.2324C24.7526 29.1387 24.6823 29.071 24.5859 29.0293C24.4896 28.985 24.3542 28.9629 24.1797 28.9629C24.0625 28.9629 23.9479 28.9837 23.8359 29.0254C23.724 29.0644 23.5872 29.1309 23.4258 29.2246Z" fill="#022D94"/>
    <path d="M31.9258 30.4004H28.707C28.7279 30.7441 28.8581 31.0072 29.0977 31.1895C29.3398 31.3717 29.6953 31.4629 30.1641 31.4629C30.4609 31.4629 30.7487 31.4095 31.0273 31.3027C31.306 31.196 31.526 31.0814 31.6875 30.959H31.8438V32.0879C31.526 32.2155 31.2266 32.3079 30.9453 32.3652C30.6641 32.4225 30.3529 32.4512 30.0117 32.4512C29.1315 32.4512 28.457 32.2533 27.9883 31.8574C27.5195 31.4616 27.2852 30.8978 27.2852 30.166C27.2852 29.4421 27.5065 28.8691 27.9492 28.4473C28.3945 28.0228 29.0039 27.8105 29.7773 27.8105C30.4909 27.8105 31.0273 27.9915 31.3867 28.3535C31.7461 28.7129 31.9258 29.2311 31.9258 29.9082V30.4004ZM30.5273 29.5762C30.5195 29.2819 30.4466 29.0605 30.3086 28.9121C30.1706 28.7637 29.9557 28.6895 29.6641 28.6895C29.3932 28.6895 29.1706 28.7598 28.9961 28.9004C28.8216 29.041 28.724 29.2663 28.7031 29.5762H30.5273Z" fill="#022D94"/>
    <path d="M34.8164 32.4121C34.8164 32.9069 34.6641 33.2923 34.3594 33.5684C34.0547 33.847 33.6628 33.9863 33.1836 33.9863C32.9284 33.9863 32.6953 33.9746 32.4844 33.9512C32.276 33.9303 32.1237 33.9082 32.0273 33.8848V32.877H32.1367C32.2148 32.903 32.3125 32.9251 32.4297 32.9434C32.5469 32.9616 32.6393 32.9707 32.707 32.9707C32.9779 32.9707 33.1628 32.89 33.2617 32.7285C33.3607 32.5671 33.4102 32.3014 33.4102 31.9316V28.9004H32.5781V27.9473H34.8164V32.4121ZM34.8164 27.3223H33.3203V26.2559H34.8164V27.3223Z" fill="#022D94"/>
    <path d="M40.6211 30.1426C40.6211 30.8639 40.4102 31.4329 39.9883 31.8496C39.569 32.2637 38.9792 32.4707 38.2188 32.4707C37.4583 32.4707 36.8672 32.2637 36.4453 31.8496C36.026 31.4329 35.8164 30.8639 35.8164 30.1426C35.8164 29.416 36.0273 28.8457 36.4492 28.4316C36.8737 28.0176 37.4635 27.8105 38.2188 27.8105C38.9844 27.8105 39.5755 28.0189 39.9922 28.4355C40.4115 28.8522 40.6211 29.4212 40.6211 30.1426ZM38.8906 31.209C38.9818 31.097 39.0495 30.9629 39.0938 30.8066C39.1406 30.6478 39.1641 30.429 39.1641 30.1504C39.1641 29.8926 39.1406 29.6764 39.0938 29.502C39.0469 29.3275 38.9818 29.1882 38.8984 29.084C38.8151 28.9772 38.7148 28.9017 38.5977 28.8574C38.4805 28.8131 38.3542 28.791 38.2188 28.791C38.0833 28.791 37.9622 28.8092 37.8555 28.8457C37.7513 28.8822 37.651 28.9551 37.5547 29.0645C37.4687 29.166 37.3997 29.3053 37.3477 29.4824C37.2982 29.6595 37.2734 29.8822 37.2734 30.1504C37.2734 30.39 37.2956 30.5983 37.3398 30.7754C37.3841 30.9499 37.4492 31.0905 37.5352 31.1973C37.6185 31.2988 37.7174 31.373 37.832 31.4199C37.9492 31.4668 38.082 31.4902 38.2305 31.4902C38.3581 31.4902 38.4792 31.4694 38.5938 31.4277C38.7109 31.3835 38.8099 31.3105 38.8906 31.209Z" fill="#022D94"/>
    <path d="M44.8164 29.2871H44.6914C44.6315 29.2663 44.5352 29.2507 44.4023 29.2402C44.2695 29.2298 44.1589 29.2246 44.0703 29.2246C43.8698 29.2246 43.6927 29.2376 43.5391 29.2637C43.3854 29.2897 43.2201 29.334 43.043 29.3965V32.334H41.6367V27.9473H43.043V28.5918C43.3529 28.3262 43.6224 28.1504 43.8516 28.0645C44.0807 27.9759 44.2917 27.9316 44.4844 27.9316C44.5339 27.9316 44.5898 27.9329 44.6523 27.9355C44.7148 27.9381 44.7695 27.942 44.8164 27.9473V29.2871Z" fill="#022D94"/>
    <path d="M11.7109 23.3271C11.4505 23.4287 11.1055 23.5303 10.6758 23.6318C10.2461 23.7308 9.81771 23.7803 9.39062 23.7803C8.40104 23.7803 7.6263 23.512 7.06641 22.9756C6.50651 22.4365 6.22656 21.693 6.22656 20.7451C6.22656 19.8415 6.50911 19.1136 7.07422 18.5615C7.63932 18.0068 8.42708 17.7295 9.4375 17.7295C9.82031 17.7295 10.1849 17.7646 10.5312 17.835C10.8776 17.9027 11.263 18.0394 11.6875 18.2451V19.6084H11.5195C11.4466 19.5537 11.3398 19.4769 11.1992 19.3779C11.0586 19.2764 10.9232 19.1904 10.793 19.1201C10.6419 19.0368 10.4648 18.9652 10.2617 18.9053C10.0612 18.8454 9.84766 18.8154 9.62109 18.8154C9.35547 18.8154 9.11458 18.8545 8.89844 18.9326C8.68229 19.0107 8.48828 19.1305 8.31641 19.292C8.15234 19.4482 8.02214 19.6475 7.92578 19.8897C7.83203 20.1292 7.78516 20.4066 7.78516 20.7217C7.78516 21.3649 7.95573 21.8571 8.29688 22.1982C8.63802 22.5394 9.14193 22.71 9.80859 22.71C9.86589 22.71 9.92839 22.7087 9.99609 22.7061C10.0664 22.7035 10.1302 22.6996 10.1875 22.6943V21.5537H9.02734V20.4561H11.7109V23.3271Z" fill="#022D94"/>
    <path d="M15.6289 22.5147V21.6006C15.4388 21.6162 15.2331 21.6384 15.0117 21.667C14.7904 21.693 14.6224 21.7243 14.5078 21.7608C14.3672 21.805 14.2591 21.8701 14.1836 21.9561C14.1107 22.0394 14.0742 22.1501 14.0742 22.2881C14.0742 22.3792 14.082 22.4535 14.0977 22.5108C14.1133 22.568 14.1523 22.6227 14.2148 22.6748C14.2747 22.7269 14.3464 22.766 14.4297 22.792C14.513 22.8154 14.6432 22.8272 14.8203 22.8272C14.9609 22.8272 15.1029 22.7985 15.2461 22.7412C15.3919 22.6839 15.5195 22.6084 15.6289 22.5147ZM15.6289 23.1943C15.5534 23.2516 15.4596 23.3206 15.3477 23.4014C15.2357 23.4821 15.1302 23.5459 15.0312 23.5928C14.8932 23.6553 14.75 23.7009 14.6016 23.7295C14.4531 23.7607 14.2904 23.7764 14.1133 23.7764C13.6966 23.7764 13.3477 23.6475 13.0664 23.3896C12.7852 23.1318 12.6445 22.8024 12.6445 22.4014C12.6445 22.0811 12.7161 21.8193 12.8594 21.6162C13.0026 21.4131 13.2057 21.2529 13.4688 21.1357C13.7292 21.0186 14.0521 20.9352 14.4375 20.8857C14.8229 20.8363 15.2226 20.7998 15.6367 20.7764V20.7529C15.6367 20.5107 15.5378 20.3441 15.3398 20.2529C15.1419 20.1592 14.8503 20.1123 14.4648 20.1123C14.2331 20.1123 13.9857 20.154 13.7227 20.2373C13.4596 20.318 13.2708 20.3805 13.1562 20.4248H13.0273V19.3662C13.1758 19.3271 13.4167 19.2816 13.75 19.2295C14.0859 19.1748 14.4219 19.1475 14.7578 19.1475C15.5573 19.1475 16.1341 19.2712 16.4883 19.5186C16.8451 19.7633 17.0234 20.1488 17.0234 20.6748V23.6592H15.6289V23.1943Z" fill="#022D94"/>
    <path d="M21.4961 20.6123H21.3711C21.3112 20.5915 21.2148 20.5759 21.082 20.5654C20.9492 20.555 20.8385 20.5498 20.75 20.5498C20.5495 20.5498 20.3724 20.5628 20.2188 20.5889C20.0651 20.6149 19.8997 20.6592 19.7227 20.7217V23.6592H18.3164V19.2725H19.7227V19.917C20.0326 19.6514 20.3021 19.4756 20.5312 19.3896C20.7604 19.3011 20.9713 19.2568 21.1641 19.2568C21.2135 19.2568 21.2695 19.2581 21.332 19.2607C21.3945 19.2633 21.4492 19.2672 21.4961 19.2725V20.6123Z" fill="#022D94"/>
    <path d="M24.957 22.5147V21.6006C24.7669 21.6162 24.5612 21.6384 24.3398 21.667C24.1185 21.693 23.9505 21.7243 23.8359 21.7608C23.6953 21.805 23.5872 21.8701 23.5117 21.9561C23.4388 22.0394 23.4023 22.1501 23.4023 22.2881C23.4023 22.3792 23.4102 22.4535 23.4258 22.5108C23.4414 22.568 23.4805 22.6227 23.543 22.6748C23.6029 22.7269 23.6745 22.766 23.7578 22.792C23.8411 22.8154 23.9714 22.8272 24.1484 22.8272C24.2891 22.8272 24.431 22.7985 24.5742 22.7412C24.7201 22.6839 24.8477 22.6084 24.957 22.5147ZM24.957 23.1943C24.8815 23.2516 24.7878 23.3206 24.6758 23.4014C24.5638 23.4821 24.4583 23.5459 24.3594 23.5928C24.2214 23.6553 24.0781 23.7009 23.9297 23.7295C23.7812 23.7607 23.6185 23.7764 23.4414 23.7764C23.0247 23.7764 22.6758 23.6475 22.3945 23.3896C22.1133 23.1318 21.9727 22.8024 21.9727 22.4014C21.9727 22.0811 22.0443 21.8193 22.1875 21.6162C22.3307 21.4131 22.5339 21.2529 22.7969 21.1357C23.0573 21.0186 23.3802 20.9352 23.7656 20.8857C24.151 20.8363 24.5508 20.7998 24.9648 20.7764V20.7529C24.9648 20.5107 24.8659 20.3441 24.668 20.2529C24.47 20.1592 24.1784 20.1123 23.793 20.1123C23.5612 20.1123 23.3138 20.154 23.0508 20.2373C22.7878 20.318 22.599 20.3805 22.4844 20.4248H22.3555V19.3662C22.5039 19.3271 22.7448 19.2816 23.0781 19.2295C23.4141 19.1748 23.75 19.1475 24.0859 19.1475C24.8854 19.1475 25.4622 19.2712 25.8164 19.5186C26.1732 19.7633 26.3516 20.1488 26.3516 20.6748V23.6592H24.957V23.1943Z" fill="#022D94"/>
    <path d="M32.0508 23.6592H30.6367V21.4834C30.6367 21.3063 30.6276 21.1305 30.6094 20.9561C30.5911 20.779 30.5599 20.6488 30.5156 20.5654C30.4635 20.4691 30.3867 20.3988 30.2852 20.3545C30.1862 20.3102 30.0469 20.2881 29.8672 20.2881C29.7396 20.2881 29.6094 20.3089 29.4766 20.3506C29.3464 20.3923 29.2044 20.4587 29.0508 20.5498V23.6592H27.6445V19.2725H29.0508V19.7568C29.3008 19.5615 29.5404 19.4118 29.7695 19.3076C30.0013 19.2035 30.2578 19.1514 30.5391 19.1514C31.013 19.1514 31.3828 19.2894 31.6484 19.5654C31.9167 19.8415 32.0508 20.2542 32.0508 20.8037V23.6592Z" fill="#022D94"/>
    <path d="M36.1523 23.6201C36.0013 23.6592 35.8412 23.6891 35.6719 23.71C35.5026 23.7334 35.2956 23.7451 35.0508 23.7451C34.5039 23.7451 34.0964 23.6344 33.8281 23.4131C33.5625 23.1917 33.4297 22.8128 33.4297 22.2764V20.2256H32.8516V19.2725H33.4297V18.0186H34.8359V19.2725H36.1523V20.2256H34.8359V21.7803C34.8359 21.9339 34.8372 22.068 34.8398 22.1826C34.8424 22.2972 34.8633 22.4001 34.9023 22.4912C34.9388 22.5824 35.0026 22.6553 35.0938 22.71C35.1875 22.762 35.3229 22.7881 35.5 22.7881C35.5729 22.7881 35.668 22.7725 35.7852 22.7412C35.9049 22.71 35.9883 22.6813 36.0352 22.6553H36.1523V23.6201Z" fill="#022D94"/>
    <path d="M38.3945 23.6592H36.9883V19.2725H38.3945V23.6592ZM39.0664 17.1123V17.1904L37.6914 18.6475H36.7305L37.6953 17.1123H39.0664Z" fill="#022D94"/>
    <path d="M42.3789 22.5147V21.6006C42.1888 21.6162 41.9831 21.6384 41.7617 21.667C41.5404 21.693 41.3724 21.7243 41.2578 21.7608C41.1172 21.805 41.0091 21.8701 40.9336 21.9561C40.8607 22.0394 40.8242 22.1501 40.8242 22.2881C40.8242 22.3792 40.832 22.4535 40.8477 22.5108C40.8633 22.568 40.9023 22.6227 40.9648 22.6748C41.0247 22.7269 41.0964 22.766 41.1797 22.792C41.263 22.8154 41.3932 22.8272 41.5703 22.8272C41.7109 22.8272 41.8529 22.7985 41.9961 22.7412C42.1419 22.6839 42.2695 22.6084 42.3789 22.5147ZM42.3789 23.1943C42.3034 23.2516 42.2096 23.3206 42.0977 23.4014C41.9857 23.4821 41.8802 23.5459 41.7812 23.5928C41.6432 23.6553 41.5 23.7009 41.3516 23.7295C41.2031 23.7607 41.0404 23.7764 40.8633 23.7764C40.4466 23.7764 40.0977 23.6475 39.8164 23.3896C39.5352 23.1318 39.3945 22.8024 39.3945 22.4014C39.3945 22.0811 39.4661 21.8193 39.6094 21.6162C39.7526 21.4131 39.9557 21.2529 40.2188 21.1357C40.4792 21.0186 40.8021 20.9352 41.1875 20.8857C41.5729 20.8363 41.9726 20.7998 42.3867 20.7764V20.7529C42.3867 20.5107 42.2878 20.3441 42.0898 20.2529C41.8919 20.1592 41.6003 20.1123 41.2148 20.1123C40.9831 20.1123 40.7357 20.154 40.4727 20.2373C40.2096 20.318 40.0208 20.3805 39.9062 20.4248H39.7773V19.3662C39.9258 19.3271 40.1667 19.2816 40.5 19.2295C40.8359 19.1748 41.1719 19.1475 41.5078 19.1475C42.3073 19.1475 42.8841 19.2712 43.2383 19.5186C43.5951 19.7633 43.7734 20.1488 43.7734 20.6748V23.6592H42.3789V23.1943Z" fill="#022D94"/>
</svg>
