<?xml version="1.0" encoding="UTF-8"?>
<svg id="Ebene_1" data-name="Ebene 1" xmlns="http://www.w3.org/2000/svg" viewBox="0 0 300 300">
  <path d="M276.611,179.067v-26.282c0-5.998-3.492-11.552-8.896-14.15l-14.296-6.875c-6.206-22.132-25.675-37.535-48.732-38.439l-29.625-1.161c-1.65-.081-3.317.541-4.528,1.712-1.201,1.153-1.89,2.771-1.89,4.437v79.18h-2.001l-16.649-45.587-.099-.226c-.113-.269-.245-.527-.377-.74l-.168-.296c-.198-.299-.424-.582-.705-.874l-.04-.054L73.804,57.924c-5.162-4.809-12.388-6.046-18.858-3.228-6.468,2.817-10.487,8.949-10.488,16.003v48.78c0,3.394,2.761,6.155,6.155,6.155,3.207,0,5.816,2.608,5.816,5.814s-2.609,5.816-5.816,5.816-5.816-2.609-5.816-5.816c0-3.394-2.761-6.155-6.154-6.155s-6.155,2.761-6.155,6.155c0,9.995,8.131,18.126,18.126,18.126s18.125-8.131,18.125-18.126c0-7.675-4.851-14.478-11.971-17.049v-24.622l49.303,46.058-13.945,41.655H30.388c-8.893,0-16.127,7.234-16.127,16.126v23.625c0,8.892,7.234,16.126,16.127,16.126h9.652c2.953,16.844,17.674,29.335,34.945,29.335s31.991-12.491,34.943-29.335h80.229c2.952,16.844,17.672,29.335,34.943,29.335s31.991-12.491,34.943-29.335h9.653c8.892,0,16.126-7.234,16.126-16.126v-23.625c0-6.214-3.649-11.895-9.213-14.549ZM65.347,66.868l63.571,61.014h-13.328l-57.275-53.503c-.984-.963-1.549-2.303-1.549-3.68,0-2.142,1.127-3.861,3.099-4.719,1.932-.847,3.986-.505,5.482.889ZM105.105,177.49l12.487-37.299h22.322l13.623,37.299h-48.433ZM205.626,132.552c-2.614,0-4.74-2.126-4.74-4.739v-22.321l3.319.13c16.689.654,31.062,11.357,36.551,26.93h-35.13ZM205.626,142.742h41.559c.193,0,.388-.013.587-.039l14.612,7.027c1.166.561,1.919,1.759,1.919,3.055v23.018h-83.35v-71.093l9.743.382v22.721c0,8.232,6.697,14.929,14.93,14.929ZM225.101,204.034c12.78,0,23.178,10.398,23.178,23.178s-10.397,23.18-23.178,23.18-23.179-10.398-23.179-23.18,10.397-23.178,23.179-23.178ZM251.605,203.647c-.15-.168-.3-.337-.458-.509-.207-.222-.416-.44-.621-.65-.172-.178-.345-.356-.517-.524-.211-.209-.428-.413-.675-.645l-.126-.119c-.132-.124-.264-.248-.394-.364-.225-.203-.456-.401-.734-.638l-.155-.133c-.119-.103-.238-.206-.357-.302-.274-.226-.557-.443-.833-.656l-.139-.109c-.107-.084-.214-.168-.322-.249-.437-.325-.879-.641-1.332-.948l-.241-.155c-.376-.251-.756-.498-1.152-.74l-.583-.34c-.278-.164-.556-.327-.843-.484-.137-.075-.276-.147-.415-.219l-.188-.098c-.287-.15-.574-.301-.864-.443-.17-.083-.341-.162-.513-.241l-.142-.065c-.285-.133-.569-.264-.86-.39-.223-.096-.446-.188-.683-.284-.286-.117-.574-.231-.867-.342-.233-.088-.468-.172-.706-.256-.291-.103-.582-.202-.881-.299-.239-.077-.479-.152-.72-.224-.297-.089-.598-.174-.903-.257-.242-.065-.483-.13-.73-.191-.307-.076-.617-.146-1.005-.232-.217-.047-.434-.095-.653-.138-.321-.064-.645-.119-.973-.175l-.18-.03c-.178-.031-.356-.061-.533-.087-.344-.051-.688-.091-1.032-.132l-.197-.024c-.161-.02-.322-.04-.483-.056-.383-.038-.769-.063-1.159-.089l-.201-.015c-.124-.01-.248-.019-.377-.025-1.166-.057-2.348-.057-3.514,0-.126.006-.25.016-.374.025l-.205.015c-.386.025-.771.051-1.155.089-.157.015-.314.035-.472.054l-.262.031c-.328.039-.656.078-.979.126-.19.028-.379.06-.567.092l-.148.025c-.324.055-.649.11-.974.174-.219.043-.436.091-.727.155-.313.069-.625.14-.933.216-.244.061-.488.125-.725.19-.305.083-.607.168-.906.258-.24.072-.479.146-.717.224-.299.097-.595.197-.891.302-.233.082-.466.166-.699.253-.294.111-.586.228-.962.381-.196.08-.393.16-.587.244-.292.126-.581.26-.869.394l-.126.059c-.173.08-.346.16-.515.243-.298.146-.591.299-.882.452l-.162.084c-.145.074-.288.149-.425.225-.32.175-.635.36-.94.541l-.155.089c-.112.064-.225.129-.337.198-.419.256-.831.521-1.257.806l-.13.084c-.455.308-.901.626-1.338.952-.094.07-.186.142-.277.214l-.128.1c-.3.23-.598.461-.892.702-.109.089-.216.181-.322.272l-.209.179c-.241.205-.481.411-.719.625l-.494.458c-.233.22-.468.44-.701.67-.143.141-.283.285-.485.493-.223.228-.442.456-.656.688-.158.171-.314.346-.476.527-.207.234-.413.47-.615.711-.151.181-.301.362-.447.543-.199.246-.395.495-.591.75-.141.186-.282.372-.416.554-.19.258-.376.521-.557.782-.132.189-.263.377-.396.576-.181.272-.354.548-.566.884-.106.169-.213.338-.313.507-.178.294-.347.594-.518.896l-.096.169c-.07.124-.142.249-.207.371-.182.336-.354.678-.521,1.016l-.233.462c-.221.46-.431.927-.629,1.392l-.057.126c-.219.517-.425,1.039-.617,1.562l-.131.382c-.144.4-.282.803-.41,1.208-.041.127-.077.256-.114.384l-.065.225c-.1.337-.198.674-.288,1.014-.04.152-.076.305-.113.458l-.046.195c-.081.333-.16.665-.23.996-.04.184-.075.369-.11.554l-.028.15c-.032.171-.064.342-.096.513h-80.225c-.028-.159-.058-.317-.088-.472-.047-.254-.094-.507-.147-.756-.061-.285-.127-.566-.194-.849l-.075-.312c-.04-.164-.079-.328-.122-.489-.083-.317-.176-.632-.274-.967l-.05-.175c-.047-.161-.093-.323-.143-.478-.115-.364-.241-.725-.365-1.078l-.175-.51c-.192-.521-.396-1.038-.609-1.54l-.139-.312c-.177-.405-.356-.809-.55-1.214l-.29-.574c-.15-.303-.302-.604-.461-.897-.08-.148-.163-.295-.246-.44l-.113-.2c-.151-.267-.303-.534-.457-.792-.098-.162-.197-.322-.299-.481l-.084-.135c-.165-.261-.33-.522-.506-.787-.135-.202-.273-.401-.411-.599-.174-.251-.349-.5-.53-.747-.147-.2-.297-.397-.445-.59-.184-.24-.37-.478-.556-.708-.156-.194-.315-.386-.481-.584-.193-.229-.39-.455-.592-.683-.163-.184-.326-.366-.494-.548-.205-.222-.415-.44-.631-.663l-.113-.117c-.133-.136-.266-.271-.398-.402-.22-.217-.443-.427-.672-.641l-.12-.112c-.133-.125-.266-.25-.399-.37-.225-.203-.456-.401-.734-.638l-.155-.133c-.119-.103-.239-.206-.357-.302-.274-.226-.557-.443-.838-.66l-.151-.119c-.102-.08-.202-.159-.305-.235-.437-.325-.879-.641-1.332-.948l-.24-.155c-.377-.251-.757-.498-1.153-.74l-.583-.34c-.278-.164-.556-.327-.843-.484-.137-.075-.276-.147-.415-.219l-.188-.098c-.286-.15-.573-.301-.863-.443-.17-.083-.341-.162-.513-.241l-.142-.065c-.284-.133-.569-.264-.86-.39-.223-.096-.447-.188-.683-.284-.287-.117-.575-.232-.865-.341-.233-.088-.469-.172-.708-.257-.291-.103-.582-.202-.884-.3-.238-.077-.477-.151-.719-.224-.298-.089-.597-.174-.9-.256-.241-.066-.483-.13-.731-.192-.307-.076-.617-.146-.988-.228-.222-.049-.444-.097-.67-.142-.321-.063-.646-.119-.974-.175l-.188-.032c-.176-.03-.352-.06-.524-.085-.343-.051-.688-.091-1.032-.132l-.197-.024c-.162-.02-.323-.04-.483-.056-.383-.038-.769-.063-1.159-.089l-.201-.015c-.124-.01-.248-.019-.377-.025-1.162-.057-2.343-.058-3.515,0-.126.006-.25.016-.374.025l-.205.015c-.387.025-.772.051-1.153.088-.162.016-.323.036-.485.056l-.195.024c-.346.041-.691.081-1.03.131-.186.027-.369.059-.554.09l-.164.028c-.325.055-.65.11-.972.174-.246.049-.49.103-.731.156-.311.068-.621.138-.929.214-.245.062-.489.126-.731.192-.301.082-.602.167-.901.256-.241.073-.482.148-.723.226-.294.095-.585.194-.875.297-.24.084-.478.169-.707.257-.292.109-.58.225-.947.375-.204.083-.408.166-.605.252-.286.123-.567.253-.852.385l-.146.067c-.174.08-.347.16-.517.244-.261.127-.517.261-.851.435l-.18.094c-.147.077-.295.153-.441.233-.275.151-.547.31-.887.51l-.186.107c-.12.069-.24.139-.359.211-.36.221-.715.451-1.067.684l-.384.252c-.427.29-.846.588-1.261.897-.115.086-.229.176-.342.265l-.25.195c-.233.18-.467.361-.698.55-.132.108-.262.22-.391.331l-.256.22c-.2.17-.399.341-.599.52-.144.129-.284.262-.425.394l-.123.116c-.217.203-.433.405-.645.614-.155.154-.309.311-.461.467l-.081.083c-.202.209-.404.418-.597.627-.178.191-.35.384-.52.576-.192.217-.383.436-.57.658-.168.199-.333.399-.496.602-.181.224-.358.45-.534.678-.159.208-.318.417-.468.622-.174.236-.343.476-.506.711-.147.21-.295.422-.441.644-.163.245-.321.495-.478.743l-.061.096c-.115.183-.23.365-.338.545-.147.244-.287.492-.461.801l-.094.165c-.091.158-.181.315-.263.469-.134.247-.26.497-.386.749l-.159.312c-.069.136-.14.272-.212.422-.175.368-.341.742-.503,1.111l-.177.395c-.215.508-.418,1.021-.609,1.542-.045.121-.086.244-.127.367l-.088.256c-.112.32-.225.641-.327.967-.048.151-.092.305-.136.457l-.082.284c-.087.293-.172.585-.249.879-.043.161-.082.323-.12.485l-.052.215c-.076.317-.152.635-.222.958-.039.186-.074.372-.11.56l-.032.167c-.03.164-.062.328-.091.492h-9.65c-2.104,0-3.817-1.712-3.817-3.816v-23.625c0-2.104,1.713-3.816,3.817-3.816h239.311c2.104,0,3.816,1.712,3.816,3.816v23.625c0,2.104-1.712,3.816-3.816,3.816h-9.65c-.029-.159-.059-.317-.089-.472-.047-.254-.094-.507-.147-.756-.067-.318-.143-.634-.216-.934l-.025-.105c-.047-.202-.095-.404-.15-.617-.084-.314-.176-.626-.274-.961l-.05-.175c-.047-.161-.093-.323-.141-.473-.114-.366-.241-.729-.369-1.093l-.059-.172c-.037-.109-.074-.219-.114-.328-.192-.521-.396-1.038-.609-1.54l-.139-.312c-.177-.405-.356-.809-.55-1.214l-.29-.574c-.151-.303-.302-.604-.461-.897-.08-.148-.163-.295-.246-.44l-.113-.2c-.151-.267-.303-.534-.457-.792-.098-.162-.197-.322-.299-.481l-.081-.13c-.165-.263-.332-.526-.505-.786-.12-.181-.244-.358-.415-.604-.174-.251-.349-.5-.53-.747-.147-.2-.296-.397-.447-.595-.183-.237-.367-.472-.558-.708-.155-.192-.312-.383-.474-.575-.194-.23-.393-.457-.634-.729ZM74.985,204.034c12.78,0,23.178,10.398,23.178,23.178s-10.397,23.18-23.178,23.18-23.18-10.398-23.18-23.18,10.398-23.178,23.18-23.178Z" fill="#333"/>
  <path d="M186.905,156.216c0,3.394,2.761,6.155,6.154,6.155h13.728c3.394,0,6.154-2.761,6.154-6.155s-2.761-6.154-6.154-6.154h-13.728c-3.394,0-6.154,2.761-6.154,6.154Z" fill="#333"/>
</svg>