<?xml version="1.0" encoding="UTF-8"?>
<svg id="Ebene_1" data-name="Ebene 1" xmlns="http://www.w3.org/2000/svg" viewBox="0 0 300 300">
  <g>
    <path d="M281.96,140.56c-.28,2.84-2.67,4.96-5.47,4.96-.18,0-.36,0-.54-.02-11.86-1.17-34.37-3.99-41.26-5.59-6.51-1.5-13.14-1.72-19.7-.65l-3.95.64h-.02l-.21.04c-1.98.3-12.1,1.39-20.72-6.65-.04-.04-.08-.08-.12-.12-2.86-2.83-3.29-7.89-1.63-19.35l.04-.28c.01-.03.01-.07.02-.1.39-2.38.61-4.7.67-6.92,0-.07,0-.14.01-.21.09-1.49.37-6.03,3.64-8.6,1.7-1.33,3.85-1.86,6.08-1.51,3.41.39,8.54-.69,15.05-12.63-3.85-.26-8.88.22-12.73,3.51-.66.59-3.14,2.62-6.95,3.62-2.93.77-5.94-.99-6.71-3.93-.15-.58-.21-1.17-.16-1.74-4.81,1.4-9.63,2.1-14.44,2.1-2.59,0-5.16-.2-7.73-.61.02.32.03.63.03.94,0,1.7-.8,3.31-2.14,4.34-1.35,1.04-3.1,1.4-4.74.97-3.82-1-6.31-3.03-6.99-3.63-3.81-3.25-8.76-3.76-12.6-3.52,3.32,5.47,8.67,11.42,15.95,10.58,2.24-.35,4.4.18,6.09,1.51,3.08,2.42,3.51,6.58,3.62,8.29.02.09.03.17.03.27.02.13.03.25.03.38.2,7.32,2.1,14.72,4.96,19.41.05.06.09.12.13.18.59.85.93,1.84.98,2.87.09,1.71.47,4.04.61,4.79.06.33.09.67.09,1,0,26.37,6.5,42.39,18.3,45.12,1.67.39,3.06,1.52,3.77,3.08,8.3,18.16,13.82,21.59,14.57,21.98,1.85.45,3.36,1.83,3.96,3.67l3.42,10.64c1.86,5.8,2.24,12.04,1.1,18.03l-.05.31c-.54,2.82-.6,5.69-.18,8.53l.26,1.78c.6,4.06.21,7.41-.24,11.29l-.19,1.65-1.95,19.12c-.28,2.83-2.67,4.94-5.46,4.94-.19,0-.38-.01-.57-.03-3.02-.31-5.22-3.01-4.91-6.03l2.16-20.92c.4-3.48.67-5.78.28-8.41l-.26-1.78c-.6-4.06-.52-8.16.25-12.2l.06-.31c.8-4.19.53-8.55-.78-12.61l-2.66-8.3c-4.06-2.43-10.23-8.69-17.74-24.48-11.54-3.93-24.03-16.9-24.14-54.58-.14-.82-.41-2.5-.57-4.23-3.61-6.25-5.89-15.02-6.19-23.84v-.03h-.28c-10.75,0-20.12-7.39-26.61-21.1-.98-2.08-.98-4.46.03-6.53,1-2.08,2.87-3.56,5.11-4.08,3.59-.83,11.17-1.99,18.69.6.01-.01.01-.03.02-.04,1.13-2.82,4.33-4.2,7.15-3.07,1.01.4,2.02.77,3.02,1.08-.29-.6-.46-1.27-.48-1.99-.15-4.66-5.11-8.45-10.85-12.84-10.26-7.85-24.31-18.61-16.07-41.98.92-2.61,3.78-3.97,6.38-3.06,2.61.92,3.97,3.78,3.05,6.38-1.74,4.93-2.19,8.97-1.71,12.42.21-1.3.46-2.66.74-4.08.55-2.7,3.18-4.46,5.89-3.91,2.71.55,4.46,3.18,3.92,5.89-1.85,9.15-1.6,13.79-.92,16.14-.02.16-.03.31-.03.46.09.07.17.14.26.21-.08-.2-.16-.42-.23-.67.06-1.05.17-2.13.33-3.2.42-2.73,2.96-4.6,5.7-4.17,2.73.42,4.6,2.97,4.18,5.7-.62,4.02-.11,8.27.26,10.46,4.9,4.22,8.87,9.07,9.09,15.93.05,1.61-.66,3.07-1.82,4.02,3.66.45,7.33.36,11.02-.26-.99-.94-1.59-2.29-1.54-3.76.23-6.86,4.2-11.71,9.1-15.94.36-2.19.87-6.43.25-10.45-.42-2.73,1.45-5.28,4.18-5.7,2.73-.43,5.28,1.44,5.71,4.17.16,1.06.27,2.13.33,3.18-.08.26-.16.49-.23.69.09-.08.16-.14.25-.21,0-.16-.01-.32-.02-.48.67-2.35.92-7-.92-16.12-.55-2.71,1.2-5.34,3.91-5.89,2.72-.55,5.34,1.21,5.89,3.91.29,1.41.53,2.76.74,4.05.48-3.44.02-7.48-1.71-12.39-.92-2.6.45-5.46,3.05-6.38,2.61-.91,5.46.45,6.38,3.06,8.25,23.37-5.81,34.13-16.07,41.98-1.38,1.06-2.72,2.09-3.96,3.1-.06.05-.13.11-.2.16-3.78,3.12-6.57,6.1-6.68,9.58-.01.42-.08.83-.19,1.22.43-.17.87-.33,1.3-.51,2.81-1.14,6.02.22,7.16,3.04.14.35.24.71.31,1.07,9.13-6.08,19.95-4.5,24.45-3.46,2.24.51,4.11,2,5.11,4.08,1,2.07,1.02,4.45.03,6.53-3.4,7.19-6.72,12.28-10.45,16.03-4.65,4.68-9.81,7.06-15.39,7.1-.09,2.56-.35,5.21-.79,7.9l-.03.24c-.96,6.6-.92,9.44-.81,10.57,4.8,3.87,10.06,3.2,10.67,3.1,0,0,.09-.01.19-.03l3.95-.64c7.97-1.3,16.03-1.03,23.94.8,6.15,1.42,28.42,4.22,39.86,5.35,3.02.3,5.23,2.99,4.93,6.01Z" fill="#333"/>
    <path d="M226.343,285.5c-.192,0-.386-.01-.581-.03-3.021-.317-5.213-3.023-4.896-6.044l2.483-23.645c.083-2.338.471-4.654,1.155-6.894l6.094-35.758c.27-1.58,1.214-2.963,2.587-3.79,1.373-.826,3.037-1.012,4.561-.509,10.563,3.49,26.755,5.271,34.479,5.574,3.035.119,5.399,2.676,5.28,5.711s-2.665,5.394-5.712,5.28c-7.239-.284-20.409-1.667-31.381-4.378l-5.127,30.083c-.044.259-.106.514-.188.764-.464,1.438-.719,2.932-.76,4.438-.004.143-.014.284-.028.426l-2.505,23.845c-.297,2.826-2.684,4.926-5.463,4.926Z" fill="#333"/>
    <g>
      <path d="M197.31,47.58c-.09.07-.16.13-.25.21.07-.2.15-.43.23-.69.01.16.02.32.02.48Z" fill="#333"/>
      <path d="M197.31,47.58c-.09.07-.16.13-.25.21.07-.2.15-.43.23-.69.01.16.02.32.02.48Z" fill="#333"/>
    </g>
    <g>
      <path d="M150.73,47.79c-.09-.07-.17-.14-.26-.21,0-.15.01-.3.03-.46.07.25.15.47.23.67Z" fill="#333"/>
      <path d="M150.73,47.79c-.09-.07-.17-.14-.26-.21,0-.15.01-.3.03-.46.07.25.15.47.23.67Z" fill="#333"/>
    </g>
  </g>
  <path d="M147.926,242.999c-1.436-2.429-4.578-3.236-7.005-1.804l-17.67,10.433-1.222-26.198c-.069-1.484-.779-2.863-1.947-3.782-1.168-.92-2.675-1.282-4.139-.998l-39.312,7.652,22.577-32.757c.836-1.214,1.107-2.731.746-4.162-.362-1.429-1.324-2.632-2.641-3.302l-61.339-31.168,68.678-9.08c1.545-.206,2.894-1.086,3.701-2.416.806-1.331.966-2.933.438-4.396l-12.315-34.019,20.69,7.214c2.665.928,5.585-.485,6.513-3.146.451-1.29.372-2.678-.224-3.909-.594-1.229-1.632-2.154-2.921-2.604l-30.844-10.756c-1.854-.647-3.943-.163-5.322,1.232-1.382,1.396-1.842,3.491-1.171,5.338l13.811,38.153-78.72,10.408c-2.235.297-3.992,1.989-4.372,4.211-.37,2.223.725,4.401,2.725,5.42l70.826,35.99-26.37,38.261c-1.186,1.721-1.212,3.961-.067,5.708,1.145,1.746,3.209,2.612,5.257,2.216l45.801-8.917,1.342,28.77c.082,1.782,1.108,3.415,2.677,4.261.755.408,1.593.611,2.431.611.903,0,1.806-.236,2.602-.707l24.984-14.753c1.547-.913,2.511-2.598,2.516-4.398,0-.916-.245-1.817-.712-2.605Z" fill="#333"/>
</svg>