<svg width="60" height="60" viewBox="0 0 60 60" fill="none" xmlns="http://www.w3.org/2000/svg">
<rect x="8" width="43" height="60" rx="7" fill="#002646"/>
<rect y="29" width="60" height="13" rx="3" fill="#F79A31"/>
<path d="M8.59229 38H5.19482V37.1113H6.26807V34.4214H5.19482V33.5908C5.35889 33.5908 5.51611 33.5817 5.6665 33.5635C5.81689 33.543 5.94222 33.5088 6.04248 33.4609C6.16097 33.404 6.24984 33.3299 6.30908 33.2388C6.36833 33.1476 6.40251 33.0337 6.41162 32.897H7.54297V37.1113H8.59229V38ZM13.856 35.4536C13.856 35.882 13.8172 36.266 13.7397 36.6055C13.6623 36.9427 13.5415 37.2196 13.3774 37.436C13.2088 37.6571 12.9924 37.8245 12.728 37.9385C12.4637 38.0501 12.1379 38.106 11.7505 38.106C11.37 38.106 11.0452 38.049 10.7764 37.9351C10.5075 37.8211 10.2899 37.6525 10.1235 37.4292C9.95492 37.2059 9.83301 36.929 9.75781 36.5986C9.68262 36.266 9.64502 35.8854 9.64502 35.457C9.64502 35.015 9.68376 34.631 9.76123 34.3052C9.8387 33.9793 9.96175 33.7036 10.1304 33.478C10.299 33.2547 10.5177 33.0872 10.7866 32.9756C11.0555 32.8639 11.3768 32.8081 11.7505 32.8081C12.1401 32.8081 12.4671 32.8662 12.7314 32.9824C12.9958 33.0964 13.2122 33.2673 13.3809 33.4951C13.5472 33.7184 13.668 33.9941 13.7432 34.3223C13.8184 34.6481 13.856 35.0252 13.856 35.4536ZM12.5332 35.4536C12.5332 34.8384 12.4728 34.4009 12.3521 34.1411C12.2313 33.8791 12.0308 33.748 11.7505 33.748C11.4702 33.748 11.2697 33.8791 11.1489 34.1411C11.0282 34.4009 10.9678 34.8407 10.9678 35.4604C10.9678 36.0643 11.0293 36.4995 11.1523 36.7661C11.2754 37.0327 11.4748 37.166 11.7505 37.166C12.0262 37.166 12.2256 37.0327 12.3486 36.7661C12.4717 36.4995 12.5332 36.062 12.5332 35.4536ZM18.8325 35.4536C18.8325 35.882 18.7938 36.266 18.7163 36.6055C18.6388 36.9427 18.5181 37.2196 18.354 37.436C18.1854 37.6571 17.9689 37.8245 17.7046 37.9385C17.4403 38.0501 17.1144 38.106 16.7271 38.106C16.3465 38.106 16.0218 38.049 15.7529 37.9351C15.484 37.8211 15.2664 37.6525 15.1001 37.4292C14.9315 37.2059 14.8096 36.929 14.7344 36.5986C14.6592 36.266 14.6216 35.8854 14.6216 35.457C14.6216 35.015 14.6603 34.631 14.7378 34.3052C14.8153 33.9793 14.9383 33.7036 15.1069 33.478C15.2756 33.2547 15.4943 33.0872 15.7632 32.9756C16.0321 32.8639 16.3534 32.8081 16.7271 32.8081C17.1167 32.8081 17.4437 32.8662 17.708 32.9824C17.9723 33.0964 18.1888 33.2673 18.3574 33.4951C18.5238 33.7184 18.6445 33.9941 18.7197 34.3223C18.7949 34.6481 18.8325 35.0252 18.8325 35.4536ZM17.5098 35.4536C17.5098 34.8384 17.4494 34.4009 17.3286 34.1411C17.2078 33.8791 17.0073 33.748 16.7271 33.748C16.4468 33.748 16.2463 33.8791 16.1255 34.1411C16.0047 34.4009 15.9443 34.8407 15.9443 35.4604C15.9443 36.0643 16.0059 36.4995 16.1289 36.7661C16.252 37.0327 16.4513 37.166 16.7271 37.166C17.0028 37.166 17.2021 37.0327 17.3252 36.7661C17.4482 36.4995 17.5098 36.062 17.5098 35.4536ZM22.8008 34.459C22.8008 35.0264 22.6698 35.4468 22.4077 35.7202C22.1457 35.9937 21.764 36.1304 21.2627 36.1304C20.7454 36.1304 20.3558 35.9925 20.0938 35.7168C19.834 35.4388 19.7041 35.0241 19.7041 34.4727C19.7041 33.9098 19.8374 33.4928 20.104 33.2217C20.3706 32.9482 20.7568 32.8115 21.2627 32.8115C21.7731 32.8115 22.1571 32.9482 22.4146 33.2217C22.672 33.4928 22.8008 33.9053 22.8008 34.459ZM25.4668 32.9106L22.8008 38H21.8813L24.5474 32.9106H25.4668ZM27.6304 36.4346C27.6304 37.002 27.4993 37.4224 27.2373 37.6958C26.9753 37.9692 26.5936 38.106 26.0923 38.106C25.575 38.106 25.1854 37.9681 24.9233 37.6924C24.6636 37.4144 24.5337 36.9997 24.5337 36.4482C24.5337 35.8854 24.667 35.4684 24.9336 35.1973C25.2002 34.9238 25.5864 34.7871 26.0923 34.7871C26.6027 34.7871 26.9867 34.9238 27.2441 35.1973C27.5016 35.4684 27.6304 35.8809 27.6304 36.4346ZM21.7925 34.4692C21.7925 34.1047 21.7503 33.8586 21.666 33.731C21.5817 33.6034 21.4438 33.5396 21.2524 33.5396C21.061 33.5396 20.9232 33.6034 20.8389 33.731C20.7546 33.8586 20.7124 34.1058 20.7124 34.4727C20.7124 34.8395 20.7546 35.0868 20.8389 35.2144C20.9232 35.342 21.061 35.4058 21.2524 35.4058C21.4438 35.4058 21.5817 35.342 21.666 35.2144C21.7503 35.0868 21.7925 34.8384 21.7925 34.4692ZM26.6221 36.4448C26.6221 36.0802 26.5799 35.8341 26.4956 35.7065C26.4113 35.5789 26.2734 35.5151 26.082 35.5151C25.8906 35.5151 25.7528 35.5789 25.6685 35.7065C25.5841 35.8341 25.542 36.0814 25.542 36.4482C25.542 36.8151 25.5841 37.0623 25.6685 37.1899C25.7528 37.3175 25.8906 37.3813 26.082 37.3813C26.2734 37.3813 26.4113 37.3175 26.4956 37.1899C26.5799 37.0623 26.6221 36.814 26.6221 36.4448ZM34.8115 33.895H32.4702V34.8418H34.6406V35.8262H32.4702V38H31.1646V32.9106H34.8115V33.895ZM38.4688 38H35.4883V37.0977H36.3223V33.813H35.4883V32.9106H38.4688V33.813H37.6348V37.0977H38.4688V38ZM44.1665 38H42.9019L40.7417 34.5068V38H39.5386V32.9106H41.1074L42.9634 35.8262V32.9106H44.1665V38ZM50.1685 38H48.8115L48.4595 36.9712H46.5728L46.2207 38H44.8979L46.7778 32.9106H48.2886L50.1685 38ZM48.1416 36.0381L47.5161 34.2129L46.8906 36.0381H48.1416ZM54.5708 38H50.8999V32.9106H52.2124V37.0156H54.5708V38Z" fill="#002646"/>
<path d="M19.2324 21.5171C19.2324 21.745 19.1925 21.9683 19.1128 22.187C19.033 22.4035 18.9191 22.5858 18.771 22.7339C18.5682 22.9344 18.3415 23.0859 18.0908 23.1885C17.8424 23.291 17.5326 23.3423 17.1611 23.3423H16.3442V25H15.0317V19.9106H17.1919C17.5155 19.9106 17.7878 19.9391 18.0088 19.9961C18.2321 20.0508 18.4292 20.134 18.6001 20.2456C18.8052 20.38 18.9613 20.5521 19.0684 20.7617C19.1777 20.9714 19.2324 21.2231 19.2324 21.5171ZM17.8755 21.5479C17.8755 21.4043 17.8368 21.2812 17.7593 21.1787C17.6818 21.0739 17.5918 21.001 17.4893 20.96C17.3525 20.9053 17.2192 20.8757 17.0894 20.8711C16.9595 20.8643 16.7863 20.8608 16.5698 20.8608H16.3442V22.3853H16.7202C16.9435 22.3853 17.127 22.3716 17.2705 22.3442C17.4163 22.3169 17.5382 22.2622 17.6362 22.1802C17.7205 22.1073 17.7809 22.0207 17.8174 21.9204C17.8561 21.8179 17.8755 21.6937 17.8755 21.5479ZM23.0195 21.4692C23.0195 21.3416 22.9933 21.2323 22.9409 21.1411C22.8885 21.05 22.7985 20.9782 22.6709 20.9258C22.582 20.8893 22.4784 20.8677 22.3599 20.8608C22.2414 20.8517 22.1035 20.8472 21.9463 20.8472H21.4712V22.2178H21.8745C22.0841 22.2178 22.2596 22.2075 22.4009 22.187C22.5422 22.1665 22.6606 22.1198 22.7563 22.0469C22.8475 21.9762 22.9136 21.8988 22.9546 21.8145C22.9979 21.7279 23.0195 21.6128 23.0195 21.4692ZM25.0669 25H23.4639L22.0762 23.1338H21.4712V25H20.1655V19.9106H22.3667C22.6675 19.9106 22.9261 19.9277 23.1426 19.9619C23.359 19.9961 23.5618 20.0701 23.751 20.1841C23.9424 20.298 24.0939 20.4461 24.2056 20.6284C24.3195 20.8084 24.3765 21.0352 24.3765 21.3086C24.3765 21.6846 24.2887 21.991 24.1133 22.228C23.9401 22.465 23.6917 22.6621 23.3682 22.8193L25.0669 25ZM29.3223 25H25.6411V19.9106H29.3223V20.895H26.9468V21.7734H29.1514V22.7578H26.9468V24.0156H29.3223V25ZM32.7266 25.0991C32.3483 25.0991 31.9985 25.0433 31.6772 24.9316C31.3582 24.82 31.0837 24.6536 30.8535 24.4326C30.6234 24.2116 30.4445 23.9359 30.3169 23.6055C30.1916 23.2751 30.1289 22.8934 30.1289 22.4604C30.1289 22.0571 30.1893 21.6914 30.3101 21.3633C30.4308 21.0352 30.6063 20.7537 30.8364 20.519C31.0575 20.2935 31.3309 20.1191 31.6567 19.9961C31.9849 19.873 32.3426 19.8115 32.73 19.8115C32.9442 19.8115 33.1367 19.8241 33.3076 19.8491C33.4808 19.8719 33.6403 19.9027 33.7861 19.9414C33.9388 19.9847 34.0767 20.0337 34.1997 20.0884C34.325 20.1408 34.4344 20.1898 34.5278 20.2354V21.4692H34.3774C34.3136 21.4146 34.2327 21.3496 34.1348 21.2744C34.0391 21.1992 33.9297 21.1252 33.8066 21.0522C33.6813 20.9793 33.5457 20.9178 33.3999 20.8677C33.2541 20.8175 33.098 20.7925 32.9316 20.7925C32.7471 20.7925 32.5716 20.8221 32.4053 20.8813C32.2389 20.9383 32.0851 21.034 31.9438 21.1685C31.8094 21.2983 31.7 21.4704 31.6157 21.6846C31.5337 21.8988 31.4927 22.1585 31.4927 22.4639C31.4927 22.7829 31.5371 23.0495 31.626 23.2637C31.7171 23.4779 31.8311 23.6465 31.9678 23.7695C32.1068 23.8949 32.2617 23.9849 32.4326 24.0396C32.6035 24.092 32.7721 24.1182 32.9385 24.1182C33.098 24.1182 33.2552 24.0942 33.4102 24.0464C33.5674 23.9985 33.7121 23.9336 33.8442 23.8516C33.9559 23.7855 34.0596 23.7148 34.1553 23.6396C34.251 23.5645 34.3296 23.4995 34.3911 23.4448H34.5278V24.6616C34.4002 24.7186 34.2783 24.7721 34.1621 24.8223C34.0459 24.8724 33.924 24.9157 33.7964 24.9521C33.63 25 33.474 25.0365 33.3281 25.0615C33.1823 25.0866 32.9818 25.0991 32.7266 25.0991ZM38.2432 25H35.2627V24.0977H36.0967V20.813H35.2627V19.9106H38.2432V20.813H37.4092V24.0977H38.2432V25ZM44.2622 22.457C44.2622 23.2682 44.0298 23.9131 43.5649 24.3916C43.1001 24.8678 42.4575 25.106 41.6372 25.106C40.8192 25.106 40.1777 24.8678 39.7129 24.3916C39.248 23.9131 39.0156 23.2682 39.0156 22.457C39.0156 21.639 39.248 20.993 39.7129 20.519C40.1777 20.0428 40.8192 19.8047 41.6372 19.8047C42.453 19.8047 43.0944 20.0428 43.5615 20.519C44.0286 20.993 44.2622 21.639 44.2622 22.457ZM42.5225 23.7456C42.6501 23.5907 42.7446 23.4084 42.8062 23.1987C42.8677 22.9868 42.8984 22.7384 42.8984 22.4536C42.8984 22.1483 42.8631 21.8885 42.7925 21.6743C42.7218 21.4601 42.6296 21.2869 42.5156 21.1548C42.3994 21.0181 42.265 20.9189 42.1123 20.8574C41.9619 20.7959 41.8047 20.7651 41.6406 20.7651C41.4743 20.7651 41.3171 20.7948 41.1689 20.854C41.0231 20.9132 40.8887 21.0112 40.7656 21.1479C40.6517 21.2756 40.5583 21.4521 40.4854 21.6777C40.4147 21.901 40.3794 22.1608 40.3794 22.457C40.3794 22.7601 40.4136 23.0187 40.4819 23.2329C40.5526 23.4448 40.6449 23.618 40.7588 23.7524C40.8727 23.8869 41.006 23.986 41.1587 24.0498C41.3114 24.1136 41.472 24.1455 41.6406 24.1455C41.8092 24.1455 41.9699 24.1136 42.1226 24.0498C42.2752 23.9837 42.4085 23.8823 42.5225 23.7456Z" fill="#F79A31"/>
<path d="M15.9824 12.1008H15.981C15.4561 12.1008 14.9121 12.0886 14.5549 11.9357C14.3876 11.8721 14.2456 11.7557 14.1503 11.6042C14.0419 11.408 13.9904 11.1855 14.0015 10.9615C14.0061 10.7198 14.0351 10.479 14.0881 10.2431C14.1016 10.1808 14.4115 8.73309 14.4318 8.65596C14.4992 8.3887 14.6059 8.1329 14.7484 7.8969C14.9644 7.54602 15.3021 7.28691 15.6969 7.16896C16.1672 7.03981 16.6546 6.98413 17.142 7.00389H17.1474C17.4346 6.99931 17.7216 7.02379 18.0039 7.07695C18.2352 7.11419 18.4527 7.21172 18.6344 7.35974C18.7373 7.45252 18.808 7.57578 18.836 7.71154C18.8512 7.78679 18.8584 7.86344 18.8576 7.94021C18.8515 8.12691 18.8279 8.31263 18.7873 8.49496C18.7832 8.51931 18.7778 8.54096 18.7737 8.56396L18.7724 8.57072H17.5167L17.5181 8.56125C17.5181 8.56125 17.5222 8.52336 17.5235 8.50577C17.5235 8.50442 17.5289 8.45436 17.5289 8.38129C17.529 8.32777 17.5145 8.27524 17.4871 8.22926C17.4598 8.18328 17.4204 8.14558 17.3733 8.12016C17.2822 8.07634 17.1834 8.05061 17.0824 8.04438C16.9678 8.03253 16.8526 8.02756 16.7374 8.0295C16.5685 8.02451 16.3996 8.04226 16.2354 8.08227C16.1397 8.10672 16.0497 8.14945 15.9702 8.2081C15.8573 8.29852 15.7716 8.4184 15.7226 8.55448C15.6593 8.72602 15.6105 8.90253 15.5765 9.08217L15.4074 9.894C15.3551 10.1001 15.3234 10.3108 15.3126 10.5232C15.3101 10.6068 15.3244 10.6901 15.3546 10.7681C15.3796 10.8249 15.4164 10.8758 15.4626 10.9174C15.5088 10.9589 15.5633 10.9901 15.6225 11.0089C15.7866 11.0595 15.9583 11.0815 16.1299 11.0739C16.26 11.076 16.3901 11.0706 16.5196 11.0576C16.6839 11.0481 16.84 10.9827 16.962 10.8722C17.0934 10.7279 17.1782 10.5473 17.2055 10.354L17.2231 10.2715H18.4652V10.2796C18.4652 10.2891 18.3949 10.6152 18.3583 10.7464C18.326 10.8678 18.284 10.9863 18.2325 11.1009C18.1174 11.3575 17.9345 11.5778 17.7035 11.7382C17.4707 11.9006 17.2043 12.0083 16.9241 12.0535C16.6549 12.093 16.3829 12.1093 16.1109 12.1022C16.1109 12.1022 15.9973 12.1008 15.9824 12.1008Z" fill="white"/>
<path d="M29.8964 12.1008C29.37 12.1008 28.8261 12.0886 28.4689 11.9357C28.3016 11.8721 28.1596 11.7557 28.0643 11.6042C27.9559 11.408 27.9044 11.1855 27.9155 10.9615C27.9201 10.7198 27.9491 10.479 28.0021 10.2431C28.0156 10.1808 28.3255 8.73309 28.3458 8.65596C28.4127 8.3885 28.5194 8.13262 28.6624 7.8969C28.8784 7.54602 29.2161 7.28691 29.6109 7.16896C30.0812 7.03981 30.5686 6.98413 31.0559 7.00389H31.0613C31.3486 6.99931 31.6355 7.02379 31.9178 7.07695C32.1492 7.11419 32.3667 7.21172 32.5483 7.35974C32.6513 7.45252 32.722 7.57578 32.75 7.71154C32.7652 7.78679 32.7724 7.86344 32.7716 7.94021C32.7654 8.12735 32.7418 8.31351 32.7012 8.49631C32.6972 8.51931 32.6918 8.54231 32.6877 8.56531L32.6864 8.57207H31.4307L31.4321 8.5626C31.4321 8.5626 31.4361 8.52472 31.4375 8.50713C31.4375 8.50713 31.4429 8.45571 31.4429 8.38265C31.443 8.32913 31.4285 8.27659 31.4011 8.23061C31.3737 8.18463 31.3344 8.14693 31.2873 8.12151C31.1961 8.0777 31.0973 8.05196 30.9964 8.04574C30.8818 8.03388 30.7666 8.02891 30.6514 8.03085C30.4824 8.02586 30.3136 8.04361 30.1494 8.08362C30.0308 8.11227 29.9215 8.17066 29.8318 8.25328C29.7421 8.33591 29.6749 8.44003 29.6366 8.55584C29.5733 8.72737 29.5244 8.90388 29.4905 9.08353L29.3186 9.89265C29.2664 10.0987 29.2347 10.3095 29.2239 10.5218C29.2214 10.6054 29.2356 10.6887 29.2658 10.7667C29.2908 10.8236 29.3276 10.8745 29.3738 10.916C29.42 10.9575 29.4746 10.9887 29.5338 11.0076C29.6979 11.0582 29.8695 11.0801 30.0412 11.0725C30.1713 11.0747 30.3014 11.0693 30.4308 11.0563C30.5951 11.0467 30.7512 10.9813 30.8733 10.8709C31.0047 10.7265 31.0895 10.546 31.1168 10.3527L31.1344 10.2701H32.3765V10.2783C32.3765 10.2877 32.3062 10.6138 32.2696 10.7451C32.2373 10.8664 32.1952 10.985 32.1438 11.0996C32.029 11.3564 31.846 11.5768 31.6148 11.7368C31.382 11.8992 31.1156 12.007 30.8354 12.0521C30.5235 12.085 30.21 12.1012 29.8964 12.1008Z" fill="white"/>
<path d="M27.2006 12.0602H23.5879L23.5906 12.0508L24.6014 7.29614C24.6107 7.22274 24.6475 7.15558 24.7042 7.10807C24.7709 7.06246 24.8509 7.04054 24.9315 7.04583H27.9799C28.0385 7.04054 28.0969 7.05853 28.1423 7.09589C28.1683 7.12526 28.1819 7.16359 28.1802 7.20278V7.20684C28.1799 7.22552 28.1777 7.24412 28.1734 7.26232L28.0165 8.00379H25.6568L25.4524 8.98745H27.6674L27.4658 9.91429H25.2508L24.9992 11.1009H27.4076L27.2006 12.0602Z" fill="white"/>
<path d="M33.6798 12.0603H32.4756L32.4783 12.0508L33.485 7.31377C33.4981 7.2299 33.5403 7.15329 33.6041 7.09728C33.655 7.06157 33.7165 7.04394 33.7786 7.04722H34.4917C34.5532 7.04206 34.6143 7.06098 34.6622 7.09999C34.6768 7.1152 34.6882 7.13325 34.6957 7.15302C34.7031 7.1728 34.7064 7.19389 34.7054 7.215C34.7054 7.22998 34.7041 7.24492 34.7014 7.25965L33.6798 12.0603Z" fill="white"/>
<path d="M36.9958 12.0603H35.4777L35.475 12.0549L34.3506 9.45431L34.3547 9.45025L36.299 7.33949C36.3732 7.24987 36.4587 7.17027 36.5534 7.10271C36.6205 7.0609 36.699 7.04104 36.778 7.04588H37.7576C37.7902 7.04426 37.8224 7.05433 37.8483 7.0743C37.8566 7.081 37.8635 7.08927 37.8685 7.09865C37.8719 7.10489 37.8738 7.11185 37.874 7.11895H37.8753L37.874 7.13518C37.8678 7.17305 37.8493 7.20781 37.8212 7.23396L35.7226 9.48948L36.9958 12.0603Z" fill="white"/>
<path d="M21.7658 12.0601H21.7563L21.7591 12.0506L22.1866 10.0251H20.2017L19.7687 12.0601H18.5645L18.5672 12.0506C18.6078 11.8585 19.5644 7.34202 19.5712 7.3163C19.5765 7.27025 19.592 7.22596 19.6166 7.18665C19.6412 7.14733 19.6742 7.11397 19.7132 7.08899C19.7831 7.05541 19.8605 7.04049 19.9378 7.04569H20.5887C20.6357 7.04808 20.6812 7.06354 20.7199 7.09034C20.7426 7.10537 20.7611 7.12593 20.7736 7.15007C20.7862 7.17422 20.7924 7.20116 20.7916 7.22836C20.7915 7.24288 20.7902 7.25737 20.7876 7.27165C20.7821 7.30007 20.452 8.84389 20.4195 8.99679H22.4058C22.5668 8.23502 22.7603 7.32713 22.763 7.3163C22.7683 7.27025 22.7839 7.22596 22.8084 7.18665C22.833 7.14733 22.866 7.11397 22.9051 7.08899C22.9749 7.05541 23.0523 7.04049 23.1297 7.04569H23.7805C23.8275 7.04808 23.873 7.06354 23.9117 7.09034C23.9344 7.10537 23.9529 7.12593 23.9654 7.15007C23.978 7.17422 23.9842 7.20116 23.9834 7.22836C23.9834 7.24288 23.982 7.25737 23.9794 7.27165C23.974 7.30142 23.0038 11.8585 22.9619 12.0533L22.9605 12.0601H21.7658Z" fill="white"/>
<path d="M40.5473 8.02549C40.5902 8.03364 40.6309 8.05105 40.6664 8.07652C40.7019 8.10199 40.7315 8.13491 40.753 8.17298C40.7798 8.23003 40.7928 8.29262 40.7909 8.35564C40.7884 8.44263 40.7776 8.52918 40.7584 8.61407C40.7374 8.72806 40.7047 8.8396 40.661 8.94692C40.6211 9.03927 40.5588 9.1202 40.4797 9.18235C40.3146 9.31224 40.0575 9.39072 39.6015 9.49355C39.1508 9.57422 38.7105 9.70539 38.2891 9.88458C38.0243 10.003 37.8131 10.2157 37.6964 10.4813C37.6003 10.7079 37.5291 10.9442 37.484 11.1862L37.3135 12.0522H41.2198L41.4024 11.1754H38.6842C38.7027 11.0775 38.7285 10.9812 38.7613 10.8872C38.7992 10.7959 38.8609 10.7165 38.9399 10.6572C39.0246 10.5997 39.1191 10.558 39.2186 10.534C39.4419 10.4718 39.7504 10.4299 40.2036 10.3148C40.7624 10.1701 41.1399 10.0118 41.4065 9.75603C41.673 9.50031 41.8354 9.1404 41.9545 8.57618C41.9964 8.38907 42.0195 8.19824 42.0235 8.00654C42.0312 7.82348 41.9896 7.64171 41.9031 7.48021C41.8246 7.34958 41.7079 7.24615 41.5689 7.18389C41.1783 7.04289 40.7627 6.98438 40.3484 7.01205C39.7057 7.01205 39.1997 7.07835 38.8235 7.30972C38.4474 7.53974 38.1862 7.95919 38.0401 8.64248L37.9995 8.83596H39.1875L39.2335 8.62218C39.2567 8.4645 39.3134 8.31362 39.3999 8.17973C39.4422 8.12994 39.4943 8.08945 39.553 8.0608C39.6116 8.03216 39.6756 8.01599 39.7409 8.01331C39.8667 8 39.9932 7.99458 40.1197 7.99707H40.1901C40.3099 7.99073 40.43 8.00029 40.5473 8.02549Z" fill="white"/>
<path d="M43.8248 7.54236C43.6867 7.68579 42.5272 8.89812 42.0523 9.39604C41.9587 9.4873 41.8778 9.59059 41.8114 9.70318C41.7611 9.82868 41.7248 9.95937 41.7032 10.0929C41.6531 10.3729 41.6152 10.6287 41.5922 10.7329C41.5871 10.7573 41.5843 10.7823 41.5841 10.8073C41.5832 10.8426 41.5904 10.8777 41.6052 10.9099C41.62 10.942 41.6419 10.9703 41.6694 10.9926C41.7192 11.0325 41.7814 11.0536 41.8453 11.0522H44.1468L43.9344 12.0521L45.1453 11.9371L45.3334 11.0508H45.7664L45.9545 10.1646H45.5215C45.5215 10.1646 45.9545 8.14313 45.968 8.06736C46.1168 7.24876 45.7772 7.00928 45.0114 7.00928C44.8165 7.01332 44.3741 6.97273 43.8248 7.54236ZM44.3335 10.1673H42.5948L44.6636 8.02405H44.7895L44.3335 10.1673Z" fill="white"/>
<path d="M41.113 14.8516C40.3471 14.8563 39.5951 14.6473 38.9414 14.2482C38.4789 13.9674 38.0813 13.5915 37.7751 13.1454L37.5464 13.734C37.536 13.7612 37.5164 13.7838 37.491 13.7981C37.4656 13.8124 37.4361 13.8174 37.4074 13.8123C37.3788 13.8072 37.3528 13.7923 37.334 13.7701C37.3151 13.7479 37.3046 13.7198 37.3042 13.6907L37.292 12.5365V12.5352C37.292 12.5193 37.2953 12.5035 37.3015 12.4888C37.3078 12.4742 37.317 12.4609 37.3286 12.45C37.3525 12.4268 37.3845 12.4137 37.4179 12.4135H38.5937C38.6221 12.4144 38.6493 12.425 38.6709 12.4434C38.6926 12.4618 38.7073 12.487 38.7127 12.5149C38.7143 12.5225 38.7152 12.5302 38.7154 12.5379C38.7152 12.563 38.7075 12.5875 38.6933 12.6083C38.6791 12.629 38.659 12.645 38.6356 12.6543L38.0633 12.8762C38.8838 13.6178 39.9475 14.0333 41.0535 14.0438C41.178 14.0438 41.3038 14.0384 41.4283 14.0276C42.0434 13.9752 42.6467 13.8282 43.217 13.5919C43.6705 13.409 44.0917 13.1546 44.4645 12.8383L43.8733 12.6637C43.8473 12.6564 43.8244 12.6408 43.8081 12.6193C43.7917 12.5979 43.7828 12.5717 43.7826 12.5447V12.5325C43.7856 12.5035 43.7985 12.4764 43.8193 12.4559C43.84 12.4355 43.8672 12.4228 43.8963 12.4202L45.0423 12.316C45.0477 12.316 45.0518 12.3147 45.0545 12.3147C45.0835 12.3148 45.1117 12.3248 45.1343 12.3431C45.1599 12.3645 45.1759 12.3952 45.179 12.4283C45.2737 13.5554 45.2737 13.5554 45.2737 13.5595C45.2735 13.5868 45.2644 13.6133 45.2478 13.6351C45.2312 13.6568 45.208 13.6725 45.1817 13.6799C45.171 13.6826 45.1601 13.6839 45.1492 13.6839C45.1257 13.684 45.1027 13.6776 45.0827 13.6654C45.0626 13.6533 45.0463 13.6358 45.0355 13.6149L44.7582 13.0845C44.4276 13.5237 44.015 13.8945 43.5431 14.1764C42.9241 14.5518 42.2258 14.777 41.5041 14.834L41.4297 14.8408C41.3255 14.8476 41.2186 14.8516 41.113 14.8516Z" fill="white"/>
<path d="M30.6766 54.1429H29.3232V51.0498H30.6766V54.1429ZM30.7142 50.6091H29.2856V49.8572H30.7142V50.6091Z" fill="white"/>
<circle cx="30" cy="52" r="4.5" stroke="white"/>
</svg>
