<?xml version="1.0" encoding="UTF-8" standalone="no"?>
<svg
   xmlns:dc="http://purl.org/dc/elements/1.1/"
   xmlns:cc="http://creativecommons.org/ns#"
   xmlns:rdf="http://www.w3.org/1999/02/22-rdf-syntax-ns#"
   xmlns:svg="http://www.w3.org/2000/svg"
   xmlns="http://www.w3.org/2000/svg"
   xmlns:sodipodi="http://sodipodi.sourceforge.net/DTD/sodipodi-0.dtd"
   xmlns:inkscape="http://www.inkscape.org/namespaces/inkscape"
   inkscape:version="1.0 (4035a4fb49, 2020-05-01)"
   height="40"
   width="86.426414"
   sodipodi:docname="logodivinaseguros.svg"
   xml:space="preserve"
   viewBox="0 0 86.426414 40"
   y="0px"
   x="0px"
   id="Capa_1"
   version="1.1"><metadata
   id="metadata47"><rdf:RDF><cc:Work
       rdf:about=""><dc:format>image/svg+xml</dc:format><dc:type
         rdf:resource="http://purl.org/dc/dcmitype/StillImage" /></cc:Work></rdf:RDF></metadata><defs
   id="defs45" /><sodipodi:namedview
   inkscape:current-layer="Capa_1"
   inkscape:window-maximized="1"
   inkscape:window-y="-8"
   inkscape:window-x="-8"
   inkscape:cy="181.8"
   inkscape:cx="392.7"
   inkscape:zoom="1.31125"
   showgrid="false"
   id="namedview43"
   inkscape:window-height="1017"
   inkscape:window-width="1920"
   inkscape:pageshadow="2"
   inkscape:pageopacity="0"
   guidetolerance="10"
   gridtolerance="10"
   objecttolerance="10"
   borderopacity="1"
   bordercolor="#666666"
   pagecolor="#ffffff" />
<style
   id="style2"
   type="text/css">
	.st0{fill:#55565A;}
	.st1{fill:#F38B00;}
</style>
<g
   transform="matrix(0.11004127,0,0,0.11004127,-0.80330127,-0.90233841)"
   id="g40">
	<g
   id="g22">
		<path
   id="path4"
   d="m 217.3,53 c 12.3,0 22.4,-9.8 22.4,-22.4 0,-12.6 -10.1,-22.4 -22.4,-22.4 -12.6,0 -22.7,9.8 -22.7,22.4 0,12.6 10.1,22.4 22.7,22.4"
   class="st0" />
		<path
   id="path6"
   d="m 421,53 c 12.3,0 22.4,-9.8 22.4,-22.4 C 443.4,18 433.3,8.2 421,8.2 408.4,8.2 398.3,18 398.3,30.6 398.3,43.2 408.4,53 421,53"
   class="st0" />
		<g
   id="g20">
			<path
   id="path8"
   d="m 126.2,185.6 c -9.1,9.1 -20.8,13.9 -34.4,13.9 -13.6,0 -24.6,-4.7 -33.7,-13.9 -8.8,-9.1 -13.2,-20.8 -13.2,-34.7 0,-13.9 4.4,-25.5 13.2,-34.7 9.1,-9.1 20.2,-13.9 33.7,-13.9 13.6,0 25.2,4.7 34.4,13.9 9.4,9.1 14.2,20.8 14.2,34.7 -0.1,13.9 -4.8,25.6 -14.2,34.7 m 49.1,-175 H 137.5 V 94.5 C 131.5,79.4 112.3,68 86.7,68 64.4,68 45.4,75.9 30,92 14.9,107.8 7.3,127.3 7.3,151 c 0,23.6 7.6,43.2 22.7,59.3 15.4,16.1 34.4,24 56.7,24 25.2,0 43.5,-8.2 54.5,-24.9 1.6,8.2 6,15.5 12.9,20.2 5.5,3.3 12.5,4.9 21.1,5 v -224 z"
   class="st0" />
			<path
   id="path10"
   d="m 236.9,74 h -37.8 v 120.4 c 0,26.8 13.6,40.3 37.8,40.3 0.4,0 0,-160.7 0,-160.7"
   class="st0" />
			<path
   id="path12"
   d="M 439.9,74 H 402 v 120.4 c 0,26.8 12.3,40.3 36.6,40.3 0.5,0 0.8,0 1.3,0 V 74 Z"
   class="st0" />
			<path
   id="path14"
   d="m 547.7,68.4 c -22.4,0 -38.3,12.9 -45.8,28.4 V 74 h -37.5 v 160.5 h 37.5 v -92.9 c 0,-21.7 14.8,-36.9 35.9,-36.9 21.1,0 33.4,13.5 33.4,35.3 v 53 c 0,27.7 12.3,41.6 37.2,41.6 h 0.1 V 129.4 c 0.1,-36.3 -25,-61 -60.8,-61"
   class="st0" />
			<path
   id="path16"
   d="m 743.5,185.9 c -9.1,9.1 -20.8,13.9 -34.4,13.9 -13.6,0 -24.6,-4.7 -33.7,-13.9 -8.9,-9.2 -13.3,-20.8 -13.3,-34.7 0,-13.9 4.4,-25.5 13.3,-34.7 9.1,-9.1 20.2,-13.9 33.7,-13.9 13.5,0 25.2,4.7 34.4,13.9 9.5,9.1 14.2,20.8 14.2,34.7 0,13.9 -4.7,25.6 -14.2,34.7 M 792.7,71.8 h -37.8 v 23 c -6,-15.1 -25.2,-26.5 -50.8,-26.5 -22.4,0 -41.3,7.9 -56.7,24 -15.2,15.8 -22.7,35.3 -22.7,59 0,23.6 7.5,43.2 22.7,59.3 15.4,16.1 34.4,24 56.7,24 25.2,0 43.5,-8.2 54.5,-24.9 1.6,8.2 6,14.5 12.9,19.2 5.5,3.3 12.5,4.9 21.1,5 V 71.8 Z"
   class="st0" />
			<path
   id="path18"
   d="m 392.2,52.7 c 0,0 -13.9,-0.2 -18.5,0 -12.6,0.4 -21.4,10.8 -25.6,20.5 -4.1,9.4 -34,106.9 -34,106.9 h 0.1 l -0.6,1 c 0,0 -13.7,-30.6 -17.8,-40 -4.2,-9.7 -15,-14.2 -27.6,-14.7 -4.6,-0.2 -18.5,0 -18.5,0 l 50.2,108 H 332 Z"
   class="st1" />
		</g>
	</g>
	<g
   id="g38">
		<path
   id="path24"
   d="m 400.5,328.6 c 1.5,4.6 6.4,9.3 15.5,9.3 11.4,0 13.6,-5.9 13.6,-9.4 0,-6.7 -5.8,-9 -15.4,-12.8 -9.8,-3.9 -16.7,-8.2 -16.7,-18 0,-9.5 7.7,-16.3 18.6,-16.3 8.3,0 14.3,3.7 17.9,10.6 l -7.3,3.8 c -2.2,-4 -5.3,-6.1 -10.4,-6.1 -5.5,0 -9.7,2.8 -9.7,7.9 0,5.5 5.4,8.1 13.4,11.1 11.9,4.5 18.7,9.8 18.7,19.7 0,8.8 -7,17.8 -22.6,17.8 -11.4,0 -20.7,-5.1 -23.2,-14.8 z"
   class="st1" />
		<path
   id="path26"
   d="m 442.7,314.3 c 0,-19.9 13.2,-32.9 30.8,-32.9 17.1,0 28.4,13.7 28.4,30.7 0,0 0,2.1 -0.1,3.9 h -50 c 0.5,13.6 9,22.3 22,22.3 8.9,0 13.8,-3.2 18.9,-8.6 l 6,5.9 c -7.7,8.6 -16,10.9 -24.9,10.9 -18.3,0 -31.1,-12.5 -31.1,-31.7 z m 49.5,-6.2 c 0,-9.9 -8.3,-18.2 -18.7,-18.2 -11.2,0 -20.5,8.2 -21.1,18.2 z"
   class="st1" />
		<path
   id="path28"
   d="m 538.7,363.3 c 6.1,0 11.5,-1.5 15.3,-4.5 5.6,-4.6 6.4,-12.3 6.4,-19.1 v -5.1 c -3.1,5.3 -9.8,11 -21.9,11 -17.2,0 -31.2,-13.4 -31.2,-32 0,-18.6 13.9,-32.2 31.2,-32.2 12.1,0 18.8,5.7 21.9,11 v -9.2 h 9 v 51.3 c 0,13.3 -0.6,23.5 -9.8,30.7 -5.3,4.2 -12.7,6.5 -20.8,6.5 -11,0 -20.8,-3.3 -29.2,-9.4 l 4.6,-7.2 c 7.1,5.2 14.5,8.2 24.5,8.2 z m -0.3,-26.1 c 13.2,0 23,-10 23,-23.6 0,-13.6 -9.8,-23.7 -23,-23.7 -12.7,0 -22.1,10.1 -22.1,23.7 0,13.6 9.4,23.6 22.1,23.6 z"
   class="st1" />
		<path
   id="path30"
   d="m 579.7,283.3 h 9.1 v 37.4 c 0,10.3 5.7,16.7 15.3,16.7 9.8,0 16.7,-7 16.7,-17.4 v -36.8 h 9.1 v 47.3 c 0,5.4 1.2,7.7 4.6,7.7 0.9,0 2.3,-0.1 3.2,-0.2 v 6.8 c -2,1 -3.8,1 -5.7,1 -2.3,0 -5.4,-0.4 -7.6,-2.8 -1.2,-1.3 -2.3,-3.3 -2.8,-6.1 -2.8,4.3 -8.9,8.9 -19.7,8.9 -13.7,0 -22.1,-9.4 -22.1,-23.2 v -39.3 z"
   class="st1" />
		<path
   id="path32"
   d="m 644.5,283.3 h 9 v 10.4 c 3.1,-6.6 9.7,-11.4 19,-11.4 1.3,0 2.9,0.1 3.8,0.2 v 9.8 c -1.5,-0.4 -3.5,-0.6 -6.1,-0.6 -9.5,0 -16.6,7 -16.6,17.4 v 35.8 h -9 v -61.6 z"
   class="st1" />
		<path
   id="path34"
   d="m 710.4,281.4 c 18.1,0 32.8,13.8 32.8,32.6 0,18.8 -14.7,32.6 -32.8,32.6 -18.1,0 -32.8,-13.8 -32.8,-32.6 0.1,-18.8 14.8,-32.6 32.8,-32.6 z m 0,56.9 c 13.7,0 23.7,-10.4 23.7,-24.2 0,-13.8 -10,-24.2 -23.7,-24.2 -13.7,0 -23.7,10.4 -23.7,24.2 0,13.8 10.1,24.2 23.7,24.2 z"
   class="st1" />
		<path
   id="path36"
   d="m 754.6,328.6 c 1.5,4.6 6.4,9.3 15.5,9.3 11.4,0 13.6,-5.9 13.6,-9.4 0,-6.7 -5.7,-9 -15.4,-12.8 -9.8,-3.9 -16.8,-8.2 -16.8,-18 0,-9.5 7.7,-16.3 18.6,-16.3 8.3,0 14.3,3.7 17.8,10.6 l -7.3,3.8 c -2.2,-4 -5.3,-6.1 -10.4,-6.1 -5.5,0 -9.7,2.8 -9.7,7.9 0,5.5 5.4,8.1 13.4,11.1 11.9,4.5 18.7,9.8 18.7,19.7 0,8.8 -7,17.8 -22.6,17.8 -11.4,0 -20.7,-5.1 -23.2,-14.8 z"
   class="st1" />
	</g>
</g>
</svg>
