<?xml version="1.0" encoding="UTF-8"?>
<svg id="Capa_1" data-name="Capa 1" xmlns="http://www.w3.org/2000/svg" viewBox="0 0 138.93 40">
  <defs>
    <style>
      .cls-1, .cls-2 {
        fill: #fff;
      }

      .cls-1, .cls-2, .cls-3 {
        stroke-width: 0px;
      }

      .cls-2 {
        fill-rule: evenodd;
      }

      .cls-3 {
        fill: #d81e05;
      }
    </style>
  </defs>
  <g id="Page-1">
    <g id="AF_MAPFRE_NEG_H_RGB" data-name="AF MAPFRE NEG H RGB">
      <rect id="Rectangle" class="cls-3" width="138.93" height="40"/>
      <g id="Group">
        <path id="Shape" class="cls-2" d="m21.33,17.56c.15.06.25.21.25.37,0,.09-.03.17-.08.24l-1.36,2.34c-.03.07-.1.11-.18.11-.08,0-.15-.05-.19-.12l-1.35-2.34c-.05-.07-.07-.15-.07-.24,0-.16.1-.3.23-.37.46-.17.91-.25,1.38-.25s.93.08,1.35.24h.02Zm-3.99.77c.1-.08.24-.09.36-.02.06.04.11.09.14.15l1.09,1.91c.03.05.04.12,0,.18-.04.06-.1.09-.16.08h-2.2c-.06.01-.13,0-.19-.04-.12-.06-.18-.19-.17-.32.07-.39.19-.74.39-1.07.19-.34.44-.62.71-.86h.01Zm5.25,0c-.1-.08-.25-.09-.37-.02-.06.04-.11.09-.13.15l-1.1,1.91c-.04.05-.04.12,0,.18.04.06.1.09.16.08h2.2c.07.01.14,0,.19-.04.12-.06.18-.19.17-.32-.06-.39-.19-.74-.38-1.07-.19-.34-.44-.62-.72-.86h0Zm-2.3,2.95v2.03h-.65v-2.03c-.31,0-.72,0-.87,0h-2.16c-.18.01-.37-.03-.54-.12-.33-.19-.5-.54-.49-.89,0-.05,0-.1.01-.13.08-.43.23-.85.46-1.25.23-.4.53-.74.87-1.03.22-.17.54-.25.83-.2.08-.28.28-.51.53-.64.05-.03.09-.05.13-.06.49-.18,1.02-.27,1.57-.27s1.08.1,1.57.28c.29.12.53.38.64.69.28-.06.57,0,.8.17.34.28.68.66.91,1.06.23.4.38.83.46,1.25,0,.04,0,.08.01.13.01.35-.16.7-.49.89-.17.1-.36.14-.54.13h-2.16c-.15,0-.56,0-.87,0Zm-.33-7.3c-3.32,0-6.01,2.69-6.01,6.01s2.69,6.01,6.01,6.01,6.01-2.69,6.01-6.01-2.69-6.01-6.01-6.01Zm0-.64c3.67,0,6.65,2.97,6.65,6.64s-2.98,6.65-6.65,6.65-6.64-2.97-6.64-6.65,2.97-6.64,6.64-6.64Z"/>
        <polygon id="Path" class="cls-1" points="37.12 13.31 40.37 19.97 43.62 13.31 48.54 13.31 48.54 26.63 43.62 26.63 43.62 19.97 40.37 26.63 37.12 19.97 37.12 26.63 32.2 26.63 32.2 13.31 37.12 13.31"/>
        <path id="Shape-2" data-name="Shape" class="cls-1" d="m58.29,15.31l-2,6.95h3.99l-1.99-6.95Zm-8.17,11.32l3.83-13.32h8.69l3.82,13.32h-4.92l-.63-2.19h-5.25l-.63,2.19h-4.92Z"/>
        <path id="Shape-3" data-name="Shape" class="cls-2" d="m74.09,14.85c1.11,0,2.19.59,2.19,1.8s-.95,2.19-2.19,2.19h-1.07v-3.98h1.07Zm3.14-1.53c2.15,0,3.89,1.74,3.89,3.88s-1.74,3.88-3.89,3.88h-4.28v5.55h-4.92v-13.31h9.2Z"/>
        <polygon id="Path-2" data-name="Path" class="cls-1" points="82.82 13.31 95.89 13.31 95.89 15.5 87.73 15.5 87.73 18.89 95.89 18.89 95.89 21.07 87.73 21.07 87.73 26.63 82.82 26.63 82.82 13.31"/>
        <polygon id="Path-3" data-name="Path" class="cls-1" points="117.46 24.44 125.62 24.44 125.62 26.63 112.54 26.63 112.54 13.31 125.62 13.31 125.62 15.5 117.46 15.5 117.46 18.89 125.62 18.89 125.62 21.07 117.46 21.07 117.46 24.44"/>
        <path id="Shape-4" data-name="Shape" class="cls-2" d="m103.67,14.85c1.08,0,2.19.59,2.19,1.8s-.98,2.19-2.19,2.19h-1.06v-3.98h1.06Zm7.02,8.35v.11s0-.07,0-.11Zm0,.11v3.33h-4.84v-3.22s0-.07,0-.11c0-1.2-.98-2.19-2.19-2.19h-1.06v5.52h-5v-13.31h9.76c1.84,0,3.33,1.49,3.33,3.33s-1.49,3.33-3.33,3.33c1.8,0,3.27,1.43,3.33,3.22,0,.04,0,.07,0,.11Z"/>
      </g>
    </g>
  </g>
</svg>