<?xml version="1.0" encoding="UTF-8" standalone="no"?>
<svg
   xmlns:dc="http://purl.org/dc/elements/1.1/"
   xmlns:cc="http://creativecommons.org/ns#"
   xmlns:rdf="http://www.w3.org/1999/02/22-rdf-syntax-ns#"
   xmlns:svg="http://www.w3.org/2000/svg"
   xmlns="http://www.w3.org/2000/svg"
   xmlns:sodipodi="http://sodipodi.sourceforge.net/DTD/sodipodi-0.dtd"
   xmlns:inkscape="http://www.inkscape.org/namespaces/inkscape"
   inkscape:version="1.0 (4035a4fb49, 2020-05-01)"
   sodipodi:docname="ocu.svg"
   xml:space="preserve"
   enable-background="new 0 0 10548.6 4219.5"
   viewBox="0 0 75.000001 30"
   height="30"
   width="75"
   y="0px"
   x="0px"
   id="Ebene_1"
   version="1.1"><metadata
   id="metadata46"><rdf:RDF><cc:Work
       rdf:about=""><dc:format>image/svg+xml</dc:format><dc:type
         rdf:resource="http://purl.org/dc/dcmitype/StillImage" /><dc:title></dc:title></cc:Work></rdf:RDF></metadata><defs
   id="defs44"><linearGradient
     gradientTransform="matrix(5.9659,0,0,-5.9659,3546.7855,5372.0381)"
     y2="649.11938"
     x2="-6.3200998"
     y1="649.11938"
     x1="-16.5452"
     gradientUnits="userSpaceOnUse"
     id="SVGID_1_"><stop
       id="stop4"
       style="stop-color:#00ABBD"
       offset="0" /><stop
       id="stop6"
       style="stop-color:#006789"
       offset="1" /></linearGradient><linearGradient
     gradientTransform="matrix(3.5974058,0,0,-3.5974058,62.432275,2542.5107)"
     y2="649.11938"
     x2="-6.3200998"
     y1="649.11938"
     x1="-16.5452"
     gradientUnits="userSpaceOnUse"
     id="SVGID_1_-4"><stop
       id="stop4-6"
       style="stop-color:#00ABBD"
       offset="0" /><stop
       id="stop6-7"
       style="stop-color:#006789"
       offset="1" /></linearGradient></defs><sodipodi:namedview
   inkscape:current-layer="Ebene_1"
   inkscape:window-maximized="1"
   inkscape:window-y="7"
   inkscape:window-x="-11"
   inkscape:cy="16.310016"
   inkscape:cx="25.253651"
   inkscape:zoom="24.144835"
   showgrid="false"
   id="namedview42"
   inkscape:window-height="1526"
   inkscape:window-width="2880"
   inkscape:pageshadow="2"
   inkscape:pageopacity="0"
   guidetolerance="10"
   gridtolerance="10"
   objecttolerance="10"
   borderopacity="1"
   bordercolor="#666666"
   pagecolor="#ffffff"
   inkscape:document-rotation="0" />


<g
   transform="matrix(0.81198077,0,0,0.8151361,20.135512,-154.03316)"
   id="OCU"><path
     id="path2"
     d="m 21.30394,225.76985 c -2.533784,0 -4.904156,-0.49084 -7.193123,-1.47131 -2.206961,-0.98047 -4.1691053,-2.28837 -5.8038238,-3.92308 C 6.6722747,218.74074 5.3643793,216.7792 4.383307,214.57163 3.4028376,212.36467 2.912,209.9943 2.912,207.46052 c 0,-2.53379 0.4902347,-4.90416 1.471307,-7.11112 0.899065,-2.37037 2.2069604,-4.25051 3.9236862,-5.96723 1.6347185,-1.63472 3.5962598,-3.02463 5.8038238,-3.92309 2.20696,-0.98107 4.577332,-1.4713 7.193123,-1.4713 2.534386,0 4.904155,0.49023 7.193123,1.4713 2.206961,0.98047 4.169105,2.28837 5.803824,3.92309 1.634718,1.63471 2.942614,3.59626 3.923686,5.80382 0.981072,2.20696 1.471307,4.57733 1.471307,7.11111 0,2.53439 -0.490235,4.90476 -1.471307,7.11112 -0.980469,2.20696 -2.288968,4.16911 -3.923686,5.80382 -1.634719,1.63412 -3.59626,3.02402 -5.803824,3.92309 -2.288365,1.14388 -4.658737,1.63472 -7.193123,1.63472 z"
     fill="#ffffff"
     style="stroke-width:0.602995" /><linearGradient
     gradientTransform="matrix(5.9659,0,0,-5.9659,101.6198,4092.0925)"
     y2="649.11938"
     x2="-6.3200998"
     y1="649.11938"
     x1="-16.5452"
     gradientUnits="userSpaceOnUse"
     id="linearGradient866"><stop
       id="stop862"
       style="stop-color:#00ABBD"
       offset="0" /><stop
       id="stop864"
       style="stop-color:#006789"
       offset="1" /></linearGradient><path
     style="fill:url(#SVGID_1_-4);stroke-width:0.602995"
     id="path9"
     d="m 38.878219,212.7531 c -1.389903,0 -2.533783,-0.65364 -3.351444,-1.55271 -0.817058,0.98047 -2.043549,1.55271 -3.432849,1.63412 -2.534386,0 -4.577332,-2.04355 -4.577332,-4.57734 v 0 -4.65933 0 c 0,-0.65365 0.490235,-1.14449 1.144484,-1.14449 0.653646,0 1.143881,0.49024 1.143881,1.14449 v 0 4.65933 c 0,1.3079 1.063079,2.37038 2.370372,2.37038 1.307895,0 2.370372,-1.06248 2.370372,-2.37038 v -4.65933 0 c 0,-0.65365 0.490234,-1.14449 1.144483,-1.14449 v 0 0 c 0.653647,0 1.143881,0.49024 1.143881,1.14449 v 0 4.65933 c 0,1.3079 1.06308,2.37038 2.370975,2.37038 0.163412,0 0.326823,0 0.408228,-0.082 v 0 c 0.163411,-1.06248 0.245418,-2.04355 0.245418,-3.18803 0,-2.53379 -0.490234,-4.90416 -1.471307,-7.11112 -0.980469,-2.20696 -2.288364,-4.1685 -3.923083,-5.80322 -1.634718,-1.63472 -3.59626,-3.02462 -5.803823,-3.92369 -2.45238,-1.06247 -4.822752,-1.55331 -7.356535,-1.55331 -2.533784,0 -4.904156,0.49023 -7.193123,1.47131 -2.206961,0.98047 -4.1691053,2.28836 -5.8038238,3.92308 -1.6347184,1.63472 -2.9426138,3.59626 -3.9236861,5.80382 -0.9804693,2.20696 -1.4713069,4.57734 -1.4713069,7.11112 0,2.53439 0.4902346,4.90476 1.4713069,7.11112 0.8990651,2.37097 2.2069605,4.2505 3.9236861,5.96723 1.6347185,1.63472 3.5962598,3.02402 5.8038238,3.92308 2.20696,0.98047 4.577332,1.47131 7.193123,1.47131 2.534386,0 4.904155,-0.49084 7.193123,-1.47131 2.206961,-0.98047 4.169105,-2.28836 5.803824,-3.92308 1.634718,-1.63472 2.942614,-3.59626 3.923686,-5.80382 0.244816,-0.65244 0.489632,-1.22468 0.653646,-1.79693 z M 19.91464,208.5846 c 0.163412,0.40823 0.408831,0.73565 0.735654,1.06248 0.326823,0.24481 0.653646,0.49023 1.062476,0.65364 0.408831,0.16342 0.817058,0.24482 1.226491,0.24482 0.408228,0 0.817058,-0.0814 1.225889,-0.24482 0.163411,-0.082 0.40883,-0.16341 0.572242,-0.32682 v 0 c 0.08201,-0.082 0.163411,-0.16341 0.326823,-0.16341 0.572242,-0.24542 1.225888,0 1.471307,0.57224 0.244815,0.57164 0,1.14388 -0.490235,1.47071 -0.326823,0.24541 -0.653646,0.40883 -0.981072,0.57224 -0.653647,0.32682 -1.3893,0.49023 -2.124954,0.49023 -0.735653,0 -1.389902,-0.082 -2.043548,-0.40883 -0.653647,-0.24481 -1.225889,-0.65364 -1.79813,-1.14388 -0.490235,-0.49023 -0.981073,-1.06248 -1.226492,-1.79813 -0.326823,-0.65365 -0.490234,-1.3899 -0.490234,-2.12495 v 0 0 c 0,-0.73566 0.163411,-1.38991 0.490234,-2.12496 0.326823,-0.65364 0.735654,-1.30789 1.226492,-1.71672 0.490234,-0.49024 1.14388,-0.81766 1.79813,-1.14449 0.653646,-0.24481 1.307895,-0.40883 2.043548,-0.40883 0.735654,0 1.3893,0.16342 2.124954,0.49024 0.326823,0.16341 0.654249,0.32682 0.981072,0.57224 0.490235,0.24542 0.735653,0.89907 0.490235,1.47131 -0.245419,0.57224 -0.899065,0.81706 -1.471307,0.57224 -0.08141,-0.082 -0.244816,-0.082 -0.326823,-0.16341 v 0 c -0.163412,-0.16341 -0.326824,-0.24542 -0.572242,-0.32683 -0.408831,-0.16341 -0.817661,-0.24541 -1.225889,-0.24541 -0.40883,0 -0.817057,0.0814 -1.226491,0.24541 -0.40883,0.16342 -0.735653,0.32683 -1.062476,0.65365 -0.326823,0.24482 -0.572242,0.65365 -0.735654,1.06248 -0.163411,0.40883 -0.244816,0.81706 -0.244816,1.22649 -0.08201,0.16341 0.08141,0.57224 0.244816,0.98107 z"
     fill="url(#SVGID_1_)" /><path
     id="path11"
     d="m 15.173896,203.53623 c -0.490234,-0.49024 -1.062476,-0.89907 -1.716725,-1.14388 -0.653647,-0.24542 -1.307896,-0.40883 -2.124954,-0.40883 -0.735653,0 -1.4713066,0.16341 -2.1255558,0.40883 -0.6536462,0.24481 -1.2258881,0.65364 -1.7161228,1.14388 -0.4902346,0.49023 -0.899065,1.06247 -1.1444838,1.71672 -0.2454189,0.65425 -0.4088304,1.3079 -0.4088304,2.12496 0,0.73565 0.1634115,1.4713 0.4088304,2.12555 0.2454188,0.65365 0.6536462,1.22589 1.1444838,1.71673 0.4902347,0.49023 1.0624766,0.89906 1.7161228,1.14388 0.6536462,0.24542 1.3078958,0.40883 2.1255558,0.40883 0.735654,0 1.471307,-0.16341 2.124954,-0.40883 0.653646,-0.24542 1.225888,-0.65365 1.716725,-1.14388 0.490235,-0.49024 0.899065,-1.06248 1.144484,-1.71673 0.245419,-0.65425 0.408831,-1.30789 0.408831,-2.12555 0,-0.73566 -0.163412,-1.47071 -0.408831,-2.12496 -0.327426,-0.65425 -0.654249,-1.22589 -1.144484,-1.71672 z m -0.899065,5.06817 c -0.163411,0.40822 -0.40883,0.73565 -0.653646,0.98047 -0.326823,0.32682 -0.653646,0.49023 -0.981072,0.65364 -0.408228,0.16341 -0.817058,0.24542 -1.225888,0.24542 -0.408831,0 -0.817058,-0.0814 -1.225889,-0.24542 -0.4088299,-0.16401 -0.735653,-0.40883 -0.9810718,-0.65364 -0.2448158,-0.32683 -0.4902347,-0.65365 -0.6536462,-0.98047 -0.1634116,-0.40883 -0.2454188,-0.81706 -0.2454188,-1.22649 0,-0.40883 0.082007,-0.81706 0.2454188,-1.22589 0.1634115,-0.40883 0.4088304,-0.73566 0.6536462,-0.98047 0.2454188,-0.32682 0.6536462,-0.49024 0.9810718,-0.65425 0.408831,-0.16341 0.817058,-0.24482 1.225889,-0.24482 0.40883,0 0.81766,0.0814 1.225888,0.24482 0.40883,0.16341 0.735653,0.40883 0.981072,0.65425 0.326823,0.32682 0.490235,0.65365 0.653646,0.98047 0.163412,0.40883 0.244816,0.81706 0.244816,1.22589 0,0.40883 -0.0814,0.81766 -0.244816,1.22649 z"
     fill="#ffffff"
     style="stroke-width:0.602995" /></g></svg>
