<?xml version="1.0" encoding="UTF-8" standalone="no"?>
<svg
   inkscape:version="1.2.2 (732a01da63, 2022-12-09)"
   sodipodi:docname="pelayo_150x40.svg"
   id="svg8"
   version="1.1"
   fill="none"
   viewBox="0 0 150 40.000001"
   height="40"
   width="150"
   xmlns:inkscape="http://www.inkscape.org/namespaces/inkscape"
   xmlns:sodipodi="http://sodipodi.sourceforge.net/DTD/sodipodi-0.dtd"
   xmlns="http://www.w3.org/2000/svg"
   xmlns:svg="http://www.w3.org/2000/svg"
   xmlns:rdf="http://www.w3.org/1999/02/22-rdf-syntax-ns#"
   xmlns:cc="http://creativecommons.org/ns#"
   xmlns:dc="http://purl.org/dc/elements/1.1/">
  <metadata
     id="metadata14">
    <rdf:RDF>
      <cc:Work
         rdf:about="">
        <dc:format>image/svg+xml</dc:format>
        <dc:type
           rdf:resource="http://purl.org/dc/dcmitype/StillImage" />
      </cc:Work>
    </rdf:RDF>
  </metadata>
  <defs
     id="defs12">
    <clipPath
       id="clipPath18"
       clipPathUnits="userSpaceOnUse">
      <path
         id="path16"
         d="M 0,595.276 H 841.89 V 0 H 0 Z" />
    </clipPath>
    <clipPath
       id="clipPath18-3"
       clipPathUnits="userSpaceOnUse">
      <path
         id="path16-7"
         d="M 0,1200 H 1200 V 0 H 0 Z" />
    </clipPath>
    <clipPath
       id="clipPath18-2"
       clipPathUnits="userSpaceOnUse">
      <path
         id="path16-0"
         d="M 0,425.2 H 425.2 V 0 H 0 Z" />
    </clipPath>
    <clipPath
       clipPathUnits="userSpaceOnUse"
       id="clipPath176">
      <path
         d="m 413.331,339.806 h 26.866 v -24.372 h -26.866 z"
         id="path174" />
    </clipPath>
    <clipPath
       clipPathUnits="userSpaceOnUse"
       id="clipPath180">
      <path
         d="m 425.084,339.806 c -4.399,-2.495 -8.313,-5.136 -11.753,-7.912 0.603,-0.642 1.214,-1.274 1.831,-1.899 3.544,-3.593 7.203,-7.07 10.859,-10.552 1.404,-1.338 2.813,-2.671 4.218,-4.009 2.615,2.804 5.93,5.366 9.958,7.688 z"
         id="path178" />
    </clipPath>
    <linearGradient
       x1="0"
       y1="0"
       x2="1"
       y2="0"
       gradientUnits="userSpaceOnUse"
       gradientTransform="matrix(10.668408,11.533424,11.533424,-10.668408,424.71558,325.29333)"
       spreadMethod="pad"
       id="linearGradient186">
      <stop
         style="stop-opacity:1;stop-color:#ffffff"
         offset="0"
         id="stop182" />
      <stop
         style="stop-opacity:1;stop-color:#96be12"
         offset="1"
         id="stop184" />
    </linearGradient>
    <clipPath
       clipPathUnits="userSpaceOnUse"
       id="clipPath144">
      <path
         d="m 449.249,365.075 h 27.347 v -27.444 h -27.347 z"
         id="path142" />
    </clipPath>
    <clipPath
       clipPathUnits="userSpaceOnUse"
       id="clipPath148">
      <path
         d="m 463.722,337.631 c 5.229,3.693 9.515,7.147 12.874,10.367 -4.556,6.292 -9.344,12.393 -15.252,17.077 -1.092,-1.961 -2.768,-3.884 -5.032,-5.771 l -7.063,-6.024 z"
         id="path146" />
    </clipPath>
    <linearGradient
       x1="0"
       y1="0"
       x2="1"
       y2="0"
       gradientUnits="userSpaceOnUse"
       gradientTransform="matrix(-14.992943,-12.397997,-12.397997,14.992943,465.09293,353.19296)"
       spreadMethod="pad"
       id="linearGradient154">
      <stop
         style="stop-opacity:1;stop-color:#ffffff"
         offset="0"
         id="stop150" />
      <stop
         style="stop-opacity:1;stop-color:#96be12"
         offset="1"
         id="stop152" />
    </linearGradient>
    <clipPath
       id="clipPath42"
       clipPathUnits="userSpaceOnUse">
      <path
         id="path40"
         d="M 0,2284.728 H 2284.728 V 0 H 0 Z" />
    </clipPath>
    <clipPath
       id="clipPath42-7"
       clipPathUnits="userSpaceOnUse">
      <path
         id="path40-4"
         d="M 0,2284.728 H 2284.728 V 0 H 0 Z" />
    </clipPath>
    <clipPath
       id="clipPath18-9"
       clipPathUnits="userSpaceOnUse">
      <path
         id="path16-01"
         d="M 0,113.39 H 141.73 V 0 H 0 Z" />
    </clipPath>
    <clipPath
       id="clip0_868_102-6">
      <rect
         width="180"
         height="30.546101"
         fill="#ffffff"
         id="rect910-3"
         x="0"
         y="0" />
    </clipPath>
    <clipPath
       id="clipPath18-36"
       clipPathUnits="userSpaceOnUse">
      <path
         id="path16-4"
         d="M 0,2284.728 H 2284.728 V 0 H 0 Z" />
    </clipPath>
    <clipPath
       id="clipPath18-6"
       clipPathUnits="userSpaceOnUse">
      <path
         id="path16-6"
         d="M 0,300.239 H 792 V 0 H 0 Z" />
    </clipPath>
  </defs>
  <sodipodi:namedview
     inkscape:current-layer="svg8"
     inkscape:window-maximized="1"
     inkscape:window-y="-8"
     inkscape:window-x="3832"
     inkscape:cy="40.262619"
     inkscape:cx="86.531265"
     inkscape:zoom="4.495485"
     showgrid="false"
     id="namedview10"
     inkscape:window-height="1009"
     inkscape:window-width="1920"
     inkscape:pageshadow="2"
     inkscape:pageopacity="0"
     guidetolerance="10"
     gridtolerance="10"
     objecttolerance="10"
     borderopacity="1"
     bordercolor="#666666"
     pagecolor="#ffffff"
     inkscape:showpageshadow="2"
     inkscape:pagecheckerboard="0"
     inkscape:deskcolor="#d1d1d1" />
  <g
     id="g12"
     transform="matrix(0.21680992,0,0,-0.21680992,-12.852015,52.458635)">
    <g
       clip-path="url(#clipPath18-6)"
       id="g14">
      <g
         transform="translate(134.9438,195.2964)"
         id="g20">
        <path
           id="path22"
           style="fill:#005892;fill-opacity:1;fill-rule:nonzero;stroke:none"
           d="m 0,0 c -5.401,3.677 -11.551,6.224 -18.277,7.57 -6.879,1.374 -13.746,2.072 -20.41,2.072 -6.395,0 -12.922,-0.176 -19.398,-0.521 -5.551,-0.306 -11.888,-0.706 -17.581,-1.189 v -145.009 c 1.991,-0.26 4.597,-0.442 6.488,-0.543 2.713,-0.143 5.026,-0.213 7.07,-0.213 2.183,0 4.494,0.07 7.065,0.213 1.756,0.099 3.578,0.276 5.431,0.528 v 46.016 l 2.514,-0.253 c 1.41,-0.143 2.855,-0.246 4.294,-0.308 1.541,-0.068 3.2,-0.102 4.936,-0.102 6.531,0 13.257,0.697 19.991,2.072 6.569,1.33 12.608,3.909 17.952,7.665 5.271,3.695 9.658,8.855 13.042,15.337 3.358,6.452 5.06,15.069 5.06,25.613 0,10.548 -1.704,19.21 -5.066,25.745 C 9.739,-8.791 5.327,-3.64 0,0 m -10.51,-55.225 -10e-4,-0.002 c -1.662,-3.79 -3.92,-6.889 -6.711,-9.207 -2.778,-2.314 -5.999,-3.994 -9.572,-4.992 -3.468,-0.962 -7.056,-1.45 -10.665,-1.45 h -5.24 c -1.567,0 -3.25,0.153 -5,0.453 l -1.913,0.328 v 58.004 l 2.043,0.229 c 2.663,0.298 4.499,0.468 5.782,0.535 1.321,0.07 2.777,0.106 4.328,0.106 3.617,0 7.204,-0.487 10.662,-1.448 3.592,-1.006 6.823,-2.728 9.604,-5.119 2.791,-2.406 5.043,-5.615 6.695,-9.541 1.622,-3.867 2.445,-8.626 2.445,-14.145 0,-5.382 -0.827,-10.008 -2.457,-13.751" />
      </g>
      <g
         transform="translate(246.5527,191.5318)"
         id="g24">
        <path
           id="path26"
           style="fill:#005892;fill-opacity:1;fill-rule:nonzero;stroke:none"
           d="m 0,0 c -3.681,4.116 -8.148,7.363 -13.393,9.742 -5.245,2.37 -11.237,3.559 -17.981,3.559 -7.746,0 -14.522,-1.349 -20.33,-4.031 -5.808,-2.684 -10.681,-6.336 -14.614,-10.954 -3.933,-4.628 -6.899,-10.055 -8.894,-16.298 -1.999,-6.251 -2.996,-12.928 -2.996,-20.048 0,-7.248 0.958,-13.928 2.903,-20.048 1.937,-6.122 4.932,-11.396 8.987,-15.825 4.063,-4.436 9.307,-7.905 15.74,-10.397 6.428,-2.501 14.143,-3.751 23.135,-3.751 12.236,0 23.229,1.875 32.97,5.617 -0.124,4.004 -0.686,7.746 -1.685,11.245 -0.998,3.491 -2.187,6.494 -3.559,8.995 -3.995,-1.502 -8.211,-2.661 -12.646,-3.469 -4.436,-0.815 -8.774,-1.22 -13.019,-1.22 -7.747,0 -13.99,1.685 -18.73,5.062 -4.75,3.369 -7.372,8.803 -7.875,16.299 h 62.201 c 0.244,1.37 0.466,3.208 0.656,5.524 0.182,2.311 0.282,4.65 0.282,7.021 0,6.494 -0.938,12.586 -2.812,18.273 C 6.464,-9.026 3.682,-4.124 0,0 m -51.796,-26.978 c 0.624,6.365 2.56,11.297 5.809,14.796 3.246,3.5 7.989,5.245 14.239,5.245 5.489,0 9.764,-1.838 12.828,-5.517 3.058,-3.691 4.712,-8.532 4.964,-14.524 z" />
      </g>
      <g
         transform="translate(318.2085,124.8091)"
         id="g28">
        <path
           id="path30"
           style="fill:#005892;fill-opacity:1;fill-rule:nonzero;stroke:none"
           d="m 0,0 c -1.177,-0.128 -2.256,-0.188 -3.245,-0.188 -2.227,0 -4.083,0.249 -5.563,0.746 -1.486,0.491 -2.695,1.39 -3.615,2.687 -0.927,1.298 -1.613,3.119 -2.045,5.474 -0.429,2.346 -0.65,5.44 -0.65,9.275 v 98.019 c -4.452,0.739 -8.777,1.116 -12.981,1.116 -4.33,0 -8.716,-0.377 -13.17,-1.116 V 12.241 c 0,-11.871 2.876,-20.437 8.628,-25.689 5.75,-5.261 13.381,-7.88 22.906,-7.88 2.345,0 4.912,0.12 7.698,0.369 2.777,0.249 5.163,0.681 7.14,1.298 0.249,0.99 0.37,1.878 0.37,2.687 v 2.687 c 0,4.824 -0.681,9.775 -2.038,14.845 C 2.318,0.303 1.177,0.121 0,0" />
      </g>
      <g
         transform="translate(406.0098,195.4649)"
         id="g32">
        <path
           id="path34"
           style="fill:#005892;fill-opacity:1;fill-rule:nonzero;stroke:none"
           d="m 0,0 c -7.311,6.243 -17.457,9.368 -30.445,9.368 -4.75,0 -9.864,-0.442 -15.36,-1.31 -5.498,-0.878 -10.993,-2.25 -16.489,-4.125 0,-4.002 0.435,-7.432 1.313,-10.306 0.875,-2.873 2.185,-5.932 3.932,-9.178 7.616,2.622 14.804,3.934 21.549,3.934 3.119,0 5.961,-0.185 8.522,-0.565 2.554,-0.373 4.711,-1.09 6.466,-2.148 1.745,-1.068 3.116,-2.533 4.115,-4.408 0.998,-1.867 1.502,-4.305 1.502,-7.301 v -2.25 c -4.376,0.374 -8.369,0.565 -11.991,0.565 -4.993,0 -9.995,-0.533 -14.985,-1.594 -5.002,-1.066 -9.529,-2.813 -13.585,-5.245 -4.055,-2.439 -7.37,-5.685 -9.925,-9.741 -2.562,-4.063 -3.842,-9.086 -3.842,-15.085 0,-5.992 1.03,-11.052 3.089,-15.169 2.065,-4.125 4.992,-7.494 8.802,-10.115 3.812,-2.631 8.37,-4.499 13.683,-5.626 5.307,-1.123 11.146,-1.685 17.512,-1.685 7.873,0 14.924,0.626 21.166,1.875 6.25,1.243 11.556,2.554 15.925,3.934 v 56.202 C 10.954,-16.237 7.303,-6.251 0,0 m -15.206,-70.068 c -1.364,-0.252 -2.964,-0.528 -4.819,-0.838 -1.857,-0.314 -3.71,-0.475 -5.559,-0.475 -1.605,0 -3.492,0.1 -5.657,0.284 -2.164,0.191 -4.2,0.686 -6.116,1.5 -1.916,0.809 -3.554,2.09 -4.909,3.842 -1.366,1.746 -2.044,4.247 -2.044,7.493 0,4.872 1.764,8.394 5.285,10.581 3.522,2.187 8.313,3.278 14.369,3.278 1.357,0 2.895,-0.091 4.631,-0.275 1.728,-0.189 3.334,-0.412 4.819,-0.656 z" />
      </g>
      <g
         transform="translate(617.0635,190.2105)"
         id="g36">
        <path
           id="path38"
           style="fill:#005892;fill-opacity:1;fill-rule:nonzero;stroke:none"
           d="m 0,0 c -3.876,4.564 -8.752,8.165 -14.628,10.79 -5.873,2.627 -12.75,3.937 -20.631,3.937 -7.877,0 -14.72,-1.31 -20.535,-3.937 C -61.603,8.165 -66.417,4.564 -70.23,0 c -3.816,-4.562 -6.693,-9.966 -8.624,-16.216 -1.946,-6.257 -2.908,-12.94 -2.908,-20.067 0,-7.127 0.962,-13.75 2.908,-19.878 1.931,-6.127 4.808,-11.469 8.624,-16.032 3.813,-4.571 8.627,-8.127 14.436,-10.691 5.815,-2.563 12.658,-3.846 20.535,-3.846 7.881,0 14.758,1.283 20.631,3.846 5.876,2.564 10.752,6.12 14.628,10.691 3.868,4.563 6.745,9.905 8.623,16.032 1.877,6.128 2.815,12.751 2.815,19.878 0,7.127 -0.938,13.81 -2.815,20.067 C 6.745,-9.966 3.868,-4.562 0,0 m -20.16,-58.696 c -3.067,-5.187 -8.096,-7.782 -15.099,-7.782 -6.876,0 -11.843,2.595 -14.903,7.782 -3.067,5.19 -4.596,12.661 -4.596,22.413 0,9.75 1.529,17.223 4.596,22.41 3.06,5.189 8.027,7.784 14.903,7.784 7.003,0 12.032,-2.595 15.099,-7.784 3.062,-5.187 4.595,-12.66 4.595,-22.41 0,-9.752 -1.533,-17.223 -4.595,-22.413" />
      </g>
      <g
         transform="translate(514.8369,204.938)"
         id="g40">
        <path
           id="path42"
           style="fill:#005892;fill-opacity:1;fill-rule:nonzero;stroke:none"
           d="m 0,0 c -4.332,0 -8.535,-0.369 -12.611,-1.109 l -23.933,-87.565 -23.904,88.147 c -1.076,0.145 -2.207,0.248 -3.385,0.318 -0.328,0.017 -0.66,0.035 -0.98,0.049 -0.934,0.04 -1.862,0.073 -2.779,0.097 -0.563,0.014 -1.113,0.025 -1.648,0.032 -0.165,0.002 -0.328,0.003 -0.493,0.005 -9.143,0.078 -14.174,-0.909 -16.209,-1.442 l 29.36,-99.448 c 0.989,-0.249 2.105,-0.369 3.345,-0.369 h 3.892 c 1.729,0 3.427,0.031 5.103,0.091 1.668,0.067 3.178,0.159 4.545,0.278 l -3.157,-11.502 c -0.988,-3.585 -2.105,-6.361 -3.336,-8.347 -1.237,-1.976 -2.573,-3.425 -3.992,-4.354 -1.42,-0.929 -2.877,-1.486 -4.353,-1.67 -1.489,-0.186 -2.975,-0.277 -4.456,-0.277 -1.855,0 -3.712,0.157 -5.56,0.461 -1.857,0.308 -3.345,0.649 -4.456,1.019 -0.993,-2.469 -1.824,-5.036 -2.505,-7.699 -0.677,-2.658 -1.016,-5.472 -1.016,-8.438 v -1.388 c 0,-0.431 0.058,-0.959 0.178,-1.578 2.728,-0.739 5.474,-1.329 8.258,-1.758 2.786,-0.439 5.903,-0.649 9.366,-0.649 3.712,0 7.17,0.338 10.385,1.018 3.215,0.68 6.12,1.887 8.719,3.616 2.597,1.735 4.92,4.143 6.958,7.23 2.037,3.094 3.804,6.988 5.282,11.69 L 13.728,-1.109 C 10.635,-0.49 8.038,-0.152 5.932,-0.09 3.835,-0.029 1.855,0 0,0" />
      </g>
      <g
         transform="translate(733.0645,199.3228)"
         id="g44">
        <path
           id="path46"
           style="fill:#005892;fill-opacity:1;fill-rule:nonzero;stroke:none"
           d="m 0,0 v 27.796 c 0,8.182 -7.141,14.838 -15.919,14.838 h -46.566 c -8.781,0 -15.923,-6.656 -15.923,-14.838 v -67.417 c 0,0 0.026,-2.199 2.017,-3.029 1.992,-0.829 3.404,0.334 4.172,1.309 l 22.064,26.261 h 33.444 l 0.792,-0.019 c 0.132,0 0.26,0.016 0.391,0.019 h 0.414 v 0.02 C -6.712,-14.65 0,-7.926 0,0" />
      </g>
    </g>
  </g>
</svg>
