<svg width="165" height="40" viewBox="0 0 165 40" fill="none" xmlns="http://www.w3.org/2000/svg">
<g clip-path="url(#clip0_3255_1189)">
<path d="M56.3616 12.9329C55.5781 13.2065 55.2573 13.6591 55.2667 14.5173C55.3233 18.8933 55.295 23.2693 55.295 27.6359C55.295 27.9753 55.3044 28.3054 55.2855 28.645C55.2289 29.7861 54.6059 30.484 53.662 30.4934C52.652 30.5029 51.9156 29.7672 51.9062 28.6166C51.8874 23.3447 51.8779 18.0728 51.9346 12.8009C51.944 12.2822 52.3027 11.5749 52.7369 11.3013C56.3711 8.98133 60.2885 8.47207 64.3947 10.0093C65.1687 10.3017 65.8106 10.9241 66.6129 11.4617C68.5008 9.93385 70.6719 9.15107 73.1922 9.16055C78.1668 9.17942 80.8948 11.4334 81.112 16.1678C81.3102 20.3457 81.1875 24.5425 81.1686 28.7299C81.1592 29.8332 80.4229 30.5123 79.4507 30.4934C78.5633 30.4745 77.827 29.7861 77.8081 28.7676C77.7609 25.7025 77.7798 22.6374 77.7704 19.5724C77.7704 18.6764 77.7987 17.7805 77.7421 16.8845C77.5061 13.1499 75.0518 11.4617 71.2383 12.4425C70.5303 12.6217 69.8695 12.999 69.2371 13.3667C68.5008 13.8005 68.1799 14.423 68.1894 15.3284C68.246 19.7799 68.2271 24.2219 68.2082 28.6732C68.2082 29.7861 67.5191 30.4934 66.5752 30.4934C65.5934 30.4934 64.9233 29.7955 64.8667 28.7204C64.8477 28.4186 64.8572 28.1263 64.8572 27.8245C64.8572 24.4199 64.8572 21.0247 64.8572 17.6201C64.8572 17.2052 64.8667 16.7996 64.8288 16.3846C64.5457 13.6025 62.856 12.1313 59.9014 12.2351C59.9109 12.2351 58.3345 12.2445 56.3616 12.9329Z" fill="#8334C2"/>
<path d="M29.261 13.9517C29.5442 11.1979 31.5076 9.49094 34.3961 9.23624C35.982 9.09476 37.615 9.27398 39.2008 9.47207C40.4091 9.62294 40.9943 10.4246 40.8149 11.2922C40.6356 12.1599 39.7861 12.6126 38.6061 12.4994C37.5489 12.4051 36.4917 12.2353 35.4439 12.2825C33.5843 12.3674 32.6214 13.2728 32.5554 15.0363C32.4705 17.611 32.4987 20.1856 32.4894 22.7697C32.4799 24.5994 32.4987 26.4949 32.4799 28.3246C32.4705 29.7109 31.8758 30.4748 30.828 30.5031C29.7047 30.5408 29.0345 29.7487 29.0345 28.3435C29.025 26.1743 29.0345 23.9486 29.0345 21.7795C29.1006 21.7795 28.9967 16.5359 29.261 13.9517Z" fill="#8334C2"/>
<path d="M47.3187 19.94C47.3187 22.7788 47.3282 25.6175 47.3187 28.4562C47.3093 29.7576 46.7051 30.4933 45.6857 30.5028C44.6002 30.5121 43.9583 29.7388 43.9583 28.409C43.9488 22.807 43.9488 22.2977 43.9583 16.7052C43.9583 15.3 44.5246 14.5738 45.6102 14.5643C46.7524 14.5455 47.3187 15.2717 47.3282 16.7523C47.3187 19.5061 47.3187 17.1768 47.3187 19.94Z" fill="#8334C2"/>
<path d="M45.5726 12.8008C44.6192 12.7914 43.7508 11.9331 43.7413 10.9995C43.7319 9.9621 44.5436 9.16992 45.6103 9.16992C46.677 9.16992 47.536 9.99984 47.4982 10.9806C47.4794 11.9804 46.5921 12.8103 45.5726 12.8008Z" fill="#8334C2"/>
<path d="M24.7768 15.4888C24.2388 12.1219 21.8789 10.0094 18.2824 9.37751C16.5267 9.07577 14.837 9.1229 13.204 9.43412C12.4677 9.55673 11.9391 10.1414 11.9203 10.8959C11.9013 11.7164 12.6659 12.4709 13.4966 12.452C13.6193 12.452 13.7326 12.4332 13.8459 12.4049C14.9692 12.1502 16.1208 12.0748 17.329 12.2917C20.0288 12.7538 21.388 14.1967 21.6712 17.3656C21.8505 19.3932 21.7656 21.4775 21.5202 23.5052C21.2276 26.0138 19.5379 27.3907 16.8854 27.6171C14.8464 27.7868 12.9019 27.3907 11.0423 26.5891C10.4665 26.3439 10.2305 26.0326 10.2495 25.4102C10.2966 23.5806 10.2683 21.751 10.2683 19.9213C10.2683 18.4407 10.2495 16.9506 10.2777 15.4699V12.8859C10.2777 12.0087 9.51313 11.2732 8.57865 11.2543C8.29546 11.2448 8.03116 11.3014 7.79517 11.3958C5.85063 12.2446 4.45359 12.9707 1.24417 14.6589C0.0359162 15.3191 -0.294465 16.281 0.262464 17.2052C0.781635 18.0823 1.72558 18.2332 2.86777 17.6202C4.17985 16.9129 5.52026 16.2339 6.87954 15.5831C6.90786 22.5243 6.88898 31.3706 6.89842 38.076V38.0854C6.89842 38.0949 6.89842 38.0949 6.89842 38.0949C6.89842 38.1138 6.89842 38.1232 6.89842 38.142H6.90786C6.94562 39.0003 7.6819 39.6887 8.58809 39.6887C9.49426 39.6887 10.24 39.0003 10.2683 38.142H10.2777C10.2872 36.2086 10.2777 32.8512 10.2777 29.7013C12.1657 30.0502 13.8742 30.5029 15.611 30.6539C20.4252 31.0688 24.2577 28.4659 24.9184 23.9484C25.3149 21.1757 25.2204 18.2615 24.7768 15.4888Z" fill="#8334C2"/>
<path d="M102.341 15.5073C102.247 12.48 100.434 10.3486 97.4804 9.59413C94.1291 8.73587 90.8439 9.15082 87.663 10.3863C86.6152 10.7919 86.2282 11.6407 86.5491 12.4517C86.8512 13.2156 87.7482 13.4986 88.8709 13.1685C88.8709 13.1685 91.8256 12.1971 94.7422 12.216C97.2248 12.2347 98.6317 13.4325 98.9717 15.6205C99.0283 16.0072 99.0378 16.4033 99.0283 16.8182H99.0378L99.0656 21.0905V21.1376C99.0656 21.1565 99.0656 21.1848 99.0656 21.2036V21.3073C99.0656 22.8447 99.1135 24.2499 99.0283 25.6456C99.0091 26.0323 98.6787 26.5887 98.33 26.7585C95.8752 27.9562 93.2796 28.1448 90.6648 27.3432C88.9943 26.8245 88.1822 25.5796 88.1822 23.9103C88.1822 22.392 89.0883 21.2225 90.7587 20.666C92.3917 20.1285 93.9874 20.1568 95.583 20.402C95.6578 20.4114 95.743 20.4209 95.8283 20.4209C96.583 20.4209 97.1874 19.8079 97.1874 19.0628C97.1874 18.4027 96.7152 17.8556 96.083 17.733C93.9778 17.4218 91.8726 17.3653 89.7491 17.9593C86.6152 18.8365 84.8123 20.9961 84.8028 23.8914C84.7934 27.0508 86.5303 29.4369 89.7204 30.2197C93.8274 31.2382 97.7726 30.578 101.426 28.5693C101.879 28.324 102.332 27.645 102.341 27.164C102.417 23.2879 102.473 19.3929 102.341 15.5073Z" fill="#8334C2"/>
</g>
<defs>
<clipPath id="clip0_3255_1189">
<rect width="102.609" height="40" fill="white"/>
</clipPath>
</defs>
</svg>
