<?xml version="1.0" encoding="UTF-8" standalone="no"?>
<svg
   inkscape:version="1.2.2 (732a01da63, 2022-12-09)"
   sodipodi:docname="qualitas_150x40.svg"
   id="svg8"
   version="1.1"
   fill="none"
   viewBox="0 0 150 40.000001"
   height="40"
   width="150"
   xmlns:inkscape="http://www.inkscape.org/namespaces/inkscape"
   xmlns:sodipodi="http://sodipodi.sourceforge.net/DTD/sodipodi-0.dtd"
   xmlns="http://www.w3.org/2000/svg"
   xmlns:svg="http://www.w3.org/2000/svg"
   xmlns:rdf="http://www.w3.org/1999/02/22-rdf-syntax-ns#"
   xmlns:cc="http://creativecommons.org/ns#"
   xmlns:dc="http://purl.org/dc/elements/1.1/">
  <metadata
     id="metadata14">
    <rdf:RDF>
      <cc:Work
         rdf:about="">
        <dc:format>image/svg+xml</dc:format>
        <dc:type
           rdf:resource="http://purl.org/dc/dcmitype/StillImage" />
      </cc:Work>
    </rdf:RDF>
  </metadata>
  <defs
     id="defs12">
    <clipPath
       id="clipPath18"
       clipPathUnits="userSpaceOnUse">
      <path
         id="path16"
         d="M 0,595.276 H 841.89 V 0 H 0 Z" />
    </clipPath>
    <clipPath
       id="clipPath18-3"
       clipPathUnits="userSpaceOnUse">
      <path
         id="path16-7"
         d="M 0,1200 H 1200 V 0 H 0 Z" />
    </clipPath>
    <clipPath
       id="clipPath18-2"
       clipPathUnits="userSpaceOnUse">
      <path
         id="path16-0"
         d="M 0,425.2 H 425.2 V 0 H 0 Z" />
    </clipPath>
    <clipPath
       clipPathUnits="userSpaceOnUse"
       id="clipPath176">
      <path
         d="m 413.331,339.806 h 26.866 v -24.372 h -26.866 z"
         id="path174" />
    </clipPath>
    <clipPath
       clipPathUnits="userSpaceOnUse"
       id="clipPath180">
      <path
         d="m 425.084,339.806 c -4.399,-2.495 -8.313,-5.136 -11.753,-7.912 0.603,-0.642 1.214,-1.274 1.831,-1.899 3.544,-3.593 7.203,-7.07 10.859,-10.552 1.404,-1.338 2.813,-2.671 4.218,-4.009 2.615,2.804 5.93,5.366 9.958,7.688 z"
         id="path178" />
    </clipPath>
    <linearGradient
       x1="0"
       y1="0"
       x2="1"
       y2="0"
       gradientUnits="userSpaceOnUse"
       gradientTransform="matrix(10.668408,11.533424,11.533424,-10.668408,424.71558,325.29333)"
       spreadMethod="pad"
       id="linearGradient186">
      <stop
         style="stop-opacity:1;stop-color:#ffffff"
         offset="0"
         id="stop182" />
      <stop
         style="stop-opacity:1;stop-color:#96be12"
         offset="1"
         id="stop184" />
    </linearGradient>
    <clipPath
       clipPathUnits="userSpaceOnUse"
       id="clipPath144">
      <path
         d="m 449.249,365.075 h 27.347 v -27.444 h -27.347 z"
         id="path142" />
    </clipPath>
    <clipPath
       clipPathUnits="userSpaceOnUse"
       id="clipPath148">
      <path
         d="m 463.722,337.631 c 5.229,3.693 9.515,7.147 12.874,10.367 -4.556,6.292 -9.344,12.393 -15.252,17.077 -1.092,-1.961 -2.768,-3.884 -5.032,-5.771 l -7.063,-6.024 z"
         id="path146" />
    </clipPath>
    <linearGradient
       x1="0"
       y1="0"
       x2="1"
       y2="0"
       gradientUnits="userSpaceOnUse"
       gradientTransform="matrix(-14.992943,-12.397997,-12.397997,14.992943,465.09293,353.19296)"
       spreadMethod="pad"
       id="linearGradient154">
      <stop
         style="stop-opacity:1;stop-color:#ffffff"
         offset="0"
         id="stop150" />
      <stop
         style="stop-opacity:1;stop-color:#96be12"
         offset="1"
         id="stop152" />
    </linearGradient>
    <clipPath
       id="clipPath42"
       clipPathUnits="userSpaceOnUse">
      <path
         id="path40"
         d="M 0,2284.728 H 2284.728 V 0 H 0 Z" />
    </clipPath>
    <clipPath
       id="clipPath42-7"
       clipPathUnits="userSpaceOnUse">
      <path
         id="path40-4"
         d="M 0,2284.728 H 2284.728 V 0 H 0 Z" />
    </clipPath>
    <clipPath
       id="clipPath18-9"
       clipPathUnits="userSpaceOnUse">
      <path
         id="path16-01"
         d="M 0,113.39 H 141.73 V 0 H 0 Z" />
    </clipPath>
    <clipPath
       id="clip0_868_102-6">
      <rect
         width="180"
         height="30.546101"
         fill="#ffffff"
         id="rect910-3"
         x="0"
         y="0" />
    </clipPath>
    <clipPath
       id="clipPath18-36"
       clipPathUnits="userSpaceOnUse">
      <path
         id="path16-4"
         d="M 0,2284.728 H 2284.728 V 0 H 0 Z" />
    </clipPath>
    <clipPath
       id="clipPath18-6"
       clipPathUnits="userSpaceOnUse">
      <path
         id="path16-6"
         d="M 0,300.239 H 792 V 0 H 0 Z" />
    </clipPath>
    <clipPath
       id="clipPath34"
       clipPathUnits="userSpaceOnUse">
      <path
         id="path32"
         d="M 0,71.88 H 566.929 V 0 H 0 Z" />
    </clipPath>
    <clipPath
       id="clipPath18-0"
       clipPathUnits="userSpaceOnUse">
      <path
         id="path16-3"
         d="M 0,71.88 H 566.929 V 0 H 0 Z" />
    </clipPath>
  </defs>
  <sodipodi:namedview
     inkscape:current-layer="svg8"
     inkscape:window-maximized="1"
     inkscape:window-y="-8"
     inkscape:window-x="3832"
     inkscape:cy="40.262619"
     inkscape:cx="86.531265"
     inkscape:zoom="4.495485"
     showgrid="false"
     id="namedview10"
     inkscape:window-height="1009"
     inkscape:window-width="1920"
     inkscape:pageshadow="2"
     inkscape:pageopacity="0"
     guidetolerance="10"
     gridtolerance="10"
     objecttolerance="10"
     borderopacity="1"
     bordercolor="#666666"
     pagecolor="#ffffff"
     inkscape:showpageshadow="2"
     inkscape:pagecheckerboard="0"
     inkscape:deskcolor="#d1d1d1" />
  <g
     id="g12"
     transform="matrix(0.5068684,0,0,-0.5068684,0,38.217612)">
    <g
       clip-path="url(#clipPath18-0)"
       id="g14">
      <g
         transform="translate(332.3469,71.8805)"
         id="g20" />
    </g>
  </g>
  <g
     transform="matrix(0.5068684,0,0,-0.5068684,207.86318,2.8894918)"
     id="g24" />
  <path
     class="cls-1"
     d="m 34.911263,17.380563 h -0.07924 c -1.976229,0 -3.262643,-0.563971 -4.250757,-1.430901 -1.901655,-1.640643 -2.48427,-4.41389 -2.474948,-6.874854 0.0093,-2.460965 0.591937,-5.238873 2.512235,-6.837567 0.974132,-0.866931 2.227919,-1.421581 4.194826,-1.398276 1.966908,0.0233 3.262643,0.554649 4.236775,1.42158 1.887672,1.617339 2.456304,4.385924 2.446982,6.879515 0,2.255885 -0.4055,4.660918 -1.97623,6.259613 a 3.8079701,3.8079701 0 0 1 -1.42624,1.020741 l 0.563971,0.396178 c 1.323701,0.955489 2.046143,1.193196 2.936378,1.197856 -0.06059,1.444885 -0.988114,2.251224 -2.041482,2.246563 a 3.188068,3.188068 0 0 1 -2.1347,-0.792356 z m -0.125845,-2.484269 c 2.978327,0 3.477045,-3.155441 3.481707,-5.812165 0.0047,-2.656723 -0.466093,-5.826147 -3.44908,-5.835469 -2.982988,-0.0093 -3.481706,3.160102 -3.486367,5.812164 -0.0047,2.652063 0.494057,5.83547 3.45374,5.83547 z"
     id="path87"
     style="fill:#013b75;stroke-width:0.466092" />
  <path
     class="cls-1"
     d="m 44.405554,16.233978 a 2.8291774,2.8291774 0 0 0 2.330461,1.062689 5.527849,5.527849 0 0 0 3.728734,-1.668608 2.7173153,2.7173153 0 0 0 2.330459,1.668608 3.0529014,3.0529014 0 0 0 0.992776,-1.538103 2.6007923,2.6007923 0 0 1 -0.675833,-1.938942 V 13.70776 c 0,-2.721976 0.03263,-5.42997 0.03263,-8.151946 a 7.1405267,7.1405267 0 0 0 -2.964344,0 v 7.923561 a 3.817292,3.817292 0 0 1 -2.330459,1.06735 c -0.932183,0 -1.2165,-0.563971 -1.2165,-1.864367 0,-1.813097 0,-3.621534 0,-5.425308 0,-1.235144 -0.419484,-1.915638 -1.626662,-1.920299 a 3.1041715,3.1041715 0 0 0 -1.910977,0.647868 c 0.885575,1.398275 0.466092,3.621533 0.466092,5.196923 0,0.522023 -0.03729,1.081333 -0.03729,1.649966 0.01864,1.216499 0.130507,2.451642 0.880913,3.40247 z"
     id="path89"
     style="fill:#013b75;stroke-width:0.466092" />
  <path
     class="cls-1"
     d="m 64.33564,17.324633 a 2.7592635,2.7592635 0 0 1 -2.209273,-1.337684 4.8193894,4.8193894 0 0 1 -3.44908,1.454207 3.3698438,3.3698438 0 0 1 -3.486367,-3.50035 c 0,-2.721976 2.106735,-3.924493 4.553717,-3.919832 0.536006,0 1.253787,0 1.952925,0.07457 V 9.470981 c 0,-1.221161 -0.577954,-1.77581 -1.719879,-1.77581 A 11.395945,11.395945 0 0 0 56.430725,8.496849 4.0829643,4.0829643 0 0 1 55.652351,6.329522 14.942904,14.942904 0 0 1 60.751395,5.290137 c 2.144021,0 3.980423,1.160568 3.971101,3.952458 v 4.777442 c 0,0.76439 0.163133,1.347005 0.647868,1.715217 a 3.2626427,3.2626427 0 0 1 -1.034724,1.589374 z m -2.6474,-3.202051 v -2.022839 c -0.577953,-0.04661 -1.207177,-0.06525 -1.673269,-0.07457 -1.211839,0 -1.82242,0.675833 -1.82242,1.747844 a 1.2677697,1.2677697 0 0 0 1.300397,1.398276 3.2626427,3.2626427 0 0 0 2.195292,-1.048707 z"
     id="path91"
     style="fill:#013b75;stroke-width:0.466092" />
  <path
     class="cls-1"
     d="m 72.007512,14.919599 a 4.329993,4.329993 0 0 1 0.251689,1.468189 3.2626427,3.2626427 0 0 1 -0.07458,0.675833 15.618737,15.618737 0 0 1 -2.260545,0.20042 c -1.813097,0 -2.600792,-0.932184 -2.596131,-2.84316 L 67.365235,0.172454 67.528368,0 h 1.165227 c 1.230482,0 1.659286,0.549988 1.645304,1.896993 l -0.0233,11.941273 c 0,0.699138 0.270333,1.072011 0.969471,1.072011 z"
     id="path93"
     style="fill:#013b75;stroke-width:0.466092" />
  <path
     class="cls-1"
     d="m 77.451464,17.175483 a 9.9883476,9.9883476 0 0 1 -1.519459,0.102541 10.342578,10.342578 0 0 1 -1.533443,-0.111863 l 0.02797,-8.105337 c 0,-0.792355 -0.25635,-1.281751 -1.053367,-1.286412 H 73.074866 A 3.7287346,3.7287346 0 0 1 72.935038,6.725705 4.3812631,4.3812631 0 0 1 73.079527,5.63505 17.00769,17.00769 0 0 1 74.850676,5.527849 h 0.391517 c 1.374971,0 2.23724,0.932183 2.23724,2.446982 z M 73.983741,1.11862 a 3.6541598,3.6541598 0 0 1 1.514798,-0.298299 3.7287346,3.7287346 0 0 1 1.514799,0.30296 3.3139128,3.3139128 0 0 1 0.233046,1.2165 A 3.1740853,3.1740853 0 0 1 76.999355,3.546958 3.3791657,3.3791657 0 0 1 75.489217,3.868562 3.4677231,3.4677231 0 0 1 73.97908,3.537637 3.0482405,3.0482405 0 0 1 73.750695,2.33512 3.1041715,3.1041715 0 0 1 73.983741,1.11862 Z"
     id="path95"
     style="fill:#013b75;stroke-width:0.466092" />
  <path
     class="cls-1"
     d="M 86.903806,6.697739 A 4.4558378,4.4558378 0 0 1 86.768639,7.81636 L 83.944123,7.76509 v 6.115124 c 0,0.685155 0.279655,1.072012 0.997436,1.076673 h 1.440224 a 4.8193894,4.8193894 0 0 1 0.237707,1.468189 2.279189,2.279189 0 0 1 -0.06991,0.680494 22.144022,22.144022 0 0 1 -2.796551,0.195759 c -1.864368,0 -2.796551,-0.932184 -2.796551,-2.843161 V 7.76975 h -1.766491 a 4.4651597,4.4651597 0 0 1 -0.116523,-1.123281 4.0783034,4.0783034 0 0 1 0.121183,-1.06735 l 1.77115,0.03263 v -1.67793 c 0,-1.351666 0.424143,-1.864367 1.654625,-1.864367 h 1.174552 l 0.158471,0.139827 v 3.425775 l 2.829178,-0.04195 a 4.9359124,4.9359124 0 0 1 0.121183,1.104638 z"
     id="path97"
     style="fill:#013b75;stroke-width:0.466092" />
  <path
     class="cls-1"
     d="m 96.868853,17.417851 a 2.731298,2.731298 0 0 1 -2.199957,-1.333022 4.8846423,4.8846423 0 0 1 -3.458401,1.449545 3.3791657,3.3791657 0 0 1 -3.486367,-3.505011 c 0,-2.717315 2.111396,-3.919832 4.558378,-3.919832 0.531344,0 1.253787,0 1.957586,0.07457 V 9.554877 c 0,-1.211839 -0.573293,-1.766488 -1.719879,-1.771149 A 11.684922,11.684922 0 0 0 88.977914,8.590067 4.1109298,4.1109298 0 0 1 88.185559,6.418079 15.022139,15.022139 0 0 1 93.312568,5.378695 c 2.139362,0 3.975765,1.160568 3.966444,3.952458 v 4.77278 c 0,0.773713 0.158473,1.356328 0.652525,1.72454 a 3.2626427,3.2626427 0 0 1 -1.062684,1.589373 z M 94.226108,14.2158 v -2.027499 c -0.577954,-0.04661 -1.211838,-0.07457 -1.67793,-0.07457 -1.211839,0 -1.813097,0.671172 -1.822419,1.738523 a 1.2770915,1.2770915 0 0 0 1.300397,1.398275 3.2626427,3.2626427 0 0 0 2.199952,-1.034724 z"
     id="path99"
     style="fill:#013b75;stroke-width:0.466092" />
  <path
     class="cls-1"
     d="m 99.791245,14.323001 a 7.5926357,7.5926357 0 0 0 3.234675,1.01142 c 1.09532,0 1.70124,-0.466092 1.72454,-1.109299 0,-0.55931 -0.41016,-1.006758 -1.25379,-1.314379 l -1.30039,-0.489396 c -1.62666,-0.60592 -2.931717,-1.589373 -2.927056,-3.435097 0,-2.227919 1.785126,-3.626194 4.339306,-3.616872 a 10.808669,10.808669 0 0 1 4.05967,0.932183 3.1181543,3.1181543 0 0 1 -0.8716,2.144023 8.2265208,8.2265208 0 0 0 -3.19273,-0.815661 c -0.81565,0 -1.30505,0.433466 -1.30505,1.039384 0,0.512702 0.37287,0.838966 1.16057,1.146586 l 1.39827,0.512701 c 1.75251,0.65719 3.02494,1.752506 3.02028,3.640178 0,2.23258 -1.86437,3.630855 -4.60033,3.621533 a 9.1959919,9.1959919 0 0 1 -4.418546,-1.151247 3.7007691,3.7007691 0 0 1 0.932181,-2.116057 z"
     id="path101"
     style="fill:#013b75;stroke-width:0.466092" />
  <path
     class="cls-1"
     d="m 49.467313,32.957353 -1.11862,3.630854 a 6.0591937,6.0591937 0 0 1 -1.347006,0.116522 5.182941,5.182941 0 0 1 -1.491496,-0.214402 l -0.116523,-0.167793 5.238874,-15.656023 a 14.518761,14.518761 0 0 1 1.817759,-0.121184 12.878117,12.878117 0 0 1 1.789792,0.14915 l 5.047774,15.69331 a 3.9151713,3.9151713 0 0 1 -1.78047,0.386856 c -1.002098,0 -1.500816,-0.35423 -1.864368,-1.67793 L 54.98584,32.971335 c -0.344908,0 -0.904218,0 -1.137264,0 h -3.262643 c -0.209741,0.01398 -0.750408,0.0093 -1.11862,-0.01398 z m 0.773712,-2.460965 c 0.330925,0 0.824983,-0.0233 1.053368,-0.0233 h 1.999533 c 0.214403,0 0.652529,0.0233 0.978794,0.0233 l -0.694478,-2.38173 c -0.386856,-1.328361 -0.899556,-3.127476 -1.239804,-4.52109 H 52.19395 c -0.237707,1.188534 -0.727104,2.866465 -1.034724,3.933815 z"
     id="path103"
     style="fill:#013b75;stroke-width:0.466092" />
  <path
     class="cls-1"
     d="m 59.917091,27.723141 a 4.1668609,4.1668609 0 0 0 -0.466092,-2.213936 3.0622232,3.0622232 0 0 1 1.906316,-0.643206 c 1.211838,0 1.63132,0.675833 1.63132,1.910976 v 5.42997 c 0,1.295735 0.256351,1.864367 1.207178,1.864367 a 3.4956886,3.4956886 0 0 0 2.302493,-1.072011 l 0.0233,-7.923561 a 7.5786533,7.5786533 0 0 1 1.514798,-0.116523 8.2684688,8.2684688 0 0 1 1.538103,0.121184 v 8.268469 a 2.5541832,2.5541832 0 0 0 0.638546,1.934281 2.9223957,2.9223957 0 0 1 -1.025402,1.53344 2.7406199,2.7406199 0 0 1 -2.353764,-1.659285 5.4998835,5.4998835 0 0 1 -3.728734,1.668608 c -2.162665,0 -3.183406,-1.705895 -3.178745,-3.989746 z"
     id="path105"
     style="fill:#013b75;stroke-width:0.466092" />
  <path
     class="cls-1"
     d="M 78.69593,26.147751 A 4.4511769,4.4511769 0 0 1 78.551441,27.26171 L 75.75489,27.20578 v 6.124447 c 0,0.675833 0.274994,1.081332 0.997436,1.081332 h 1.426241 a 4.9592169,4.9592169 0 0 1 0.219063,1.463527 2.2372407,2.2372407 0 0 1 -0.06525,0.680494 20.974132,20.974132 0 0 1 -2.796551,0.205081 c -1.864368,0 -2.796551,-0.932184 -2.796551,-2.85248 v -6.683757 h -1.77115 a 4.4838033,4.4838033 0 0 1 -0.111862,-1.123282 4.6003263,4.6003263 0 0 1 0.116523,-1.072011 l 1.771149,0.03263 v -1.673273 c 0,-1.356327 0.424143,-1.864367 1.663947,-1.864367 h 1.160569 l 0.158471,0.139827 V 25.0804 l 2.796551,-0.03729 a 4.6609182,4.6609182 0 0 1 0.172454,1.104639 z"
     id="path107"
     style="fill:#013b75;stroke-width:0.466092" />
  <path
     class="cls-1"
     d="m 88.124967,35.674666 a 4.9219296,4.9219296 0 0 1 -3.560942,1.314379 4.8613377,4.8613377 0 0 1 -3.542298,-1.333023 c -1.235143,-1.235142 -1.649964,-2.796549 -1.640643,-4.777439 0.0093,-1.980891 0.428805,-3.565603 1.668609,-4.800746 a 5.4625961,5.4625961 0 0 1 7.098578,0 c 1.235144,1.249127 1.649965,2.829178 1.640643,4.810068 -0.0093,1.98089 -0.424143,3.556281 -1.663947,4.786761 z m -3.542298,-0.988113 c 1.701235,0 2.078769,-1.761828 2.088091,-3.789326 0.0093,-2.0275 -0.368212,-3.821953 -2.069448,-3.826615 -1.701235,-0.0047 -2.092752,1.766489 -2.097412,3.817293 -0.0047,2.050803 0.35889,3.793987 2.078769,3.798648 z"
     id="path109"
     style="fill:#013b75;stroke-width:0.466092" />
  <path
     class="cls-1"
     d="m 16.934102,13.670473 a 2.8431601,2.8431601 0 0 1 4.814728,2.064787 2.9177348,2.9177348 0 0 1 -0.526683,1.631321 l 1.319039,1.183873 c 0,0 -0.368212,1.994873 -1.803775,2.614775 a 11.260778,11.260778 0 0 0 -6.50198,-3.383826 c 0,0 -0.261012,-1.235143 1.244464,-2.158005 1.505477,-0.922862 1.892333,-1.095316 2.209276,-1.598695 z"
     id="path111"
     style="fill:#013b75;stroke-width:0.466092" />
  <path
     class="cls-1"
     d="m 21.315365,24.395246 c -0.247029,0 -0.526684,0 -0.834304,0.02796 -1.030063,0.02797 -1.799115,0.195762 -1.948264,-0.466088 -0.130506,-0.559311 0.466092,-2.922396 0.601258,-3.626195 a 10.15148,10.15148 0 0 0 -4.847354,-2.08343 c 0,0 -0.03729,0.932183 -0.121185,1.463528 -0.0839,0.531345 -0.466091,1.398275 -0.330925,1.561407 0.135167,0.163132 0.536006,0.03263 0.643207,0.20042 0.139828,0.237707 -0.07924,0.340247 0.06059,0.466092 0.139828,0.125845 -0.135167,0.25635 0.130506,0.466092 0.265672,0.209741 -0.03729,0.363551 -0.09322,0.536005 -0.05593,0.172454 0,0.522023 0.629224,0.615242 0.801678,0.125844 0.96481,-0.153811 1.044045,-0.06059 a 6.5252855,6.5252855 0 0 1 -0.02796,1.864368 1.3423444,1.3423444 0 0 0 -0.466093,0.899557 3.4537404,3.4537404 0 0 0 0.288977,1.864367 c 0,0 3.570264,-2.027499 4.735494,-2.456304 1.165229,-0.428804 1.468189,-0.517362 1.468189,-0.517362 a 4.9126078,4.9126078 0 0 1 -0.932183,-0.755068 z"
     id="path113"
     style="fill:#013b75;stroke-width:0.466092" />
  <path
     class="cls-1"
     d="M 26.004248,15.739921 A 7.1079003,7.1079003 0 0 0 13.391804,11.237473 c 0,0 0.377535,0.153811 1.123281,0.536006 a 5.9053833,5.9053833 0 0 1 10.291307,3.966441 5.7888604,5.7888604 0 0 1 -0.76439,2.880448 l 1.053367,0.591936 a 6.9913773,6.9913773 0 0 0 0.908879,-3.472383 z"
     id="path115"
     style="fill:#013b75;stroke-width:0.466092" />
  <path
     class="cls-1"
     d="m 18.90567,12.216266 a 3.5189932,3.5189932 0 0 1 3.048241,5.234211 l 1.570729,0.876253 a 5.2248893,5.2248893 0 0 0 0.680494,-2.591471 5.299464,5.299464 0 0 0 -9.14006,-3.668142 c 0.466092,0.237707 1.002097,0.540666 1.649965,0.908879 a 3.5842461,3.5842461 0 0 1 2.190631,-0.75973 z"
     id="path117"
     style="fill:#013b75;stroke-width:0.466092" />
  <path
     class="cls-1"
     d="m 35.610401,25.243533 c -2.847821,0.76439 -5.103706,-0.466092 -7.396877,-0.932184 a 21.598695,21.598695 0 0 0 -3.309252,-0.438127 c -0.167793,0 -0.344908,0.03263 -0.274994,0.05593 1.533442,0.694477 2.978326,1.347005 3.146119,1.398275 v 0 h 0.0233 c 1.11396,0.494058 4.329994,1.771149 5.821487,1.771149 a 1.8643672,1.8643672 0 0 0 0.233046,0 23.085528,23.085528 0 0 0 2.596131,-0.587276 14.87299,14.87299 0 0 1 2.633419,-0.563971 l 1.230482,-0.08856 -0.694476,1.025403 c -0.181776,0.270336 -0.568632,0.871595 -0.885575,1.440227 H 39.6654 a 2.0135166,2.0135166 0 0 0 0.960149,-0.163132 c 0.797017,-0.466092 0.806338,-2.694011 1.085994,-3.262643 a 4.7587975,4.7587975 0 0 1 0.792356,-1.081333 c -2.493591,-0.135167 -4.036355,0.666512 -6.893498,1.426241 z"
     id="path119"
     style="fill:#013b75;stroke-width:0.466092" />
  <path
     class="cls-1"
     d="m 38.975583,31.773479 c -0.130505,0.251689 -0.708458,1.794454 -1.123281,3.104172 -0.414821,1.309716 -0.03263,1.864365 -1.635982,1.398273 -1.603355,-0.466091 -5.485901,-3.346538 -6.707061,-4.609646 -0.671172,-0.689816 -1.556747,-1.57073 -2.297833,-2.213937 -0.237707,-0.536005 -0.582615,-1.160567 -0.829643,-1.710556 -0.03729,-0.06991 0.06059,-0.102541 0.144488,-0.05127 a 39.990678,39.990678 0 0 0 6.124447,3.518993 24.022372,24.022372 0 0 0 4.865998,1.3237 l 0.633885,0.05127 a 6.3341878,6.3341878 0 0 1 -0.03729,-2.614774 c 1.183874,0.04661 1.82242,0.07924 2.064787,0.228385 0.242368,0.149149 0.829643,0.466091 0.65719,1.794453 -0.172454,1.328362 -0.326264,2.48893 -0.326264,2.48893 l -1.710557,-0.652528 a 15.511535,15.511535 0 0 1 0.498718,-1.677931 c 0.219063,-0.573293 0.01864,-0.988114 -0.321604,-0.377534 z"
     id="path121"
     style="fill:#013b75;stroke-width:0.466092" />
  <path
     class="cls-1"
     d="m 22.956008,19.296201 a 6.0918201,6.0918201 0 0 1 -0.35423,0.801678 5.7655558,5.7655558 0 0 1 -1.645304,1.454207 l -0.4055,0.172454 -0.284316,-0.330926 a 7.0379864,7.0379864 0 0 0 -0.71312,-0.741086 c 0,0.05127 -0.680494,2.619436 -0.363552,3.080867 0.177115,0.265673 2.358425,0.06059 2.358425,0.06059 l 0.675833,0.638546 0.330925,0.265672 c 0,0 0.191098,0.130505 0.428805,0.274994 0.209741,-0.05127 0.377534,-0.0839 0.503379,-0.111862 -0.08856,-0.186436 -0.186437,-0.424143 -0.293638,-0.71778 -0.293638,-0.834305 -0.02797,-1.552086 0.06059,-2.605454 a 6.4134234,6.4134234 0 0 0 -0.298299,-2.241902 z"
     id="path123"
     style="fill:#013b75;stroke-width:0.466092" />
  <path
     class="cls-1"
     d="m 10.595253,39.711021 a 45.905383,45.905383 0 0 1 1.258448,-5.159635 c 0.35423,-0.997437 0.894897,-2.199954 0.894897,-2.199954 0,0 -0.20042,-1.430901 -0.247029,-2.064786 -0.04661,-0.633885 0.852947,-1.398276 1.277091,-1.864367 a 13.181077,13.181077 0 0 0 1.076672,-1.635982 3.2346772,3.2346772 0 0 0 0.186437,-0.792357 c 0,-0.107201 -1.230482,0.466092 -2.255884,2.633419 a 51.2701,51.2701 0 0 0 -2.358425,6.525286 l -0.410161,1.976227 c 0,0 -0.1677933,0.531345 -0.5173623,1.454207 -0.125844,0.330925 -0.279655,0.806339 -0.438126,1.333022 h 1.4914943 z"
     id="path125"
     style="fill:#013b75;stroke-width:0.466092" />
  <path
     class="cls-1"
     d="m 2.3687327,32.351432 a 1.2164997,1.2164997 0 0 0 0.368212,0.14915 1.0580284,1.0580284 0 0 1 0.75973,0.563971 c 0.363551,0.55465 1.11396,2.843159 2.102074,3.663481 0.988115,0.820321 2.060126,1.3237 2.64274,1.263108 a 1.1559077,1.1559077 0 0 0 1.048707,-0.983453 l 0.414822,-1.98555 v 0 a 51.684922,51.684922 0 0 1 2.3863903,-6.632487 c 0.694477,-1.454206 2.223258,-2.759263 2.223258,-2.796551 a 3.020275,3.020275 0 0 0 -1.11396,0.466092 c -0.536005,0.340247 -1.691913,1.910976 -2.064787,2.880447 -0.372873,0.969472 -0.130505,1.31438 -0.857609,2.008856 A 9.4523423,9.4523423 0 0 0 8.3207247,34.16453 c -0.04195,0.125845 -0.144488,0.04195 -0.372873,-0.195759 -0.228386,-0.237707 -1.398276,-1.058028 -1.952925,-1.491493 a 12.384059,12.384059 0 0 1 -1.743184,-1.622 8.0540664,8.0540664 0 0 1 -0.270333,-1.37031 1.7758098,1.7758098 0 0 0 -1.398275,-1.426241 c -0.377534,-0.05127 -0.871592,0.466092 -1.328362,0.582615 -0.45676999,0.116523 -0.63388399,0.489396 -0.05127,0.601258 a 1.5614076,1.5614076 0 0 0 0.992775,-0.20508 h 0.03263 a 2.3677464,2.3677464 0 0 0 0.135166,1.132603 c 0.223724,0.391517 0.330925,0.433465 0.330925,0.433465 a 1.5986949,1.5986949 0 0 0 -0.316942,0.610581 5.6490329,5.6490329 0 0 0 -0.10254,0.932183 0.25168958,0.25168958 0 0 0 0.09322,0.20508 z"
     id="path127"
     style="fill:#013b75;stroke-width:0.466092" />
  <path
     class="cls-1"
     d="m 2.1310257,27.755767 0.03729,-14.914938 h -0.773712 l -0.04195,15.283151 v 0 a 2.4516429,2.4516429 0 0 1 0.778372,-0.368213 z"
     id="path129"
     style="fill:#013b75;stroke-width:0.466092" />
  <path
     class="cls-1"
     d="m 1.3386697,11.442554 c 0,0 -0.68049399,-1.365649 -0.81099899,-1.612678 -0.130507,-0.247028 0.93218299,-5.248194 1.22115899,-6.418084 0.298299,1.174551 1.319041,6.185038 1.188535,6.427406 -0.130506,0.242368 -0.820322,1.603356 -0.820322,1.603356"
     id="path131"
     style="fill:#013b75;stroke-width:0.466092" />
  <path
     class="cls-1"
     d="M 2.6716917,12.146353 A 0.32160335,0.32160335 0 0 0 2.3500887,11.82941 h -1.244465 a 0.33092519,0.33092519 0 0 0 -0.32626399,0.321603 v 0 a 0.32626427,0.32626427 0 0 0 0.32626399,0.321604 h 1.244465 a 0.31694244,0.31694244 0 0 0 0.321603,-0.316943 z"
     id="path133"
     style="fill:#013b75;stroke-width:0.466092" />
  <path
     class="cls-1"
     d="m 0.25267571,28.189233 a 0.98811464,0.98811464 0 0 0 0,0.815661 0.61058028,0.61058028 0 0 0 -0.219063,0.694476 1.0533675,1.0533675 0 0 0 0.135166,0.25169 0.93218366,0.93218366 0 0 0 0,0.433465 c 0.06059,0.233046 0.116523,0.340247 0.270333,0.424144 a 1.2864134,1.2864134 0 0 0 0.04661,0.671172 0.80167795,0.80167795 0 0 0 0.466091,0.466093 v -2.283851 c 0,0 -0.466091,-0.288977 -0.466091,-0.671172 a 1.0953158,1.0953158 0 0 1 0.400838,-0.722443 v -0.559309 a 1.3982755,1.3982755 0 0 0 -0.633884,0.480074 z"
     id="path135"
     style="fill:#013b75;stroke-width:0.466092" />
  <path
     class="cls-1"
     d="m 2.1170427,32.808203 h -0.03263 a 0.68981589,0.68981589 0 0 1 -0.265671,-0.512701 3.9944069,3.9944069 0 0 1 0.125844,-1.225822 2.0694477,2.0694477 0 0 1 0.153811,-0.414821 c -0.03263,-0.05593 -0.06059,-0.121184 -0.09788,-0.186437 a 2.5402004,2.5402004 0 0 1 -0.20042,-0.792356 1.9995339,1.9995339 0 0 1 -0.382195,0.04195 0.37287346,0.37287346 0 0 1 -0.06991,0 l -0.03263,10.254018 h 0.778374 z"
     id="path137"
     style="fill:#013b75;stroke-width:0.466092" />
  <path
     class="cls-1"
     d="m 27.141512,31.745514 c -0.139827,-0.750409 -0.242367,-1.333023 -0.30762,-1.542764 a 8.3383824,8.3383824 0 0 0 -1.468189,-2.852483 1.1838732,1.1838732 0 0 0 -1.263109,-0.214402 c -0.741086,0.340248 -0.792356,2.0275 -0.843626,4.194826 0.10254,0 0.577953,0 0.955488,0 a 11.060359,11.060359 0 0 1 2.927056,0.414823 z"
     id="path139"
     style="fill:#013b75;stroke-width:0.466092" />
  <path
     class="cls-1"
     d="M 24.214456,31.899324 A 10.864601,10.864601 0 0 0 13.694763,39.95339 h 2.973666 A 8.0121184,8.0121184 0 0 1 31.704551,40 h 2.982988 A 10.85994,10.85994 0 0 0 24.214456,31.899324 Z"
     id="path141"
     style="fill:#013b75;stroke-width:0.466092" />
  <path
     class="cls-1"
     d="m 29.075793,32.099744 c -0.391517,-0.414822 -0.899557,-0.885575 -1.398275,-1.333023 -0.08856,-0.07457 -0.20508,-0.05593 -0.181776,0.03263 0.08856,0.330926 0.181776,0.713121 0.274994,1.118621 a 10.720112,10.720112 0 0 1 2.167327,0.978793 c -0.344908,-0.288981 -0.643206,-0.577957 -0.86227,-0.797021 z"
     id="path143"
     style="fill:#013b75;stroke-width:0.466092" />
  <path
     class="cls-1"
     d="m 34.156194,37.198786 a 25.63505,25.63505 0 0 0 5.723608,1.799115 c 0,0 -1.081333,-2.209276 -1.034724,-3.472384 a 0.77371239,0.77371239 0 0 0 -0.35423,-0.689815 c 0,0.07458 -0.04661,0.15381 -0.06525,0.223724 a 6.7629923,6.7629923 0 0 0 -0.181776,0.71778 c -0.10254,0.503379 -0.261011,1.26777 -1.188533,1.26777 A 3.6261943,3.6261943 0 0 1 36.053188,36.8632 c -0.894896,-0.261012 -2.381729,-1.16523 -3.775344,-2.171986 a 11.489164,11.489164 0 0 1 1.87835,2.507572 z"
     id="path145"
     style="fill:#013b75;stroke-width:0.466092" />
  <path
     class="cls-1"
     d="m 11.093971,39.944067 c 0.685156,0 1.347005,0 2.0275,0 a 11.507807,11.507807 0 0 1 5.448613,-7.140525 c 1.351666,-0.531345 2.656724,-1.174552 4.11093,-1.360989 0,-0.312281 0,-0.792355 0,-1.3237 0.06525,-1.794453 0.386856,-4.194826 2.428338,-3.374505 a 12.584479,12.584479 0 0 0 -1.356327,-1.333023 14.956887,14.956887 0 0 0 -2.796551,0.792357 c -1.104637,0.438126 -3.528315,2.139362 -5.001165,3.430435 -2.255884,1.980891 -3.551619,4.805407 -4.320671,7.713819 -0.20042,0.852947 -0.391517,1.743183 -0.540667,2.596131 z"
     id="path147"
     style="fill:#013b75;stroke-width:0.466092" />
  <path
     class="cls-1"
     d="m 26.675421,25.490561 -2.735959,-1.230483 c -0.05593,-0.02796 -0.03263,0.223725 0.07924,0.349569 0.638545,0.671172 1.705896,1.743184 1.719879,1.761828 l 0.237706,0.177115 c 1.123282,0.787695 4.600327,3.164763 6.90282,4.087625 a 21.621999,21.621999 0 0 0 4.549056,1.249126 6.9354463,6.9354463 0 0 1 0.30296,-2.796551 13.409462,13.409462 0 0 1 1.347005,-2.451643 c 0.03729,-0.05593 -0.05593,-0.06991 -0.107201,-0.06991 -1.356327,0.149149 -3.318574,0.894896 -5.02447,1.132603 -1.333023,0.181776 -4.246096,-0.932184 -5.630389,-1.482173"
     id="path149"
     style="fill:#013b75;stroke-width:0.466092" />
</svg>
