<svg width="150" height="37" viewBox="0 0 150 37" fill="none" xmlns="http://www.w3.org/2000/svg">
<path d="M0.00056076 25.2136V36.1161H29.5964C21.3164 30.3215 11.7903 26.6976 0.00056076 25.2136Z" fill="#001689"/>
<path d="M27.9909 0C29.3783 2.04928 30.1927 4.70796 30.1653 7.28899C30.1094 13.1632 25.0216 18.1246 18.6988 18.4333C24.2267 20.3525 30.1695 23.3497 36.1191 27.5625V0H27.9909Z" fill="#001689"/>
<path d="M26.152 7.01129C26.152 3.55762 24.2395 1.261 22.7664 0.000565271H0.00130844V14.2091C13.2532 15.3965 26.152 16.5069 26.152 7.01129Z" fill="#001689"/>
<path d="M0.00056076 21.3114C14.9742 22.4928 28.666 29.7502 36.1203 36.1137V32.4071C19.2519 19.0283 0.00056076 18.1969 0.00056076 18.1969V21.3114Z" fill="#001689"/>
<path d="M30.1653 7.28899C30.1932 4.70796 29.3771 2.04931 27.9921 2.90429e-05H22.7675C24.2401 1.26046 26.1526 3.55638 26.1526 7.00997C26.1526 16.5086 13.2543 15.3959 0 14.2103V18.1958C0 18.1958 19.2538 19.0295 36.1204 32.4059V27.5625C30.1702 23.3497 24.226 20.3524 18.6988 18.4333C25.0233 18.1245 30.1092 13.1631 30.1653 7.28899Z" fill="#ECAA00"/>
<path d="M61.3747 6.04736C61.3747 5.31868 61.1432 4.74389 60.674 4.30261C60.2043 3.83286 59.5521 3.62268 58.7718 3.62268H50.0675V8.5749H58.7718C59.6032 8.5749 60.2297 8.33915 60.7008 7.89796C61.1432 7.45421 61.3747 6.83067 61.3747 6.04736ZM61.2453 18.8684L57.365 12.1969H50.0675V18.8684H46.2103V1.46158C46.2103 1.1741 46.1586 0.940722 46.028 0.810112C45.8973 0.653326 45.664 0.548188 45.3249 0.445509V0.00176601H59.1875C60.9863 0.00176601 62.4442 0.576119 63.5401 1.72114C64.6357 2.84235 65.1803 4.32817 65.1803 6.17806C65.1803 9.17525 63.9837 11.0776 61.5588 11.8602L65.5983 18.8684H61.2453Z" fill="#001689"/>
<path d="M86.9134 18.8684H69.1145V1.4616C69.1145 1.17412 69.0629 0.966215 68.9322 0.810132C68.8016 0.653346 68.5677 0.548208 68.2292 0.445442V0.00178596H86.2875V3.62261H72.9711V7.47971H82.223V11.1031H72.9711V15.2477H86.9134V18.8684Z" fill="#001689"/>
<path d="M99.2646 3.41479L95.7976 11.182H102.731L99.2646 3.41479ZM106.17 18.8684L104.371 14.804H94.2067L92.3848 18.8684H88.5014L95.8511 2.37307C96.059 1.98238 96.1622 1.61839 96.1622 1.35647C96.1622 0.915272 95.8768 0.627789 95.3821 0.445443V0.0017889H101.687L110.078 18.8684H106.17Z" fill="#001689"/>
<path d="M128.345 18.8684H112.291V1.4616C112.291 1.17412 112.214 0.940743 112.083 0.810132C111.953 0.653346 111.745 0.548208 111.406 0.445442V0.00178596H116.149V15.2477H128.345V18.8684Z" fill="#001689"/>
<path d="M148.695 18.8684H130.896V1.4616C130.896 1.17412 130.845 0.966215 130.713 0.810132C130.582 0.653346 130.349 0.548208 130.01 0.445442V0.00178596H148.071V3.62261H134.755V7.47971H144.004V11.1031H134.755V15.2477H148.695V18.8684Z" fill="#001689"/>
<path d="M58.2652 32.2905C58.2652 33.6088 57.7631 34.6433 56.7424 35.3606C55.7227 36.0946 54.2501 36.463 52.3253 36.463C49.7632 36.463 47.5548 35.7118 45.7141 34.1914L47.0712 32.2249C48.777 33.4741 50.5693 34.0924 52.441 34.0924C53.4295 34.0924 54.2333 33.9427 54.8183 33.6255C55.3686 33.3077 55.638 32.9059 55.638 32.4062C55.638 31.9197 55.3352 31.606 54.7192 31.4546C54.368 31.3711 53.5137 31.2865 52.1571 31.2196C50.1151 31.1184 48.6273 30.8022 47.7061 30.268C46.7343 29.7171 46.2341 28.849 46.2341 27.6649C46.2341 26.4616 46.7343 25.5088 47.7061 24.8255C48.693 24.1393 50.0978 23.7905 51.9217 23.7905C54.3997 23.7905 56.3905 24.3754 57.8966 25.5595L56.2391 27.8646L56.0208 27.6816C56.04 27.6315 56.04 27.5807 56.0566 27.5468C56.0899 27.3643 55.8551 27.1139 55.5368 26.9475C54.4164 26.4109 53.2447 26.1438 52.0248 26.1438C49.8813 26.1438 48.8104 26.5624 48.8104 27.4145C48.8104 27.8312 49.0966 28.115 49.6964 28.2814C50.0644 28.3988 50.6344 28.4662 51.3874 28.5002C52.5251 28.5652 53.2447 28.6159 53.5477 28.6492C55.1861 28.8323 56.3737 29.1835 57.0942 29.7171C57.8799 30.268 58.2652 31.1374 58.2652 32.2905Z" fill="#001689"/>
<path d="M150 32.2905C150 33.6088 149.498 34.6433 148.477 35.3606C147.458 36.0946 145.985 36.463 144.06 36.463C141.498 36.463 139.29 35.7118 137.449 34.1914L138.806 32.2249C140.512 33.4741 142.304 34.0924 144.176 34.0924C145.164 34.0924 145.968 33.9427 146.553 33.6255C147.103 33.3077 147.373 32.9059 147.373 32.4062C147.373 31.9197 147.07 31.606 146.454 31.4546C146.103 31.3711 145.248 31.2865 143.892 31.2196C141.85 31.1184 140.362 30.8022 139.441 30.268C138.469 29.7171 137.969 28.849 137.969 27.6649C137.969 26.4616 138.469 25.5088 139.441 24.8255C140.428 24.1393 141.833 23.7905 143.656 23.7905C146.134 23.7905 148.125 24.3754 149.631 25.5595L147.974 27.8646L147.756 27.6816C147.775 27.6315 147.775 27.5807 147.791 27.5468C147.825 27.3643 147.59 27.1139 147.271 26.9475C146.151 26.4109 144.98 26.1438 143.76 26.1438C141.616 26.1438 140.545 26.5624 140.545 27.4145C140.545 27.8312 140.831 28.115 141.431 28.2814C141.799 28.3988 142.369 28.4662 143.122 28.5002C144.26 28.5652 144.98 28.6159 145.282 28.6492C146.921 28.8323 148.109 29.1835 148.829 29.7171C149.615 30.268 150 31.1374 150 32.2905Z" fill="#001689"/>
<path d="M72.7996 36.4631H61.37V25.3091C61.37 25.126 61.3361 24.9937 61.252 24.8923C61.1697 24.7915 61.0206 24.7241 60.8018 24.6591V24.3729H72.3976V26.6953H63.8457V29.1668H69.7873V31.4885H63.8457V34.1407H72.7996V36.4631Z" fill="#001689"/>
<path d="M87.952 30.0208C87.952 31.8539 87.358 33.3574 86.1511 34.4988C84.7956 35.8015 83.0283 36.4631 80.8969 36.4631C78.8325 36.4631 77.1309 35.8015 75.8076 34.4798C74.6518 33.3408 74.0741 31.8873 74.0741 30.1185C74.0741 28.3837 74.6518 26.9468 75.8076 25.7909C77.1631 24.4695 78.8645 23.7904 80.8969 23.7904C83.5232 23.7904 85.4742 24.7491 86.747 26.6329L83.5566 27.9886L83.4571 27.7893C83.5077 27.7233 83.5566 27.6744 83.5738 27.6237C83.6562 27.5242 83.6733 27.3608 83.6392 27.2612C83.5738 27.0282 83.2933 26.8138 82.9797 26.6329C82.3667 26.3023 81.658 26.1199 80.8794 26.1199C79.575 26.1199 78.5165 26.4999 77.6932 27.2612C76.8812 28.0203 76.4693 28.9792 76.4693 30.1185C76.4693 31.3745 76.9487 32.3988 77.9396 33.1584C78.765 33.8049 79.7405 34.1342 80.8969 34.1342C81.8893 34.1342 82.7804 33.9024 83.5738 33.4237C84.3517 32.9775 84.9121 32.3834 85.2431 31.6223H80.3854V29.3251H87.952V30.0208Z" fill="#001689"/>
<path d="M116.84 28.3345C116.84 27.8722 116.691 27.5076 116.394 27.226C116.097 26.9302 115.683 26.7972 115.187 26.7972H109.67V29.9363H115.187C115.715 29.9363 116.114 29.788 116.411 29.5075C116.691 29.2256 116.84 28.829 116.84 28.3345ZM116.757 36.4631L114.296 32.2338H109.67V36.4631H107.224V25.4264C107.224 25.2442 107.192 25.0956 107.109 25.0132C107.026 24.9134 106.877 24.8474 106.662 24.7813V24.5015H115.452C116.593 24.5015 117.518 24.8643 118.211 25.5919C118.906 26.3026 119.254 27.2426 119.254 28.4172C119.254 30.316 118.492 31.5228 116.956 32.0194L119.517 36.4631H116.757Z" fill="#001689"/>
<path d="M133.089 30.1185C133.089 28.9286 132.69 27.9548 131.913 27.2106C131.12 26.4679 130.079 26.0883 128.774 26.0883C127.468 26.0883 126.428 26.4679 125.635 27.2106C124.858 27.9548 124.462 28.9286 124.462 30.1185C124.462 31.3425 124.843 32.3165 125.618 33.0604C126.394 33.8034 127.452 34.1662 128.759 34.1662C130.079 34.1662 131.137 33.8034 131.913 33.0604C132.69 32.3165 133.089 31.3425 133.089 30.1185ZM135.598 30.1185C135.598 31.9045 135.021 33.3574 133.863 34.4987C132.542 35.8018 130.84 36.4631 128.759 36.4631C126.693 36.4631 124.992 35.8018 123.668 34.4987C122.529 33.3574 121.95 31.9045 121.95 30.1185C121.95 28.3683 122.529 26.9133 123.685 25.7743C125.024 24.4526 126.725 23.791 128.774 23.791C130.823 23.791 132.524 24.4526 133.863 25.7743C135.021 26.9133 135.598 28.3683 135.598 30.1185Z" fill="#001689"/>
<path d="M103.342 32.0849C103.342 33.3728 102.797 34.4141 101.722 35.2225C100.597 36.0497 99.1123 36.4631 97.2622 36.4631C95.4104 36.4631 93.9238 36.0497 92.7996 35.2225C91.7261 34.4141 91.1826 33.3728 91.1826 32.0849V25.063C91.1826 24.8806 91.1317 24.7491 91.0491 24.6498C90.9837 24.5669 90.8332 24.4844 90.6191 24.4339V24.1556H93.6265V31.7034C93.6265 32.4479 93.941 33.0435 94.5854 33.4889C95.2303 33.9346 96.1212 34.1659 97.2622 34.1659C98.4015 34.1659 99.2926 33.9346 99.9545 33.4723C100.582 33.0269 100.896 32.4305 100.896 31.7034V24.1556H103.342V32.0849Z" fill="#001689"/>
</svg>
