<svg width="165" height="40" viewBox="0 0 165 40" fill="none" xmlns="http://www.w3.org/2000/svg">
<g clip-path="url(#clip0_3232_546)">
<path fill-rule="evenodd" clip-rule="evenodd" d="M33.1034 34.8285C32.2766 35.631 31.0086 35.845 29.9611 35.3456L29.9243 35.3279L19.3034 30.2633C17.7231 29.6033 16.3633 29.2645 15.2608 29.2645C14.3237 29.2645 13.5703 29.5322 13.0557 30.0313C12.4861 30.5842 12.3575 31.2976 12.3207 31.565C12.3207 31.6185 11.8062 36.9865 11.8062 37.0219C11.7327 37.7887 11.3836 38.5022 10.8323 39.0373C9.50929 40.3213 7.341 40.3213 6.01797 39.0373C4.89706 37.9493 4.69491 36.2907 5.52183 34.9713C5.55857 34.9176 5.63209 34.8107 5.63209 34.8107L7.72689 31.8147L8.13114 31.2085C9.39903 29.3893 9.82168 27.8914 9.38066 26.7679C8.8294 25.3591 8.05763 24.8241 6.34871 24.6636C6.34871 24.6636 2.32449 24.2534 1.53435 24.1642C1.11171 24.1464 0.744206 23.9859 0.468574 23.7184C-0.156191 23.1121 -0.156191 22.1313 0.468574 21.5249C0.799331 21.2039 1.27709 21.0434 1.75485 21.0791H1.79161C1.79161 21.0791 1.84673 21.0791 1.95699 21.0969C5.77909 21.5963 8.03926 21.8816 8.16789 21.8994C9.85843 21.9886 11.1263 21.1326 11.8797 20.3836C12.2656 20.0091 12.6147 19.5811 12.9271 19.0996C13.1293 18.7429 13.8091 17.3876 14.0297 15.4616V15.3368C14.1031 13.7496 13.7173 12.1446 12.8353 10.4505L12.7617 10.3078L11.3101 7.61497C11.255 7.5258 11.1447 7.25832 11.1263 7.2048C10.9793 6.79466 11.1263 6.27749 11.4755 5.93866C12.0083 5.42149 12.8904 5.42149 13.4233 5.93866C13.5703 6.08132 13.6805 6.25966 13.754 6.4558L14.8565 9.4518C15.5181 11.2708 17.374 11.5205 18.403 11.5205C20.0017 11.5205 21.8208 10.8963 23.2725 9.86197L24.8712 8.72063C25.4224 8.36397 26.1575 8.41746 26.6352 8.88115C27.1865 9.41615 27.1865 10.2721 26.6352 10.7893C26.5617 10.8606 26.4698 10.932 26.3596 11.0033C26.3228 11.0211 26.1942 11.0925 26.1575 11.1103C25.9921 11.1816 22.9969 12.5369 22.8682 12.5905C22.317 12.8401 21.8576 13.1255 21.5636 13.4108C21.3063 13.6605 21.1777 13.8923 21.1593 14.1241C21.1042 14.7126 21.8025 15.3903 22.5007 15.7469L23.8605 16.4068C24.0075 16.4781 24.1729 16.5673 24.3199 16.6921C24.8528 17.2093 24.8528 18.0653 24.3199 18.5824C23.8238 19.0639 23.0336 19.0996 22.5007 18.6716C22.0413 18.2971 21.3615 17.7443 21.3247 17.7264L21.1777 17.6194C20.5346 17.1201 19.5423 16.3889 18.6235 16.3889C18.1457 16.3889 17.7047 16.5851 17.3005 16.9774C17.0065 17.2628 16.7309 17.6551 16.4736 18.1366C16.4552 18.1723 14.9117 21.1504 16.5103 23.9502C17.227 25.2164 18.8808 26.9284 22.611 27.9271L31.8723 30.3345C32.35 30.4593 32.7726 30.6913 33.1217 31.0302C34.1691 32.0822 34.1691 33.7765 33.1034 34.8285Z" fill="url(#paint0_linear_3232_546)"/>
<path fill-rule="evenodd" clip-rule="evenodd" d="M7.83695 18.9389C8.05747 18.9389 8.27798 18.9032 8.4985 18.8319C9.04975 18.6536 9.50912 18.2791 9.76638 17.7797C10.0236 17.2804 10.0788 16.7097 9.89501 16.1747C9.60101 15.3009 8.75575 14.7124 7.81858 14.7124C7.5981 14.7124 7.37758 14.7481 7.15707 14.8194C6.60581 14.9977 6.14644 15.3722 5.88918 15.8716C5.63192 16.3709 5.57678 16.9416 5.76055 17.4766C6.03618 18.3504 6.88144 18.9389 7.83695 18.9389Z" fill="url(#paint1_linear_3232_546)"/>
<path fill-rule="evenodd" clip-rule="evenodd" d="M54.1799 20.2408C52.3976 25.1628 49.4391 31.6006 46.4622 35.6844H45.1759C43.1914 35.6844 42.1625 34.9889 40.8211 33.0095C37.2194 27.499 32.6622 15.836 32.0742 8.5957H35.6391C37.9176 8.5957 39.3511 10.3255 39.5899 11.77C40.5271 16.7277 41.8685 21.8993 44.6799 27.4098C47.1974 22.3986 49.5125 15.301 50.5048 8.5957H53.3162C55.5948 8.5957 56.4216 9.59436 56.4216 11.77C56.4402 12.5547 55.7971 15.7647 54.1799 20.2408Z" fill="url(#paint2_linear_3232_546)"/>
<path fill-rule="evenodd" clip-rule="evenodd" d="M68.7144 24.8598H64.3596C64.8556 28.2302 67.9244 30.3702 71.8202 30.3702C74.5947 30.3702 77.8473 29.8173 79.9787 27.8379H80.2176V29.9245C80.2176 33.3485 77.9022 35.9876 70.5887 35.9876C63.9736 35.9876 57.4873 30.7268 57.4873 22.5414C57.4873 13.607 62.9264 8.00732 70.5339 8.00732C76.0647 8.00732 81.2099 11.9841 81.2099 18.3863C81.2099 23.2726 77.4982 24.8598 68.7144 24.8598ZM69.9456 13.5356C66.7302 13.5356 64.5067 16.175 64.3596 19.2423L64.3044 20.1339H67.263C73.5473 20.1339 74.9807 19.4384 74.9807 17.5481C74.9807 14.8731 73.0144 13.5356 69.9456 13.5356Z" fill="url(#paint3_linear_3232_546)"/>
<path fill-rule="evenodd" clip-rule="evenodd" d="M99.3465 15.0693C98.3542 14.677 97.2151 14.2668 95.4876 14.2668C92.5291 14.2668 90.8939 15.9075 90.8939 19.9735V35.3814H89.0745C86.1162 35.3814 84.2236 33.8834 84.2236 31.1194V18.8143C84.2236 13.4465 87.0351 8.34619 94.0545 8.34619C98.1522 8.34619 99.5853 10.6823 99.5853 12.7153V15.105H99.3465" fill="url(#paint4_linear_3232_546)"/>
<path fill-rule="evenodd" clip-rule="evenodd" d="M104.198 4.35147C105.098 3.31716 106.274 2.51465 107.321 2.51465H108.847V8.56013H118.089V11.3064C118.089 12.6974 116.858 14.4808 114.139 14.4808H108.847V24.9489C108.847 28.4264 110.372 29.7639 113.055 29.7639C115.186 29.7639 116.803 29.4607 117.851 28.8187H118.089V31.2084C118.089 33.9367 116.105 35.6667 112.265 35.6667C105.539 35.6667 102.287 31.993 102.287 25.7336V9.64796C102.268 7.0443 102.764 6.04565 104.198 4.35147Z" fill="url(#paint5_linear_3232_546)"/>
<path fill-rule="evenodd" clip-rule="evenodd" d="M129.575 35.6311C124.43 35.6311 121.618 32.7065 121.618 27.3029V9.1665H123.492C126.451 9.1665 128.233 10.7537 128.233 14.1242V26.6431C128.233 29.3182 129.372 30.1742 132.294 30.1742H133.525V31.6185C133.525 34.4896 132.386 35.6311 129.575 35.6311Z" fill="url(#paint6_linear_3232_546)"/>
<path fill-rule="evenodd" clip-rule="evenodd" d="M124.87 0C123.253 0 121.948 1.26616 121.948 2.83549C121.948 4.40483 123.253 5.67097 124.87 5.67097C126.487 5.67097 127.792 4.40483 127.792 2.83549C127.792 1.26616 126.487 0 124.87 0Z" fill="url(#paint7_linear_3232_546)"/>
</g>
<defs>
<linearGradient id="paint0_linear_3232_546" x1="3.33811" y1="23.3049" x2="137.531" y2="24.642" gradientUnits="userSpaceOnUse">
<stop stop-color="#CF420E"/>
<stop offset="0.338542" stop-color="#FF5500"/>
<stop offset="0.677083" stop-color="#FF9000"/>
<stop offset="1" stop-color="#FF9000"/>
</linearGradient>
<linearGradient id="paint1_linear_3232_546" x1="3.33795" y1="23.3047" x2="137.531" y2="24.6418" gradientUnits="userSpaceOnUse">
<stop stop-color="#CF420E"/>
<stop offset="0.338542" stop-color="#FF5500"/>
<stop offset="0.677083" stop-color="#FF9000"/>
<stop offset="1" stop-color="#FF9000"/>
</linearGradient>
<linearGradient id="paint2_linear_3232_546" x1="3.33805" y1="23.3048" x2="137.531" y2="24.6419" gradientUnits="userSpaceOnUse">
<stop stop-color="#CF420E"/>
<stop offset="0.338542" stop-color="#FF5500"/>
<stop offset="0.677083" stop-color="#FF9000"/>
<stop offset="1" stop-color="#FF9000"/>
</linearGradient>
<linearGradient id="paint3_linear_3232_546" x1="3.33771" y1="23.3049" x2="137.53" y2="24.642" gradientUnits="userSpaceOnUse">
<stop stop-color="#CF420E"/>
<stop offset="0.338542" stop-color="#FF5500"/>
<stop offset="0.677083" stop-color="#FF9000"/>
<stop offset="1" stop-color="#FF9000"/>
</linearGradient>
<linearGradient id="paint4_linear_3232_546" x1="3.33777" y1="23.3049" x2="137.53" y2="24.6421" gradientUnits="userSpaceOnUse">
<stop stop-color="#CF420E"/>
<stop offset="0.338542" stop-color="#FF5500"/>
<stop offset="0.677083" stop-color="#FF9000"/>
<stop offset="1" stop-color="#FF9000"/>
</linearGradient>
<linearGradient id="paint5_linear_3232_546" x1="3.33789" y1="23.3048" x2="137.531" y2="24.642" gradientUnits="userSpaceOnUse">
<stop stop-color="#CF420E"/>
<stop offset="0.338542" stop-color="#FF5500"/>
<stop offset="0.677083" stop-color="#FF9000"/>
<stop offset="1" stop-color="#FF9000"/>
</linearGradient>
<linearGradient id="paint6_linear_3232_546" x1="3.33823" y1="23.3049" x2="137.531" y2="24.6421" gradientUnits="userSpaceOnUse">
<stop stop-color="#CF420E"/>
<stop offset="0.338542" stop-color="#FF5500"/>
<stop offset="0.677083" stop-color="#FF9000"/>
<stop offset="1" stop-color="#FF9000"/>
</linearGradient>
<linearGradient id="paint7_linear_3232_546" x1="3.33782" y1="23.3047" x2="137.531" y2="24.6419" gradientUnits="userSpaceOnUse">
<stop stop-color="#CF420E"/>
<stop offset="0.338542" stop-color="#FF5500"/>
<stop offset="0.677083" stop-color="#FF9000"/>
<stop offset="1" stop-color="#FF9000"/>
</linearGradient>
<clipPath id="clip0_3232_546">
<rect width="133.714" height="40" fill="white"/>
</clipPath>
</defs>
</svg>
